<svg width="1002" height="751" viewBox="0 0 1002 751" fill="none" xmlns="http://www.w3.org/2000/svg">
<g opacity="0.05">
<path d="M0 525.773L167 450.725L334 525.773L167 600.822L0 525.773Z" fill="#C505FF"/>
<path d="M0 525.773L167 600.822V750.919L0 675.87V525.773Z" fill="#FD59FF"/>
<path d="M167 600.822L334 525.773V675.87L167 750.919V600.822Z" fill="#8E00CB"/>
<path d="M167 300.628L334 225.579L501 300.628L334 375.676L167 300.628Z" fill="#C505FF"/>
<path d="M167 300.628L334 375.676V525.773L167 450.725V300.628Z" fill="#FD59FF"/>
<path d="M334 375.676L501 300.628V450.725L334 525.773V375.676Z" fill="#8E00CB"/>
<path d="M501 300.628L668 225.579L835 300.628L668 375.676L501 300.628Z" fill="#C505FF"/>
<path d="M501 300.628L668 375.676V525.773L501 450.725V300.628Z" fill="#FD59FF"/>
<path d="M668 375.676L835 300.628V450.725L668 525.773V375.676Z" fill="#8E00CB"/>
<path d="M334 75.4818L501 0.433228L668 75.4818L501 150.53L334 75.4818Z" fill="#C505FF"/>
<path d="M334 75.4818L501 150.53V300.628L334 225.579V75.4818Z" fill="#FD59FF"/>
<path d="M501 150.53L668 75.4818V225.579L501 300.628V150.53Z" fill="#8E00CB"/>
<path d="M668 525.773L835 450.725L1002 525.773L835 600.822L668 525.773Z" fill="#C505FF"/>
<path d="M668 525.773L835 600.822V750.919L668 675.87V525.773Z" fill="#FD59FF"/>
<path d="M835 600.822L1002 525.773V675.87L835 750.919V600.822Z" fill="#8E00CB"/>
</g>
</svg>
