<svg width="341" height="410" viewBox="0 0 341 410" fill="none" xmlns="http://www.w3.org/2000/svg">
<g clip-path="url(#clip0_1_5606)">
<rect width="7.56681" height="77.1369" rx="3.02498" transform="matrix(-1 0 0 1 334.184 201.295)" fill="url(#paint0_linear_1_5606)"/>
<rect width="7.56681" height="74.1119" rx="1.51249" transform="matrix(-1 0 0 1 332.645 202.797)" fill="url(#paint1_linear_1_5606)"/>
<rect width="7.67449" height="51.2935" rx="3.02498" transform="matrix(1 -8.63978e-08 -1.30531e-07 -1 3.35742 323.218)" fill="url(#paint2_linear_1_5606)"/>
<rect width="7.67449" height="48.4173" rx="1.51249" transform="matrix(1 -8.63978e-08 -1.30531e-07 -1 4.79297 321.772)" fill="url(#paint3_linear_1_5606)"/>
<rect width="7.67449" height="50.3348" rx="3.02498" transform="matrix(1 -8.63978e-08 -1.30531e-07 -1 3.37891 251.796)" fill="url(#paint4_linear_1_5606)"/>
<rect width="7.67449" height="22.0514" rx="3.02498" transform="matrix(1 -8.63978e-08 -1.30531e-07 -1 3.85156 183.24)" fill="url(#paint5_linear_1_5606)"/>
<rect width="6.46703" height="48.5027" rx="1.51249" transform="matrix(1 -8.63978e-08 -1.30531e-07 -1 5.52344 251.057)" fill="#3D0072"/>
<rect width="7.67449" height="19.1751" rx="1.51249" transform="matrix(1 -2.87993e-08 -1.5933e-07 -1 5.30078 181.808)" fill="url(#paint6_linear_1_5606)"/>
<rect x="6.89258" y="3.14917" width="323.673" height="648.858" rx="56.7183" fill="#3D0072"/>
<rect x="8.4043" y="4.66406" width="320.648" height="645.833" rx="55.9621" fill="url(#paint7_linear_1_5606)"/>
<rect x="9.77148" y="6.00146" width="317.623" height="642.808" rx="54.4496" fill="#3D0072"/>
<rect x="17.6094" y="13.8486" width="301.589" height="626.776" rx="48.5727" fill="white"/>
<g clip-path="url(#clip1_1_5606)">
<rect x="22" y="18" width="293.676" height="927" rx="40" fill="white"/>
<path d="M48.3003 98.5671C47.5181 98.5671 46.7359 98.5397 45.9536 98.4848C45.1851 98.4436 44.3823 98.3338 43.5452 98.1554V84.3225C44.2039 84.1989 44.9244 84.1097 45.7066 84.0548C46.4888 83.9862 47.2162 83.9519 47.8886 83.9519C48.7943 83.9519 49.6246 84.0205 50.3794 84.1578C51.1479 84.2813 51.8066 84.5009 52.3555 84.8165C52.9044 85.1321 53.3298 85.5507 53.6317 86.0722C53.9474 86.5799 54.1052 87.2112 54.1052 87.966C54.1052 89.105 53.5563 90.0038 52.4584 90.6626C53.3641 91.0056 53.9817 91.4722 54.311 92.0623C54.6404 92.6524 54.8051 93.318 54.8051 94.059C54.8051 95.5549 54.2562 96.6802 53.1583 97.4349C52.0742 98.1897 50.4548 98.5671 48.3003 98.5671ZM46.6741 92.1652V95.8499C46.9074 95.8774 47.1613 95.8979 47.4357 95.9117C47.7102 95.9254 48.0121 95.9323 48.3415 95.9323C49.3021 95.9323 50.0774 95.795 50.6675 95.5206C51.2576 95.2461 51.5527 94.7383 51.5527 93.9973C51.5527 93.3386 51.3057 92.872 50.8116 92.5975C50.3176 92.3093 49.6109 92.1652 48.6914 92.1652H46.6741ZM46.6741 89.7157H48.2385C49.2266 89.7157 49.9334 89.5921 50.3588 89.3451C50.7842 89.0844 50.9969 88.6727 50.9969 88.11C50.9969 87.5337 50.7773 87.1288 50.3382 86.8955C49.899 86.6623 49.2541 86.5456 48.4032 86.5456C48.1288 86.5456 47.8337 86.5525 47.5181 86.5662C47.2024 86.5662 46.9211 86.5799 46.6741 86.6074V89.7157ZM66.4123 98.0113C65.8908 98.1623 65.2184 98.2995 64.395 98.423C63.5716 98.5602 62.707 98.6289 61.8013 98.6289C60.8819 98.6289 60.1134 98.5053 59.4958 98.2583C58.892 98.0113 58.4117 97.6682 58.0549 97.2291C57.6981 96.7762 57.4442 96.241 57.2933 95.6235C57.1423 95.0059 57.0668 94.3266 57.0668 93.5856V87.5543H60.134V93.2151C60.134 94.2031 60.2643 94.9167 60.5251 95.3559C60.7858 95.795 61.273 96.0146 61.9866 96.0146C62.2062 96.0146 62.4394 96.0077 62.6865 95.994C62.9335 95.9666 63.1531 95.9391 63.3452 95.9117V87.5543H66.4123V98.0113ZM71.9057 92.8857C71.9057 93.8326 72.1184 94.5942 72.5438 95.1706C72.9692 95.747 73.6005 96.0352 74.4376 96.0352C74.7121 96.0352 74.966 96.0283 75.1993 96.0146C75.4326 95.9871 75.6247 95.9597 75.7756 95.9323V90.3538C75.5835 90.2303 75.3296 90.1274 75.014 90.045C74.7121 89.9627 74.4033 89.9215 74.0877 89.9215C72.633 89.9215 71.9057 90.9096 71.9057 92.8857ZM78.8428 98.0319C78.5683 98.1142 78.2527 98.1966 77.8959 98.2789C77.5391 98.3475 77.1617 98.4093 76.7637 98.4642C76.3795 98.5191 75.9815 98.5602 75.5698 98.5877C75.1718 98.6289 74.7876 98.6494 74.417 98.6494C73.525 98.6494 72.7291 98.5191 72.0292 98.2583C71.3293 97.9976 70.7392 97.6271 70.2589 97.1468C69.7786 96.6527 69.4081 96.0626 69.1473 95.3765C68.9003 94.6766 68.7768 93.8944 68.7768 93.0298C68.7768 92.1515 68.8866 91.3624 69.1062 90.6626C69.3257 89.9489 69.6414 89.3451 70.0531 88.8511C70.4648 88.3571 70.9657 87.9797 71.5558 87.7189C72.1596 87.4582 72.8457 87.3278 73.6142 87.3278C74.0397 87.3278 74.417 87.369 74.7464 87.4513C75.0895 87.5337 75.4326 87.6503 75.7756 87.8013V82.9021L78.8428 82.4081V98.0319ZM84.3289 92.6181C84.3289 94.3335 85.0219 95.1912 86.408 95.1912C86.7236 95.1912 87.0187 95.15 87.2931 95.0677C87.5676 94.9854 87.8009 94.8893 87.993 94.7795V89.8803C87.842 89.8529 87.6636 89.8323 87.4578 89.8186C87.252 89.7911 87.0118 89.7774 86.7373 89.7774C85.9277 89.7774 85.3238 90.045 84.9259 90.5802C84.5279 91.1154 84.3289 91.7947 84.3289 92.6181ZM91.0601 97.0232C91.0601 98.7935 90.6073 100.104 89.7015 100.955C88.8095 101.819 87.4235 102.252 85.5434 102.252C84.8847 102.252 84.226 102.19 83.5673 102.067C82.9086 101.957 82.2979 101.806 81.7352 101.614L82.2704 99.0405C82.7508 99.2327 83.2516 99.3836 83.7731 99.4934C84.3083 99.6032 84.9122 99.6581 85.5846 99.6581C86.4629 99.6581 87.0804 99.466 87.4372 99.0817C87.8077 98.6975 87.993 98.2034 87.993 97.5996V97.2085C87.6636 97.3595 87.3206 97.4761 86.9638 97.5584C86.6207 97.6271 86.2433 97.6614 85.8316 97.6614C84.3358 97.6614 83.1899 97.2222 82.3939 96.3439C81.598 95.4519 81.2 94.21 81.2 92.6181C81.2 91.8222 81.3235 91.1017 81.5706 90.4567C81.8176 89.798 82.1744 89.2353 82.641 88.7688C83.1213 88.3022 83.7045 87.9454 84.3907 87.6983C85.0768 87.4376 85.8522 87.3072 86.7167 87.3072C87.0873 87.3072 87.4647 87.3278 87.8489 87.369C88.2469 87.3964 88.638 87.4376 89.0222 87.4925C89.4065 87.5474 89.7702 87.616 90.1132 87.6983C90.47 87.767 90.7857 87.8424 91.0601 87.9248V97.0232ZM93.4222 93.0504C93.4222 92.0898 93.5663 91.2527 93.8545 90.539C94.1564 89.8117 94.5475 89.2079 95.0278 88.7276C95.5081 88.2473 96.0571 87.8836 96.6746 87.6366C97.3059 87.3896 97.9509 87.2661 98.6096 87.2661C100.147 87.2661 101.361 87.7395 102.253 88.6864C103.145 89.6196 103.591 90.9988 103.591 92.824C103.591 93.0024 103.584 93.2013 103.571 93.4209C103.557 93.6268 103.543 93.812 103.529 93.9767H96.5717C96.6403 94.608 96.9354 95.1089 97.4568 95.4794C97.9783 95.8499 98.6782 96.0352 99.5565 96.0352C100.119 96.0352 100.668 95.9871 101.203 95.8911C101.752 95.7813 102.198 95.6509 102.541 95.5L102.953 97.9907C102.788 98.0731 102.569 98.1554 102.294 98.2377C102.02 98.3201 101.711 98.3887 101.368 98.4436C101.039 98.5122 100.682 98.5671 100.298 98.6083C99.9133 98.6494 99.529 98.67 99.1448 98.67C98.1704 98.67 97.3196 98.5259 96.5923 98.2377C95.8787 97.9496 95.2817 97.5584 94.8014 97.0644C94.3348 96.5567 93.9849 95.9597 93.7516 95.2735C93.532 94.5874 93.4222 93.8463 93.4222 93.0504ZM100.627 91.8771C100.613 91.6163 100.565 91.3624 100.483 91.1154C100.414 90.8684 100.298 90.6488 100.133 90.4567C99.9819 90.2646 99.7829 90.1068 99.5359 89.9833C99.3026 89.8597 99.0076 89.798 98.6508 89.798C98.3077 89.798 98.0126 89.8597 97.7656 89.9833C97.5186 90.093 97.3127 90.244 97.1481 90.4361C96.9834 90.6282 96.853 90.8547 96.757 91.1154C96.6746 91.3624 96.6129 91.6163 96.5717 91.8771H100.627ZM105.855 84.8577L108.922 84.3636V87.5543H112.607V90.1068H108.922V93.9149C108.922 94.5599 109.032 95.0746 109.252 95.4588C109.485 95.843 109.945 96.0352 110.631 96.0352C110.96 96.0352 111.296 96.0077 111.639 95.9528C111.996 95.8842 112.319 95.795 112.607 95.6852L113.039 98.0731C112.669 98.224 112.257 98.3544 111.804 98.4642C111.351 98.574 110.795 98.6289 110.137 98.6289C109.3 98.6289 108.607 98.5191 108.058 98.2995C107.509 98.0662 107.07 97.7506 106.74 97.3526C106.411 96.9409 106.178 96.4469 106.04 95.8705C105.917 95.2941 105.855 94.656 105.855 93.9561V84.8577Z" fill="#3D0072"/>
<path d="M42.6958 268.988H43.9061V275.645H42.6958V268.988ZM45.4431 270.784C45.6672 270.72 45.9586 270.659 46.3172 270.602C46.6759 270.544 47.0729 270.515 47.5084 270.515C47.9183 270.515 48.2609 270.573 48.5363 270.688C48.8116 270.797 49.0294 270.954 49.1895 271.159C49.356 271.357 49.4713 271.601 49.5353 271.889C49.6058 272.171 49.641 272.481 49.641 272.821V275.645H48.4786V273.003C48.4786 272.734 48.4594 272.507 48.421 272.321C48.389 272.129 48.3313 271.975 48.2481 271.86C48.1712 271.738 48.0624 271.652 47.9215 271.601C47.787 271.543 47.6205 271.514 47.4219 271.514C47.2746 271.514 47.1209 271.524 46.9608 271.543C46.8007 271.562 46.6823 271.578 46.6054 271.591V275.645H45.4431V270.784ZM52.2182 275.645C51.898 274.985 51.5682 274.229 51.2288 273.378C50.8958 272.52 50.5916 271.601 50.3162 270.621H51.5554C51.6258 270.903 51.7059 271.207 51.7955 271.533C51.8916 271.854 51.9909 272.177 52.0933 272.504C52.2022 272.824 52.3111 273.138 52.4199 273.445C52.5352 273.746 52.6409 274.018 52.737 274.261C52.833 274.018 52.9355 273.746 53.0444 273.445C53.1532 273.138 53.2589 272.824 53.3614 272.504C53.4702 272.177 53.5727 271.854 53.6688 271.533C53.7648 271.207 53.8481 270.903 53.9185 270.621H55.1193C54.8439 271.601 54.5365 272.52 54.1971 273.378C53.8641 274.229 53.5375 274.985 53.2173 275.645H52.2182ZM55.5962 273.157C55.5962 272.715 55.6603 272.327 55.7884 271.994C55.9228 271.661 56.099 271.386 56.3167 271.168C56.5344 270.944 56.7842 270.778 57.066 270.669C57.3478 270.553 57.6359 270.496 57.9305 270.496C58.6222 270.496 59.1601 270.71 59.5444 271.139C59.935 271.569 60.1304 272.209 60.1304 273.061C60.1304 273.125 60.1272 273.198 60.1208 273.282C60.1208 273.358 60.1176 273.429 60.1111 273.493H56.797C56.829 273.896 56.9699 274.21 57.2197 274.434C57.4758 274.652 57.8441 274.761 58.3244 274.761C58.6062 274.761 58.8623 274.735 59.0929 274.684C59.3298 274.633 59.5156 274.578 59.6501 274.521L59.8037 275.472C59.7397 275.504 59.65 275.539 59.5348 275.578C59.4259 275.61 59.2978 275.638 59.1505 275.664C59.0096 275.696 58.8559 275.722 58.6894 275.741C58.5229 275.76 58.3532 275.77 58.1803 275.77C57.7384 275.77 57.3542 275.706 57.0276 275.578C56.7009 275.443 56.432 275.261 56.2206 275.03C56.0093 274.793 55.8524 274.518 55.7499 274.204C55.6475 273.884 55.5962 273.535 55.5962 273.157ZM58.968 272.638C58.968 272.478 58.9456 272.327 58.9008 272.187C58.8559 272.039 58.7887 271.914 58.699 271.812C58.6158 271.703 58.5101 271.62 58.382 271.562C58.2604 271.498 58.1131 271.466 57.9401 271.466C57.7608 271.466 57.6039 271.501 57.4694 271.572C57.335 271.636 57.2197 271.722 57.1236 271.831C57.034 271.94 56.9635 272.065 56.9123 272.206C56.861 272.347 56.8258 272.491 56.8066 272.638H58.968ZM62.6211 274.809C62.9285 274.809 63.1527 274.774 63.2936 274.703C63.4345 274.627 63.5049 274.498 63.5049 274.319C63.5049 274.153 63.4281 274.015 63.2744 273.906C63.1271 273.797 62.8805 273.679 62.5347 273.551C62.3234 273.474 62.128 273.394 61.9487 273.31C61.7758 273.221 61.6253 273.118 61.4972 273.003C61.3691 272.888 61.2667 272.75 61.1898 272.59C61.1194 272.423 61.0842 272.222 61.0842 271.985C61.0842 271.524 61.2539 271.162 61.5933 270.899C61.9327 270.63 62.3938 270.496 62.9766 270.496C63.2712 270.496 63.553 270.525 63.8219 270.582C64.0909 270.634 64.2926 270.685 64.4271 270.736L64.2158 271.677C64.0877 271.62 63.9244 271.569 63.7259 271.524C63.5273 271.472 63.2968 271.447 63.0342 271.447C62.7973 271.447 62.6051 271.488 62.4578 271.572C62.3105 271.649 62.2369 271.77 62.2369 271.937C62.2369 272.02 62.2497 272.094 62.2753 272.158C62.3073 272.222 62.3586 272.283 62.429 272.34C62.4995 272.391 62.5923 272.446 62.7076 272.504C62.8229 272.555 62.9638 272.609 63.1303 272.667C63.4057 272.769 63.6394 272.872 63.8315 272.974C64.0237 273.07 64.1806 273.182 64.3022 273.31C64.4303 273.432 64.5232 273.573 64.5808 273.733C64.6385 273.893 64.6673 274.085 64.6673 274.31C64.6673 274.79 64.488 275.155 64.1293 275.405C63.7771 275.648 63.2712 275.77 62.6115 275.77C62.1697 275.77 61.8142 275.731 61.5453 275.654C61.2763 275.584 61.0874 275.526 60.9785 275.481L61.1802 274.511C61.3531 274.582 61.5581 274.649 61.795 274.713C62.0384 274.777 62.3137 274.809 62.6211 274.809ZM65.6954 269.295L66.8578 269.103V270.621H68.6445V271.591H66.8578V273.637C66.8578 274.041 66.9218 274.329 67.0499 274.502C67.178 274.675 67.3957 274.761 67.7031 274.761C67.9145 274.761 68.1002 274.739 68.2603 274.694C68.4268 274.649 68.5581 274.607 68.6542 274.569L68.8463 275.491C68.7118 275.549 68.5357 275.606 68.3179 275.664C68.1002 275.728 67.844 275.76 67.5494 275.76C67.1908 275.76 66.8898 275.712 66.6465 275.616C66.4095 275.52 66.2206 275.382 66.0797 275.203C65.9388 275.017 65.8395 274.796 65.7819 274.54C65.7243 274.277 65.6954 273.98 65.6954 273.647V269.295ZM75.0074 272.484C74.8601 273.048 74.7 273.599 74.5271 274.137C74.3606 274.668 74.1941 275.171 74.0276 275.645H73.0765C72.9485 275.35 72.814 275.014 72.6731 274.636C72.5322 274.258 72.3913 273.855 72.2504 273.426C72.1095 272.997 71.9686 272.545 71.8277 272.071C71.6868 271.597 71.5492 271.114 71.4147 270.621H72.6443C72.7019 270.89 72.7691 271.181 72.846 271.495C72.9228 271.802 73.0029 272.119 73.0861 272.446C73.1694 272.766 73.2559 273.08 73.3455 273.387C73.4352 273.695 73.5248 273.976 73.6145 274.233C73.7105 273.938 73.8034 273.634 73.8931 273.32C73.9891 273.006 74.0788 272.692 74.162 272.379C74.2453 272.065 74.3221 271.761 74.3926 271.466C74.4694 271.165 74.5367 270.883 74.5943 270.621H75.4877C75.5453 270.883 75.6094 271.165 75.6798 271.466C75.7503 271.761 75.8239 272.065 75.9008 272.379C75.984 272.692 76.0705 273.006 76.1601 273.32C76.2562 273.634 76.3523 273.938 76.4483 274.233C76.5316 273.976 76.618 273.695 76.7077 273.387C76.7973 273.08 76.8838 272.766 76.9671 272.446C77.0567 272.119 77.14 271.802 77.2168 271.495C77.2937 271.181 77.3609 270.89 77.4185 270.621H78.6193C78.4848 271.114 78.3472 271.597 78.2063 272.071C78.0654 272.545 77.9245 272.997 77.7836 273.426C77.6427 273.855 77.5018 274.258 77.3609 274.636C77.22 275.014 77.0823 275.35 76.9478 275.645H76.0064C75.8399 275.171 75.667 274.668 75.4877 274.137C75.3148 273.599 75.1547 273.048 75.0074 272.484ZM80.6777 275.645H79.5153V270.621H80.6777V275.645ZM80.8026 269.151C80.8026 269.369 80.7321 269.542 80.5912 269.67C80.4503 269.798 80.2838 269.862 80.0917 269.862C79.8932 269.862 79.7235 269.798 79.5826 269.67C79.4417 269.542 79.3712 269.369 79.3712 269.151C79.3712 268.927 79.4417 268.751 79.5826 268.623C79.7235 268.495 79.8932 268.431 80.0917 268.431C80.2838 268.431 80.4503 268.495 80.5912 268.623C80.7321 268.751 80.8026 268.927 80.8026 269.151ZM82.1029 269.295L83.2653 269.103V270.621H85.052V271.591H83.2653V273.637C83.2653 274.041 83.3293 274.329 83.4574 274.502C83.5855 274.675 83.8032 274.761 84.1106 274.761C84.322 274.761 84.5077 274.739 84.6678 274.694C84.8343 274.649 84.9656 274.607 85.0616 274.569L85.2538 275.491C85.1193 275.549 84.9432 275.606 84.7254 275.664C84.5077 275.728 84.2515 275.76 83.9569 275.76C83.5983 275.76 83.2973 275.712 83.0539 275.616C82.817 275.52 82.6281 275.382 82.4872 275.203C82.3463 275.017 82.247 274.796 82.1894 274.54C82.1317 274.277 82.1029 273.98 82.1029 273.647V269.295ZM86.1757 275.645V268.382L87.338 268.19V270.678C87.4661 270.634 87.6134 270.595 87.7799 270.563C87.9528 270.531 88.1225 270.515 88.289 270.515C88.6925 270.515 89.0255 270.573 89.2881 270.688C89.5571 270.797 89.7716 270.954 89.9317 271.159C90.0918 271.357 90.2039 271.597 90.2679 271.879C90.3384 272.161 90.3736 272.475 90.3736 272.821V275.645H89.2112V273.003C89.2112 272.734 89.192 272.507 89.1536 272.321C89.1216 272.129 89.0639 271.975 88.9807 271.86C88.9038 271.738 88.7982 271.652 88.6637 271.601C88.5292 271.543 88.3627 271.514 88.1642 271.514C88.0105 271.514 87.8536 271.53 87.6934 271.562C87.5333 271.594 87.4149 271.623 87.338 271.649V275.645H86.1757ZM98.1299 275.491C97.9058 275.549 97.6144 275.606 97.2558 275.664C96.8971 275.728 96.5033 275.76 96.0742 275.76C95.6707 275.76 95.3313 275.702 95.0559 275.587C94.787 275.472 94.5692 275.312 94.4027 275.107C94.2426 274.902 94.1273 274.659 94.0569 274.377C93.9864 274.089 93.9512 273.775 93.9512 273.435V270.621H95.1136V273.253C95.1136 273.791 95.1904 274.175 95.3441 274.406C95.5042 274.636 95.7796 274.751 96.1703 274.751C96.3111 274.751 96.4584 274.745 96.6121 274.732C96.7722 274.719 96.8907 274.703 96.9676 274.684V270.621H98.1299V275.491ZM100.868 274.809C101.175 274.809 101.399 274.774 101.54 274.703C101.681 274.627 101.752 274.498 101.752 274.319C101.752 274.153 101.675 274.015 101.521 273.906C101.374 273.797 101.127 273.679 100.781 273.551C100.57 273.474 100.375 273.394 100.195 273.31C100.022 273.221 99.8719 273.118 99.7438 273.003C99.6158 272.888 99.5133 272.75 99.4364 272.59C99.366 272.423 99.3308 272.222 99.3308 271.985C99.3308 271.524 99.5005 271.162 99.8399 270.899C100.179 270.63 100.64 270.496 101.223 270.496C101.518 270.496 101.8 270.525 102.069 270.582C102.338 270.634 102.539 270.685 102.674 270.736L102.462 271.677C102.334 271.62 102.171 271.569 101.972 271.524C101.774 271.472 101.543 271.447 101.281 271.447C101.044 271.447 100.852 271.488 100.704 271.572C100.557 271.649 100.484 271.77 100.484 271.937C100.484 272.02 100.496 272.094 100.522 272.158C100.554 272.222 100.605 272.283 100.676 272.34C100.746 272.391 100.839 272.446 100.954 272.504C101.07 272.555 101.21 272.609 101.377 272.667C101.652 272.769 101.886 272.872 102.078 272.974C102.27 273.07 102.427 273.182 102.549 273.31C102.677 273.432 102.77 273.573 102.827 273.733C102.885 273.893 102.914 274.085 102.914 274.31C102.914 274.79 102.735 275.155 102.376 275.405C102.024 275.648 101.518 275.77 100.858 275.77C100.416 275.77 100.061 275.731 99.7919 275.654C99.5229 275.584 99.334 275.526 99.2251 275.481L99.4268 274.511C99.5998 274.582 99.8047 274.649 100.042 274.713C100.285 274.777 100.56 274.809 100.868 274.809Z" fill="#3D0072"/>
<rect x="39" y="136" width="261.303" height="84.0157" rx="8.23684" fill="#F9F9F9"/>
<path d="M58.6101 177V174.558H58.0368V173.827H58.6101V173.115H58.0368L58.0368 172.384H58.6101V169.942H60.1619L60.9329 172.384H61.8324V169.942H62.9295V172.384H63.4929V173.115H62.9295V173.827H63.4929V174.558H62.9295V177H61.3678L60.5771 174.558H59.7073V177H58.6101ZM59.7073 173.827H60.3596L60.1422 173.115H59.6875L59.7073 173.827ZM61.862 175.458H61.9114L61.8719 174.558H61.605L61.862 175.458ZM59.6677 172.384H59.9445L59.6578 171.435H59.6183L59.6677 172.384ZM61.3975 173.827H61.8521L61.8324 173.115H61.1701L61.3975 173.827ZM70.5134 177.148C72.767 177.148 74.1755 175.784 74.1755 173.738C74.1755 171.766 73.0783 170.491 71.1954 170.491C69.8759 170.491 69.0752 171.203 68.7639 172.092L69.0011 168.608H73.4342V167.066H67.3999L67.0737 172.715L68.7046 172.878L68.7194 172.745C68.8084 172.107 69.4756 171.707 70.4244 171.707C71.4475 171.707 72.3815 172.27 72.3815 173.664C72.3815 174.82 71.7292 175.532 70.5282 175.532C69.2532 175.532 68.3784 174.791 68.0374 173.56L66.703 174.85C67.2071 176.14 68.6156 177.148 70.5134 177.148ZM75.9257 178.72C77.0377 178.601 77.4676 178.023 77.4676 177.029V174.894H75.5699V177H76.4446V177.192C76.4446 177.682 76.1184 177.786 75.5847 177.845L75.9257 178.72ZM82.7625 177.133C85.535 177.133 86.9287 174.939 86.9287 172.018C86.9287 169.112 85.535 166.918 82.7625 166.918C79.99 166.918 78.5815 169.112 78.5815 172.018C78.5815 174.939 79.99 177.133 82.7625 177.133ZM82.7625 175.532C80.9981 175.532 80.3458 174.109 80.3458 172.018C80.3458 169.942 80.9981 168.504 82.7625 168.504C84.5416 168.504 85.1792 169.942 85.1792 172.018C85.1792 174.109 84.5416 175.532 82.7625 175.532ZM92.4488 177.133C95.2213 177.133 96.615 174.939 96.615 172.018C96.615 169.112 95.2213 166.918 92.4488 166.918C89.6763 166.918 88.2678 169.112 88.2678 172.018C88.2678 174.939 89.6763 177.133 92.4488 177.133ZM92.4488 175.532C90.6845 175.532 90.0321 174.109 90.0321 172.018C90.0321 169.942 90.6845 168.504 92.4488 168.504C94.228 168.504 94.8655 169.942 94.8655 172.018C94.8655 174.109 94.228 175.532 92.4488 175.532ZM102.135 177.133C104.908 177.133 106.301 174.939 106.301 172.018C106.301 169.112 104.908 166.918 102.135 166.918C99.3626 166.918 97.9541 169.112 97.9541 172.018C97.9541 174.939 99.3626 177.133 102.135 177.133ZM102.135 175.532C100.371 175.532 99.7184 174.109 99.7184 172.018C99.7184 169.942 100.371 168.504 102.135 168.504C103.914 168.504 104.552 169.942 104.552 172.018C104.552 174.109 103.914 175.532 102.135 175.532ZM107.779 178.72C108.891 178.601 109.321 178.023 109.321 177.029V174.894H107.423V177H108.298V177.192C108.298 177.682 107.972 177.786 107.438 177.845L107.779 178.72ZM114.616 177.133C117.388 177.133 118.782 174.939 118.782 172.018C118.782 169.112 117.388 166.918 114.616 166.918C111.843 166.918 110.435 169.112 110.435 172.018C110.435 174.939 111.843 177.133 114.616 177.133ZM114.616 175.532C112.852 175.532 112.199 174.109 112.199 172.018C112.199 169.942 112.852 168.504 114.616 168.504C116.395 168.504 117.033 169.942 117.033 172.018C117.033 174.109 116.395 175.532 114.616 175.532ZM124.302 177.133C127.075 177.133 128.468 174.939 128.468 172.018C128.468 169.112 127.075 166.918 124.302 166.918C121.53 166.918 120.121 169.112 120.121 172.018C120.121 174.939 121.53 177.133 124.302 177.133ZM124.302 175.532C122.538 175.532 121.885 174.109 121.885 172.018C121.885 169.942 122.538 168.504 124.302 168.504C126.081 168.504 126.719 169.942 126.719 172.018C126.719 174.109 126.081 175.532 124.302 175.532ZM133.989 177.133C136.761 177.133 138.155 174.939 138.155 172.018C138.155 169.112 136.761 166.918 133.989 166.918C131.216 166.918 129.807 169.112 129.807 172.018C129.807 174.939 131.216 177.133 133.989 177.133ZM133.989 175.532C132.224 175.532 131.572 174.109 131.572 172.018C131.572 169.942 132.224 168.504 133.989 168.504C135.768 168.504 136.405 169.942 136.405 172.018C136.405 174.109 135.768 175.532 133.989 175.532ZM141.174 177V174.894H139.277V177H141.174ZM146.469 177.133C149.242 177.133 150.635 174.939 150.635 172.018C150.635 169.112 149.242 166.918 146.469 166.918C143.697 166.918 142.288 169.112 142.288 172.018C142.288 174.939 143.697 177.133 146.469 177.133ZM146.469 175.532C144.705 175.532 144.053 174.109 144.053 172.018C144.053 169.942 144.705 168.504 146.469 168.504C148.248 168.504 148.886 169.942 148.886 172.018C148.886 174.109 148.248 175.532 146.469 175.532ZM156.156 177.133C158.928 177.133 160.322 174.939 160.322 172.018C160.322 169.112 158.928 166.918 156.156 166.918C153.383 166.918 151.975 169.112 151.975 172.018C151.975 174.939 153.383 177.133 156.156 177.133ZM156.156 175.532C154.391 175.532 153.739 174.109 153.739 172.018C153.739 169.942 154.391 168.504 156.156 168.504C157.935 168.504 158.572 169.942 158.572 172.018C158.572 174.109 157.935 175.532 156.156 175.532Z" fill="#3D0072"/>
<path fill-rule="evenodd" clip-rule="evenodd" d="M164.935 174.577C164.935 174.577 167.252 169.993 171.113 169.993C174.974 169.993 177.29 174.577 177.29 174.577C177.29 174.577 174.974 179.161 171.113 179.161C167.252 179.161 164.935 174.577 164.935 174.577ZM166.333 174.676C166.312 174.643 166.291 174.61 166.271 174.577L166.334 174.477C166.586 174.088 166.957 173.571 167.431 173.059C168.405 172.006 169.661 171.139 171.113 171.139C172.563 171.139 173.82 172.006 174.796 173.059C175.228 173.529 175.616 174.037 175.954 174.577C175.614 175.115 175.226 175.623 174.795 176.094C173.82 177.147 172.564 178.015 171.113 178.015C169.662 178.015 168.405 177.147 167.429 176.094C167.024 175.653 166.657 175.179 166.333 174.676ZM173.429 174.577C173.429 175.059 173.275 175.529 172.989 175.92C172.703 176.311 172.3 176.602 171.837 176.753C171.373 176.904 170.874 176.906 170.409 176.76C169.945 176.613 169.538 176.325 169.249 175.937C168.959 175.549 168.801 175.08 168.796 174.598C168.792 174.115 168.941 173.644 169.223 173.25C169.505 172.857 169.906 172.561 170.367 172.406C170.829 172.251 171.328 172.244 171.795 172.386C171.624 172.462 171.474 172.578 171.359 172.724C171.244 172.87 171.166 173.042 171.133 173.224C171.099 173.407 171.111 173.594 171.166 173.771C171.222 173.948 171.321 174.109 171.453 174.24C171.585 174.371 171.748 174.468 171.927 174.524C172.106 174.579 172.295 174.59 172.48 174.557C172.664 174.524 172.837 174.447 172.985 174.333C173.133 174.219 173.25 174.071 173.327 173.902C173.395 174.121 173.43 174.348 173.429 174.577Z" fill="#9CA3AF"/>
<rect x="57.9382" y="187.868" width="49.3819" height="17.6214" rx="8.81071" fill="#3D0072" fill-opacity="0.11"/>
<rect x="61.2332" y="191.179" width="24.8304" height="11" rx="5.5" fill="white"/>
<path d="M67.7277 198.179V195.292L67.6946 194.703L68.0919 195.292L70.1247 198.179H70.6412V193.743H70.0651V196.577L70.0982 197.252L69.6413 196.563L67.6615 193.743H67.1517V198.179H67.7277ZM73.2555 198.232C74.2752 198.232 74.8446 197.451 74.8777 196.464L75.0565 198.179H75.4141V195.954H73.4541V196.464H74.8115C74.646 197.212 74.3083 197.689 73.4541 197.689C72.494 197.689 72.0504 196.967 72.0504 195.954C72.0504 194.941 72.5073 194.219 73.5137 194.219C74.295 194.219 74.7321 194.696 74.8844 195.325L75.4008 194.987C75.1029 194.147 74.4341 193.676 73.5071 193.676C72.1696 193.676 71.4412 194.656 71.4412 195.954C71.4412 197.298 72.0702 198.232 73.2555 198.232ZM76.9098 198.179V195.292L76.8767 194.703L77.274 195.292L79.3067 198.179H79.8232V193.743H79.2472V196.577L79.2803 197.252L78.8234 196.563L76.8436 193.743H76.3337V198.179H76.9098Z" fill="#3D0072" fill-opacity="0.8"/>
<path d="M92.3007 198.245C93.4794 198.245 93.9958 197.636 93.9958 196.325V193.743H93.4264V196.325C93.4264 197.305 93.1218 197.696 92.3074 197.696C91.5062 197.696 91.195 197.305 91.195 196.325V193.743H90.6189V196.325C90.6189 197.636 91.1486 198.245 92.3007 198.245ZM96.5643 198.245C97.4251 198.245 98.0674 197.782 98.0674 197.014C98.0674 196.14 97.3788 195.895 96.7497 195.742L96.2664 195.623C95.7565 195.497 95.4321 195.332 95.4321 194.888C95.4321 194.478 95.7962 194.233 96.2862 194.233C96.8623 194.233 97.3125 194.478 97.5244 195.08L98.0078 194.696C97.7363 194.034 97.1007 193.683 96.2995 193.683C95.5248 193.683 94.8229 194.12 94.8229 194.928C94.8229 195.762 95.4916 196.027 96.081 196.159L96.4981 196.252C97.0874 196.391 97.4781 196.517 97.4781 197.027C97.4781 197.51 97.0609 197.702 96.5643 197.702C96.0081 197.702 95.3195 197.444 95.1142 196.722L94.6772 197.106C94.9686 197.927 95.73 198.245 96.5643 198.245ZM100.428 198.179C101.825 198.179 102.52 197.365 102.52 195.961C102.52 194.557 101.825 193.743 100.428 193.743H98.8584V198.179H100.428ZM100.335 194.252C101.341 194.252 101.924 194.696 101.924 195.961C101.924 197.225 101.341 197.669 100.335 197.669H99.4345V194.252H100.335Z" fill="#3D0072" fill-opacity="0.3"/>
<path d="M116.007 198.679V197.043H115.623V196.553H116.007V196.076H115.623V195.586H116.007V193.951H117.047L117.563 195.586H118.166V193.951H118.901V195.586H119.279V196.076H118.901V196.553H119.279V197.043H118.901V198.679H117.855L117.325 197.043H116.742V198.679H116.007ZM116.742 196.553H117.179L117.034 196.076H116.729L116.742 196.553ZM118.186 197.646H118.219L118.193 197.043H118.014L118.186 197.646ZM116.716 195.586H116.901L116.709 194.951H116.683L116.716 195.586ZM117.875 196.553H118.179L118.166 196.076H117.722L117.875 196.553ZM121.016 198.679C121.016 196.825 121.651 195.884 122.539 195.01V194.242H119.512V194.931H121.837C121.141 195.619 120.194 196.606 120.194 198.679H121.016ZM125.398 198.679V197.679H126.146V197.03H125.398V194.242H124.61L122.438 197.103V197.679H124.656V198.679H125.398ZM123.259 197.03L124.656 195.209V197.03H123.259ZM128.387 198.739C129.625 198.739 130.248 197.758 130.248 196.454C130.248 195.156 129.625 194.176 128.387 194.176C127.149 194.176 126.519 195.156 126.519 196.454C126.519 197.758 127.149 198.739 128.387 198.739ZM128.387 198.023C127.599 198.023 127.308 197.388 127.308 196.454C127.308 195.527 127.599 194.884 128.387 194.884C129.182 194.884 129.466 195.527 129.466 196.454C129.466 197.388 129.182 198.023 128.387 198.023ZM132.753 198.944L134.475 193.977H133.793L132.071 198.944H132.753ZM137.026 199.341V198.739C137.847 198.686 138.443 198.235 138.443 197.48C138.443 196.633 137.808 196.354 137.099 196.182L137.026 196.162V194.951C137.357 195.056 137.642 195.288 137.808 195.666L138.371 195.129C138.112 194.633 137.636 194.315 137.026 194.215V193.58H136.563V194.182C135.755 194.182 135.033 194.633 135.033 195.467C135.033 196.308 135.702 196.593 136.331 196.725L136.563 196.778V198.03C136.099 197.944 135.622 197.679 135.43 197.156L134.9 197.692C135.205 198.348 135.841 198.666 136.563 198.732V199.341H137.026ZM135.814 195.414C135.814 195.076 136.119 194.878 136.543 194.878H136.563V196.05C136.119 195.944 135.814 195.805 135.814 195.414ZM137.682 197.494C137.682 197.851 137.397 198.017 137.026 198.05V196.884C137.437 196.997 137.682 197.136 137.682 197.494ZM140.51 198.679V194.242H139.854C139.629 194.527 139.317 194.639 138.953 194.639V195.182H139.761V198.679H140.51Z" fill="#B69FC9"/>
<path d="M58.7436 156.179L59.3448 154.639H61.7582L62.3595 156.179H63.1503L60.9263 150.661H60.2097L57.9858 156.179H58.7436ZM60.2756 152.259L60.5557 151.394L60.8275 152.259L61.5111 154.005H59.5919L60.2756 152.259ZM65.2275 156.262C66.2653 156.262 66.8749 155.661 67.0643 154.862L66.3642 154.573C66.2818 155.207 65.9523 155.669 65.2357 155.669C64.5109 155.669 64.0743 155.125 64.0743 154.186C64.0743 153.247 64.5109 152.712 65.2357 152.712C65.9523 152.712 66.2818 153.165 66.3642 153.799L67.0643 153.511C66.8749 152.712 66.2653 152.11 65.2275 152.11C64.0826 152.11 63.3495 152.926 63.3495 154.186C63.3495 155.455 64.0826 156.262 65.2275 156.262ZM69.4987 156.262C70.5366 156.262 71.1461 155.661 71.3356 154.862L70.6354 154.573C70.5531 155.207 70.2236 155.669 69.507 155.669C68.7821 155.669 68.3456 155.125 68.3456 154.186C68.3456 153.247 68.7821 152.712 69.507 152.712C70.2236 152.712 70.5531 153.165 70.6354 153.799L71.3356 153.511C71.1461 152.712 70.5366 152.11 69.4987 152.11C68.3538 152.11 67.6207 152.926 67.6207 154.186C67.6207 155.455 68.3538 156.262 69.4987 156.262ZM73.7123 156.262C74.8161 156.262 75.5986 155.446 75.5986 154.186C75.5986 152.926 74.8161 152.11 73.7123 152.11C72.6086 152.11 71.8343 152.926 71.8343 154.186C71.8343 155.446 72.6086 156.262 73.7123 156.262ZM73.7123 155.661C73.0369 155.661 72.5674 155.191 72.5674 154.186C72.5674 153.173 73.0369 152.712 73.7123 152.712C74.396 152.712 74.8737 153.173 74.8737 154.186C74.8737 155.191 74.396 155.661 73.7123 155.661ZM77.742 156.262C78.541 156.262 78.9693 155.718 79.1176 155.092V156.179H79.8259V152.193H79.1176V154.458C79.1176 155.117 78.8375 155.661 78.0632 155.661C77.3878 155.661 77.1819 155.29 77.1819 154.779V152.193H76.4735V154.952C76.4735 155.792 76.9595 156.262 77.742 156.262ZM81.6309 156.179V153.923C81.6309 153.255 81.9109 152.72 82.677 152.72C83.3524 152.72 83.5583 153.082 83.5583 153.601V156.179H84.2667V153.428C84.2667 152.58 83.7807 152.11 82.9982 152.11C82.2157 152.11 81.7874 152.638 81.6309 153.255V152.193H80.9143V156.179H81.6309ZM86.5521 156.27C87.1039 156.27 87.4828 156.015 87.6558 155.743L87.4169 155.035C87.3099 155.282 87.0628 155.578 86.7086 155.578C86.3956 155.578 86.1567 155.455 86.1567 154.944V152.753H87.4664V152.193H86.1567V151.155L85.4401 151.682V152.193H84.7976V152.753H85.4401V155.158C85.4401 155.842 85.9014 156.27 86.5521 156.27ZM92.4886 156.179C93.6829 156.179 94.3913 155.636 94.3913 154.697C94.3913 153.988 93.9877 153.42 92.8345 153.297C93.7571 153.198 94.1442 152.662 94.1442 152.069C94.1442 151.229 93.5841 150.661 92.5298 150.661H90.1987V156.179H92.4886ZM92.2827 151.295C92.9416 151.295 93.4029 151.501 93.4029 152.16C93.4029 152.827 92.9498 153.025 92.3156 153.025H90.9154V151.295H92.2827ZM92.398 153.667C93.1146 153.667 93.65 153.939 93.65 154.606C93.65 155.265 93.2464 155.545 92.3733 155.545H90.9154V153.667H92.398ZM96.1927 156.262C97.0163 156.262 97.4447 155.669 97.5764 155.142V155.422C97.5764 155.982 97.873 156.179 98.2848 156.179H98.7461V155.529H98.4907C98.3425 155.529 98.2683 155.471 98.2683 155.282V153.642C98.2683 152.695 97.7412 152.11 96.761 152.11C95.8714 152.11 95.2784 152.613 95.0395 153.025L95.5255 153.527C95.7314 153.091 96.1103 152.761 96.6786 152.761C97.3046 152.761 97.527 153.107 97.5517 153.577L96.1103 154.219C95.5419 154.474 95.1383 154.812 95.1383 155.348C95.1383 155.875 95.5172 156.262 96.1927 156.262ZM95.8632 155.232C95.8632 154.985 96.0362 154.82 96.415 154.639L97.5764 154.096V154.647C97.5764 155.224 97.0987 155.669 96.4233 155.669C96.0526 155.669 95.8632 155.504 95.8632 155.232ZM100.292 156.179V150.661H99.5759V156.179H100.292ZM102.193 156.262C103.017 156.262 103.445 155.669 103.577 155.142V155.422C103.577 155.982 103.874 156.179 104.285 156.179H104.747V155.529H104.491C104.343 155.529 104.269 155.471 104.269 155.282V153.642C104.269 152.695 103.742 152.11 102.762 152.11C101.872 152.11 101.279 152.613 101.04 153.025L101.526 153.527C101.732 153.091 102.111 152.761 102.679 152.761C103.305 152.761 103.528 153.107 103.552 153.577L102.111 154.219C101.543 154.474 101.139 154.812 101.139 155.348C101.139 155.875 101.518 156.262 102.193 156.262ZM101.864 155.232C101.864 154.985 102.037 154.82 102.416 154.639L103.577 154.096V154.647C103.577 155.224 103.099 155.669 102.424 155.669C102.053 155.669 101.864 155.504 101.864 155.232ZM106.293 156.179V153.923C106.293 153.255 106.573 152.72 107.339 152.72C108.015 152.72 108.221 153.082 108.221 153.601V156.179H108.929V153.428C108.929 152.58 108.443 152.11 107.66 152.11C106.878 152.11 106.45 152.638 106.293 153.255V152.193H105.577V156.179H106.293ZM111.632 156.262C112.67 156.262 113.279 155.661 113.469 154.862L112.769 154.573C112.686 155.207 112.357 155.669 111.64 155.669C110.915 155.669 110.479 155.125 110.479 154.186C110.479 153.247 110.915 152.712 111.64 152.712C112.357 152.712 112.686 153.165 112.769 153.799L113.469 153.511C113.279 152.712 112.67 152.11 111.632 152.11C110.487 152.11 109.754 152.926 109.754 154.186C109.754 155.455 110.487 156.262 111.632 156.262ZM115.945 156.262C116.809 156.262 117.361 155.858 117.658 155.38L117.221 154.886C117.065 155.232 116.743 155.669 115.945 155.669C115.236 155.669 114.767 155.191 114.725 154.351H117.682C117.699 154.277 117.715 154.153 117.715 154.03C117.715 152.86 117.032 152.11 115.903 152.11C114.808 152.11 114.034 152.926 114.034 154.186C114.034 155.455 114.816 156.262 115.945 156.262ZM115.903 152.712C116.571 152.712 116.999 153.099 117.073 153.832H114.742C114.833 153.091 115.261 152.712 115.903 152.712Z" fill="#6B7280"/>
<rect x="39.0002" y="241.295" width="84.0157" height="42.7199" rx="5.69598" fill="#FCE8EE"/>
<path d="M80.1611 266.378V261.312H81.9724V260.654H77.615V261.312H79.4263V266.378H80.1611ZM83.5871 266.464C84.732 266.464 85.5436 265.618 85.5436 264.311C85.5436 263.003 84.732 262.157 83.5871 262.157C82.4422 262.157 81.639 263.003 81.639 264.311C81.639 265.618 82.4422 266.464 83.5871 266.464ZM83.5871 265.84C82.8865 265.84 82.3995 265.353 82.3995 264.311C82.3995 263.26 82.8865 262.781 83.5871 262.781C84.2962 262.781 84.7918 263.26 84.7918 264.311C84.7918 265.353 84.2962 265.84 83.5871 265.84ZM87.2369 267.967V265.31C87.3821 265.934 87.7752 266.464 88.5697 266.464C89.6121 266.464 90.2615 265.609 90.2615 264.302C90.2615 262.995 89.6121 262.149 88.5697 262.149C87.7752 262.149 87.3821 262.679 87.2369 263.302V262.243H86.4936V267.967H87.2369ZM87.2369 264.601V264.011C87.2369 263.328 87.5274 262.773 88.3134 262.773C88.9713 262.773 89.5096 263.251 89.5096 264.302C89.5096 265.361 88.9713 265.84 88.3134 265.84C87.5274 265.84 87.2369 265.285 87.2369 264.601ZM95.2052 266.464C96.726 266.464 97.3925 265.678 97.3925 263.986V260.654H96.6577V263.986C96.6577 265.25 96.2647 265.754 95.2138 265.754C94.1799 265.754 93.7784 265.25 93.7784 263.986V260.654H93.035V263.986C93.035 265.678 93.7186 266.464 95.2052 266.464ZM99.2602 267.967V265.31C99.4054 265.934 99.7985 266.464 100.593 266.464C101.635 266.464 102.285 265.609 102.285 264.302C102.285 262.995 101.635 262.149 100.593 262.149C99.7985 262.149 99.4054 262.679 99.2602 263.302V262.243H98.5169V267.967H99.2602ZM99.2602 264.601V264.011C99.2602 263.328 99.5507 262.773 100.337 262.773C100.995 262.773 101.533 263.251 101.533 264.302C101.533 265.361 100.995 265.84 100.337 265.84C99.5507 265.84 99.2602 265.285 99.2602 264.601Z" fill="#E8356D"/>
<path d="M66.8527 265.399L64.1188 257.197C62.2855 251.684 59.2705 251.684 57.4372 257.197L56.8815 258.864C56.7154 259.35 56.3385 259.727 55.8531 259.893L54.1923 260.442C48.6796 262.275 48.6733 265.284 54.1923 267.124L62.3941 269.857C66.0734 271.084 68.0792 269.078 66.8527 265.399ZM62.0811 266.044L58.6317 262.595C58.3698 262.333 58.3698 261.898 58.6317 261.636C58.8936 261.375 59.328 261.375 59.5899 261.636L63.0393 265.086C63.3012 265.348 63.3012 265.782 63.0393 266.044C62.7774 266.306 62.343 266.306 62.0811 266.044Z" fill="#E8356D"/>
<rect x="128.712" y="241.295" width="84.0157" height="42.7199" rx="5.69598" fill="#FEFCE8"/>
<path d="M163.574 266.387V264.105H164.489C165.052 264.105 165.36 264.242 165.574 264.627L166.582 266.387H167.453L166.428 264.618C166.249 264.302 166.035 264.123 165.77 264.037C166.65 263.918 167.274 263.337 167.274 262.422C167.274 261.277 166.445 260.662 165.326 260.662H162.831V266.387H163.574ZM165.206 261.32C165.89 261.32 166.505 261.568 166.505 262.422C166.505 263.234 165.89 263.482 165.206 263.482H163.574V261.32H165.206ZM169.787 266.472C170.684 266.472 171.257 266.054 171.564 265.558L171.111 265.045C170.949 265.404 170.616 265.857 169.787 265.857C169.052 265.857 168.565 265.361 168.523 264.49H171.59C171.607 264.413 171.624 264.285 171.624 264.157C171.624 262.943 170.915 262.166 169.744 262.166C168.608 262.166 167.805 263.012 167.805 264.319C167.805 265.635 168.617 266.472 169.787 266.472ZM169.744 262.79C170.437 262.79 170.881 263.191 170.958 263.952H168.54C168.634 263.183 169.078 262.79 169.744 262.79ZM174.111 266.472C174.905 266.472 175.298 265.942 175.443 265.319V267.976H176.187V262.251H175.443V263.311C175.298 262.687 174.905 262.157 174.111 262.157C173.068 262.157 172.419 263.003 172.419 264.311C172.419 265.618 173.068 266.472 174.111 266.472ZM173.171 264.311C173.171 263.26 173.709 262.781 174.358 262.781C175.153 262.781 175.443 263.337 175.443 264.02V264.61C175.443 265.293 175.153 265.848 174.358 265.848C173.709 265.848 173.171 265.37 173.171 264.311ZM178.604 266.472C179.433 266.472 179.877 265.908 180.031 265.259V266.387H180.765V262.251H180.031V264.601C180.031 265.285 179.74 265.848 178.937 265.848C178.236 265.848 178.023 265.464 178.023 264.934V262.251H177.288V265.114C177.288 265.985 177.792 266.472 178.604 266.472ZM183.638 266.472C184.535 266.472 185.107 266.054 185.415 265.558L184.962 265.045C184.8 265.404 184.467 265.857 183.638 265.857C182.903 265.857 182.416 265.361 182.373 264.49H185.441C185.458 264.413 185.475 264.285 185.475 264.157C185.475 262.943 184.766 262.166 183.595 262.166C182.459 262.166 181.656 263.012 181.656 264.319C181.656 265.635 182.467 266.472 183.638 266.472ZM183.595 262.79C184.287 262.79 184.731 263.191 184.808 263.952H182.39C182.484 263.183 182.929 262.79 183.595 262.79ZM187.956 266.472C188.759 266.472 189.46 266.105 189.46 265.285C189.46 264.712 189.152 264.328 188.221 264.105L187.691 263.969C187.127 263.832 186.854 263.704 186.854 263.337C186.854 262.986 187.162 262.798 187.589 262.798C188.178 262.798 188.571 263.106 188.776 263.593L189.34 263.174C189.11 262.627 188.503 262.166 187.632 262.166C186.734 262.166 186.153 262.627 186.153 263.379C186.153 264.14 186.794 264.422 187.384 264.558L187.931 264.686C188.418 264.798 188.794 264.917 188.794 265.293C188.794 265.66 188.469 265.848 187.982 265.848C187.162 265.848 186.709 265.379 186.564 264.909L186.025 265.327C186.307 266.096 187.093 266.472 187.956 266.472ZM191.614 266.481C192.186 266.481 192.579 266.216 192.759 265.934L192.511 265.199C192.4 265.455 192.144 265.763 191.776 265.763C191.452 265.763 191.204 265.635 191.204 265.105V262.832H192.562V262.251H191.204V261.175L190.46 261.722V262.251H189.794V262.832H190.46V265.327C190.46 266.036 190.939 266.481 191.614 266.481ZM194.915 266.472C195.718 266.472 196.419 266.105 196.419 265.285C196.419 264.712 196.111 264.328 195.18 264.105L194.65 263.969C194.086 263.832 193.813 263.704 193.813 263.337C193.813 262.986 194.12 262.798 194.547 262.798C195.137 262.798 195.53 263.106 195.735 263.593L196.299 263.174C196.068 262.627 195.462 262.166 194.59 262.166C193.693 262.166 193.112 262.627 193.112 263.379C193.112 264.14 193.753 264.422 194.342 264.558L194.889 264.686C195.376 264.798 195.752 264.917 195.752 265.293C195.752 265.66 195.428 265.848 194.941 265.848C194.12 265.848 193.667 265.379 193.522 264.909L192.984 265.327C193.266 266.096 194.052 266.472 194.915 266.472Z" fill="#EAB308"/>
<path d="M156.555 260.672L153.821 268.874C151.987 274.387 148.972 274.387 147.139 268.874L146.583 267.207C146.417 266.722 146.04 266.345 145.555 266.179L143.894 265.629C138.382 263.796 138.375 260.787 143.894 258.948L152.096 256.214C155.775 254.987 157.781 256.993 156.555 260.672ZM151.783 260.027L148.334 263.477C148.072 263.739 148.072 264.173 148.334 264.435C148.596 264.697 149.03 264.697 149.292 264.435L152.741 260.985C153.003 260.724 153.003 260.289 152.741 260.027C152.479 259.765 152.045 259.765 151.783 260.027Z" fill="#EAB308"/>
<rect x="218.423" y="241.295" width="84.0157" height="42.7199" rx="5.69598" fill="#F3E6FE"/>
<g clip-path="url(#clip2_1_5606)">
<path d="M242.627 264.079C242.901 264.079 243.165 264.185 243.364 264.374C243.562 264.563 243.68 264.822 243.693 265.096C243.707 265.37 243.614 265.638 243.434 265.846C243.255 266.053 243.003 266.184 242.73 266.21L242.627 266.215H233.813L234.839 267.24C235.033 267.434 235.145 267.695 235.152 267.969C235.16 268.243 235.061 268.509 234.877 268.713C234.694 268.916 234.439 269.041 234.165 269.062C233.892 269.083 233.621 268.997 233.409 268.824L233.328 268.751L230.602 266.024C229.908 265.33 230.359 264.16 231.307 264.083L231.407 264.079H242.627ZM239.024 256.56C239.211 256.373 239.461 256.262 239.725 256.249C239.989 256.235 240.248 256.32 240.453 256.486L240.535 256.56L243.261 259.287C243.954 259.98 243.503 261.15 242.555 261.227L242.456 261.231H231.235C230.961 261.231 230.697 261.125 230.499 260.936C230.3 260.747 230.182 260.488 230.169 260.214C230.156 259.941 230.249 259.672 230.428 259.465C230.607 259.257 230.86 259.127 231.133 259.1L231.235 259.095H240.049L239.024 258.07C238.824 257.87 238.711 257.598 238.711 257.315C238.711 257.032 238.824 256.761 239.024 256.56H239.024Z" fill="#8807F7"/>
</g>
<path d="M257.453 264.962V259.896H259.264V259.238H254.907V259.896H256.718V264.962H257.453ZM260.415 264.962V262.621C260.415 261.912 260.894 261.288 261.424 261.288C261.723 261.288 261.851 261.494 261.851 261.733C261.851 261.963 261.74 262.22 261.603 262.339H262.415C262.483 262.237 262.577 261.981 262.577 261.63C262.577 261.049 262.15 260.733 261.706 260.733C261.005 260.733 260.578 261.288 260.415 261.929V260.827H259.672V264.962H260.415ZM264.089 265.048C264.944 265.048 265.388 264.433 265.525 263.886V264.176C265.525 264.757 265.832 264.962 266.259 264.962H266.738V264.287H266.473C266.319 264.287 266.242 264.228 266.242 264.031V262.331C266.242 261.348 265.696 260.742 264.679 260.742C263.756 260.742 263.141 261.263 262.893 261.69L263.397 262.211C263.611 261.758 264.004 261.417 264.593 261.417C265.243 261.417 265.473 261.775 265.499 262.263L264.004 262.929C263.414 263.194 262.996 263.544 262.996 264.099C262.996 264.646 263.389 265.048 264.089 265.048ZM263.748 263.98C263.748 263.724 263.927 263.553 264.32 263.365L265.525 262.801V263.373C265.525 263.971 265.029 264.433 264.328 264.433C263.944 264.433 263.748 264.262 263.748 263.98ZM268.342 264.962V262.621C268.342 261.929 268.632 261.374 269.427 261.374C270.128 261.374 270.341 261.75 270.341 262.288V264.962H271.076V262.109C271.076 261.229 270.572 260.742 269.76 260.742C268.949 260.742 268.504 261.288 268.342 261.929V260.827H267.599V264.962H268.342ZM273.66 265.048C274.464 265.048 275.164 264.68 275.164 263.86C275.164 263.288 274.857 262.903 273.925 262.681L273.396 262.544C272.832 262.408 272.558 262.28 272.558 261.912C272.558 261.562 272.866 261.374 273.293 261.374C273.883 261.374 274.276 261.682 274.481 262.169L275.045 261.75C274.814 261.203 274.207 260.742 273.336 260.742C272.439 260.742 271.858 261.203 271.858 261.955C271.858 262.715 272.498 262.997 273.088 263.134L273.635 263.262C274.122 263.373 274.498 263.493 274.498 263.869C274.498 264.236 274.173 264.424 273.686 264.424C272.866 264.424 272.413 263.954 272.268 263.484L271.73 263.903C272.011 264.672 272.798 265.048 273.66 265.048ZM277.002 264.962V261.408H278.335V260.827H277.002V260.383C277.002 259.99 277.173 259.768 277.557 259.768C277.925 259.768 278.19 259.99 278.352 260.289L278.762 259.759C278.591 259.494 278.198 259.153 277.566 259.153C276.788 259.153 276.259 259.614 276.259 260.443V260.827H275.584V261.408H276.259V264.962H277.002ZM280.623 265.048C281.52 265.048 282.092 264.629 282.4 264.134L281.947 263.621C281.785 263.98 281.451 264.433 280.623 264.433C279.888 264.433 279.401 263.937 279.358 263.066H282.426C282.443 262.989 282.46 262.861 282.46 262.732C282.46 261.519 281.751 260.742 280.58 260.742C279.444 260.742 278.641 261.588 278.641 262.895C278.641 264.211 279.452 265.048 280.623 265.048ZM280.58 261.365C281.272 261.365 281.716 261.767 281.793 262.527H279.375C279.469 261.758 279.914 261.365 280.58 261.365ZM284.145 264.962V262.621C284.145 261.912 284.623 261.288 285.153 261.288C285.452 261.288 285.58 261.494 285.58 261.733C285.58 261.963 285.469 262.22 285.333 262.339H286.144C286.213 262.237 286.307 261.981 286.307 261.63C286.307 261.049 285.879 260.733 285.435 260.733C284.735 260.733 284.307 261.288 284.145 261.929V260.827H283.402V264.962H284.145Z" fill="#8807F7"/>
<rect x="46" y="310" width="254" height="199" fill="#D9D9D9"/>
<g clip-path="url(#clip3_1_5606)">
<path opacity="0.35" fill-rule="evenodd" clip-rule="evenodd" d="M288.067 34.3538C287.277 34.3538 286.965 34.4066 286.643 34.5576C286.371 34.6851 286.159 34.8701 286.014 35.1085C285.842 35.3909 285.781 35.6645 285.781 36.3563V39.4415C285.781 40.1333 285.842 40.4069 286.014 40.6893C286.159 40.9277 286.371 41.1127 286.643 41.2402C286.965 41.3912 287.277 41.4441 288.067 41.4441H299.942C300.731 41.4441 301.043 41.3912 301.366 41.2402C301.638 41.1127 301.849 40.9277 301.994 40.6893C302.167 40.4069 302.227 40.1333 302.227 39.4415V36.3563C302.227 35.6645 302.167 35.3909 301.994 35.1085C301.849 34.8701 301.638 34.6851 301.366 34.5576C301.043 34.4066 300.731 34.3538 299.942 34.3538H288.067Z" stroke="black" stroke-width="0.686158"/>
<path opacity="0.4" d="M303.402 36.5264V39.271C304.033 39.0385 304.442 38.4978 304.442 37.8987C304.442 37.2996 304.033 36.7588 303.402 36.5264Z" fill="black"/>
<path d="M288.294 35.3831H299.713C300.178 35.3831 300.347 35.4255 300.517 35.5053C300.688 35.585 300.821 35.702 300.912 35.8511C301.003 36.0002 301.052 36.1481 301.052 36.5559V39.2421C301.052 39.6499 301.003 39.7978 300.912 39.9469C300.821 40.0959 300.688 40.213 300.517 40.2927C300.347 40.3724 300.178 40.4149 299.713 40.4149H288.294C287.828 40.4149 287.659 40.3724 287.489 40.2927C287.319 40.213 287.186 40.0959 287.095 39.9469C287.004 39.7978 286.955 39.6499 286.955 39.2421V36.5559C286.955 36.1481 287.004 36.0002 287.095 35.8511C287.186 35.702 287.319 35.585 287.489 35.5053C287.659 35.4255 287.828 35.3831 288.294 35.3831Z" fill="black"/>
<path d="M275.471 35.5761C277.213 35.5761 278.889 36.1622 280.152 37.2131C280.247 37.2942 280.399 37.2932 280.492 37.2108L281.401 36.4078C281.449 36.366 281.475 36.3094 281.475 36.2505C281.474 36.1915 281.447 36.1352 281.399 36.0939C278.085 33.3134 272.857 33.3134 269.542 36.0939C269.494 36.1352 269.467 36.1915 269.467 36.2504C269.466 36.3093 269.493 36.3659 269.54 36.4078L270.449 37.2108C270.543 37.2933 270.695 37.2944 270.79 37.2131C272.053 36.1621 273.729 35.5761 275.471 35.5761ZM275.471 38.1887C276.428 38.1886 277.352 38.5001 278.061 39.0626C278.157 39.1424 278.308 39.1407 278.402 39.0587L279.31 38.2557C279.357 38.2135 279.384 38.1564 279.383 38.097C279.383 38.0376 279.355 37.981 279.306 37.9397C277.145 36.1801 273.799 36.1801 271.638 37.9397C271.589 37.981 271.561 38.0377 271.561 38.0971C271.56 38.1565 271.587 38.2136 271.635 38.2557L272.542 39.0587C272.636 39.1407 272.787 39.1424 272.883 39.0626C273.592 38.5005 274.515 38.189 275.471 38.1887ZM277.216 40.1052C277.264 40.0634 277.291 40.006 277.29 39.9465C277.288 39.8869 277.259 39.8305 277.209 39.7906C276.206 39.048 274.737 39.048 273.734 39.7906C273.683 39.8305 273.654 39.8869 273.652 39.9464C273.651 40.006 273.678 40.0634 273.726 40.1052L275.297 41.4926C275.343 41.5333 275.406 41.5563 275.471 41.5563C275.537 41.5563 275.599 41.5333 275.645 41.4926L277.216 40.1052Z" fill="black"/>
<path d="M253.021 38.8136H253.805C254.237 38.8136 254.588 39.1209 254.588 39.4998V40.8721C254.588 41.2511 254.237 41.5583 253.805 41.5583H253.021C252.589 41.5583 252.238 41.2511 252.238 40.8721V39.4998C252.238 39.1209 252.589 38.8136 253.021 38.8136ZM256.676 37.4413H257.459C257.892 37.4413 258.242 37.7485 258.242 38.1275V40.8721C258.242 41.2511 257.892 41.5583 257.459 41.5583H256.676C256.244 41.5583 255.893 41.2511 255.893 40.8721V38.1275C255.893 37.7485 256.244 37.4413 256.676 37.4413ZM260.331 35.8403H261.114C261.546 35.8403 261.897 36.1475 261.897 36.5265V40.8721C261.897 41.2511 261.546 41.5583 261.114 41.5583H260.331C259.898 41.5583 259.548 41.2511 259.548 40.8721V36.5265C259.548 36.1475 259.898 35.8403 260.331 35.8403ZM263.985 34.2393H264.768C265.201 34.2393 265.552 34.5465 265.552 34.9254V40.8721C265.552 41.2511 265.201 41.5583 264.768 41.5583H263.985C263.553 41.5583 263.202 41.2511 263.202 40.8721V34.9254C263.202 34.5465 263.553 34.2393 263.985 34.2393Z" fill="black"/>
<path d="M48.1033 35.3866C48.3023 35.3043 48.5081 35.2116 48.7208 35.1087C48.9404 34.9989 49.1531 34.8823 49.3589 34.7588C49.5648 34.6284 49.7604 34.4946 49.9456 34.3574C50.1377 34.2133 50.3093 34.0623 50.4602 33.9045H51.5306V41.0371H49.9971V35.9012C49.7912 36.0384 49.5614 36.1654 49.3075 36.282C49.0536 36.3918 48.8066 36.4879 48.5664 36.5702L48.1033 35.3866ZM58.3376 35.7777C58.3376 36.0384 58.2861 36.2889 58.1832 36.529C58.0803 36.7692 57.9465 37.0025 57.7818 37.2289C57.6171 37.4485 57.4319 37.6612 57.226 37.8671C57.0202 38.0729 56.8178 38.2685 56.6188 38.4537C56.5158 38.5498 56.4026 38.6596 56.2791 38.7831C56.1625 38.8997 56.0493 39.0198 55.9395 39.1433C55.8297 39.2668 55.7302 39.3835 55.641 39.4933C55.5587 39.5962 55.5072 39.6819 55.4866 39.7506H58.5537V41.0371H53.7987C53.7849 40.9616 53.7781 40.8656 53.7781 40.7489C53.7781 40.6323 53.7781 40.5499 53.7781 40.5019C53.7781 40.1725 53.8295 39.8706 53.9325 39.5962C54.0422 39.3217 54.1829 39.0678 54.3544 38.8345C54.526 38.5944 54.7181 38.3714 54.9308 38.1655C55.1504 37.9597 55.3665 37.7538 55.5792 37.548C55.7439 37.3902 55.8983 37.2427 56.0424 37.1054C56.1865 36.9613 56.3134 36.8241 56.4232 36.6937C56.533 36.5565 56.6188 36.4227 56.6805 36.2923C56.7423 36.1551 56.7732 36.0179 56.7732 35.8806C56.7732 35.5787 56.6874 35.366 56.5158 35.2425C56.3443 35.119 56.1316 35.0572 55.8777 35.0572C55.6925 35.0572 55.5175 35.0881 55.3528 35.1499C55.195 35.2048 55.0475 35.2734 54.9102 35.3557C54.7799 35.4312 54.6667 35.5101 54.5706 35.5924C54.4745 35.6679 54.4025 35.7297 54.3544 35.7777L53.5928 34.7073C53.8947 34.426 54.2447 34.1961 54.6426 34.0177C55.0475 33.8324 55.4797 33.7398 55.9395 33.7398C56.358 33.7398 56.7183 33.7878 57.0202 33.8839C57.3221 33.98 57.5691 34.1172 57.7612 34.2956C57.9602 34.4671 58.1043 34.6799 58.1935 34.9337C58.2896 35.1807 58.3376 35.4621 58.3376 35.7777ZM61.3055 36.5702C61.3055 36.879 61.206 37.1157 61.007 37.2804C60.8149 37.4382 60.5953 37.5171 60.3483 37.5171C60.1013 37.5171 59.8783 37.4382 59.6793 37.2804C59.4872 37.1157 59.3911 36.879 59.3911 36.5702C59.3911 36.2614 59.4872 36.0282 59.6793 35.8703C59.8783 35.7057 60.1013 35.6233 60.3483 35.6233C60.5953 35.6233 60.8149 35.7057 61.007 35.8703C61.206 36.0282 61.3055 36.2614 61.3055 36.5702ZM61.3055 40.224C61.3055 40.5328 61.206 40.7695 61.007 40.9342C60.8149 41.092 60.5953 41.1709 60.3483 41.1709C60.1013 41.1709 59.8783 41.092 59.6793 40.9342C59.4872 40.7695 59.3911 40.5328 59.3911 40.224C59.3911 39.9152 59.4872 39.6819 59.6793 39.5241C59.8783 39.3595 60.1013 39.2771 60.3483 39.2771C60.5953 39.2771 60.8149 39.3595 61.007 39.5241C61.206 39.6819 61.3055 39.9152 61.3055 40.224ZM67.1114 37.4554C67.1114 38.6561 66.8815 39.579 66.4218 40.224C65.9689 40.8621 65.3411 41.1812 64.5383 41.1812C63.7355 41.1812 63.1042 40.8621 62.6445 40.224C62.1916 39.579 61.9652 38.6561 61.9652 37.4554C61.9652 36.8584 62.0235 36.3301 62.1401 35.8703C62.2637 35.4106 62.4386 35.0229 62.6651 34.7073C62.8915 34.3917 63.1625 34.1515 63.4782 33.9868C63.7938 33.8222 64.1472 33.7398 64.5383 33.7398C65.3411 33.7398 65.9689 34.0623 66.4218 34.7073C66.8815 35.3454 67.1114 36.2614 67.1114 37.4554ZM65.5469 37.4554C65.5469 37.0986 65.5298 36.7761 65.4955 36.4879C65.4612 36.1928 65.4063 35.939 65.3308 35.7262C65.2553 35.5135 65.1524 35.3489 65.022 35.2322C64.8916 35.1156 64.7304 35.0572 64.5383 35.0572C64.3461 35.0572 64.1849 35.1156 64.0545 35.2322C63.931 35.3489 63.8281 35.5135 63.7458 35.7262C63.6703 35.939 63.6154 36.1928 63.5811 36.4879C63.5468 36.7761 63.5296 37.0986 63.5296 37.4554C63.5296 37.8122 63.5468 38.1381 63.5811 38.4331C63.6154 38.7282 63.6703 38.9821 63.7458 39.1948C63.8281 39.4075 63.931 39.5722 64.0545 39.6888C64.1849 39.8055 64.3461 39.8638 64.5383 39.8638C64.7304 39.8638 64.8916 39.8055 65.022 39.6888C65.1524 39.5722 65.2553 39.4075 65.3308 39.1948C65.4063 38.9821 65.4612 38.7282 65.4955 38.4331C65.5298 38.1381 65.5469 37.8122 65.5469 37.4554ZM72.9611 37.4554C72.9611 38.6561 72.7313 39.579 72.2715 40.224C71.8187 40.8621 71.1908 41.1812 70.388 41.1812C69.5852 41.1812 68.954 40.8621 68.4942 40.224C68.0414 39.579 67.8149 38.6561 67.8149 37.4554C67.8149 36.8584 67.8733 36.3301 67.9899 35.8703C68.1134 35.4106 68.2884 35.0229 68.5148 34.7073C68.7413 34.3917 69.0123 34.1515 69.3279 33.9868C69.6436 33.8222 69.9969 33.7398 70.388 33.7398C71.1908 33.7398 71.8187 34.0623 72.2715 34.7073C72.7313 35.3454 72.9611 36.2614 72.9611 37.4554ZM71.3967 37.4554C71.3967 37.0986 71.3795 36.7761 71.3452 36.4879C71.3109 36.1928 71.256 35.939 71.1806 35.7262C71.1051 35.5135 71.0022 35.3489 70.8718 35.2322C70.7414 35.1156 70.5802 35.0572 70.388 35.0572C70.1959 35.0572 70.0347 35.1156 69.9043 35.2322C69.7808 35.3489 69.6779 35.5135 69.5955 35.7262C69.5201 35.939 69.4652 36.1928 69.4308 36.4879C69.3965 36.7761 69.3794 37.0986 69.3794 37.4554C69.3794 37.8122 69.3965 38.1381 69.4308 38.4331C69.4652 38.7282 69.5201 38.9821 69.5955 39.1948C69.6779 39.4075 69.7808 39.5722 69.9043 39.6888C70.0347 39.8055 70.1959 39.8638 70.388 39.8638C70.5802 39.8638 70.7414 39.8055 70.8718 39.6888C71.0022 39.5722 71.1051 39.4075 71.1806 39.1948C71.256 38.9821 71.3109 38.7282 71.3452 38.4331C71.3795 38.1381 71.3967 37.8122 71.3967 37.4554Z" fill="black"/>
</g>
</g>
<rect x="125.283" y="22.4004" width="91.2566" height="27.8047" rx="13.9024" fill="#3D0072"/>
<g opacity="0.5">
<circle cx="202.283" cy="35.9487" r="5.70354" transform="rotate(90 202.283 35.9487)" stroke="#A0A9BB" stroke-opacity="0.25" stroke-width="0.712942"/>
<circle cx="202.283" cy="35.9487" r="5.70354" transform="rotate(90 202.283 35.9487)" stroke="url(#paint8_linear_1_5606)" stroke-width="0.712942"/>
</g>
<g filter="url(#filter0_i_1_5606)">
<ellipse cx="202.279" cy="38.3783" rx="1.4799" ry="2.85177" transform="rotate(90 202.279 38.3783)" fill="url(#paint9_radial_1_5606)"/>
</g>
<g filter="url(#filter1_i_1_5606)">
<ellipse cx="1.4799" cy="2.85177" rx="1.4799" ry="2.85177" transform="matrix(0 -1 -1 0 205.133 35.1021)" fill="url(#paint10_radial_1_5606)"/>
</g>
<rect x="8.39648" y="72.7202" width="1.51249" height="10.5874" fill="#3D0072"/>
<rect x="327.535" y="72.7295" width="1.51249" height="10.5874" fill="#3D0072"/>
<rect x="270.057" y="4.66138" width="1.51249" height="10.5874" transform="rotate(90 270.057 4.66138)" fill="#3D0072"/>
<rect x="74.9512" y="4.6582" width="1.51249" height="10.5874" transform="rotate(90 74.9512 4.6582)" fill="#3D0072"/>
</g>
<defs>
<filter id="filter0_i_1_5606" x="199.427" y="36.8984" width="5.70361" height="2.95972" filterUnits="userSpaceOnUse" color-interpolation-filters="sRGB">
<feFlood flood-opacity="0" result="BackgroundImageFix"/>
<feBlend mode="normal" in="SourceGraphic" in2="BackgroundImageFix" result="shape"/>
<feColorMatrix in="SourceAlpha" type="matrix" values="0 0 0 0 0 0 0 0 0 0 0 0 0 0 0 0 0 0 127 0" result="hardAlpha"/>
<feOffset/>
<feGaussianBlur stdDeviation="0.356471"/>
<feComposite in2="hardAlpha" operator="arithmetic" k2="-1" k3="1"/>
<feColorMatrix type="matrix" values="0 0 0 0 0 0 0 0 0 0 0 0 0 0 0 0 0 0 0.5 0"/>
<feBlend mode="normal" in2="shape" result="effect1_innerShadow_1_5606"/>
</filter>
<filter id="filter1_i_1_5606" x="199.429" y="32.1423" width="5.70361" height="2.95972" filterUnits="userSpaceOnUse" color-interpolation-filters="sRGB">
<feFlood flood-opacity="0" result="BackgroundImageFix"/>
<feBlend mode="normal" in="SourceGraphic" in2="BackgroundImageFix" result="shape"/>
<feColorMatrix in="SourceAlpha" type="matrix" values="0 0 0 0 0 0 0 0 0 0 0 0 0 0 0 0 0 0 127 0" result="hardAlpha"/>
<feOffset/>
<feGaussianBlur stdDeviation="0.356471"/>
<feComposite in2="hardAlpha" operator="arithmetic" k2="-1" k3="1"/>
<feColorMatrix type="matrix" values="0 0 0 0 0 0 0 0 0 0 0 0 0 0 0 0 0 0 0.5 0"/>
<feBlend mode="normal" in2="shape" result="effect1_innerShadow_1_5606"/>
</filter>
<linearGradient id="paint0_linear_1_5606" x1="3.78341" y1="0" x2="3.78341" y2="77.1369" gradientUnits="userSpaceOnUse">
<stop stop-color="#3D0072"/>
<stop offset="1" stop-color="#80609B"/>
</linearGradient>
<linearGradient id="paint1_linear_1_5606" x1="3.78341" y1="0" x2="3.78341" y2="74.1119" gradientUnits="userSpaceOnUse">
<stop stop-color="#3D0072"/>
<stop offset="1" stop-color="#80609B"/>
</linearGradient>
<linearGradient id="paint2_linear_1_5606" x1="3.83725" y1="0" x2="3.83725" y2="51.2935" gradientUnits="userSpaceOnUse">
<stop stop-color="#3D0072"/>
<stop offset="1" stop-color="#80609B"/>
</linearGradient>
<linearGradient id="paint3_linear_1_5606" x1="3.83725" y1="0" x2="3.83725" y2="48.4173" gradientUnits="userSpaceOnUse">
<stop stop-color="#3D0072"/>
<stop offset="1" stop-color="#80609B"/>
</linearGradient>
<linearGradient id="paint4_linear_1_5606" x1="3.83725" y1="0" x2="3.83725" y2="50.3348" gradientUnits="userSpaceOnUse">
<stop stop-color="#3D0072"/>
<stop offset="1" stop-color="#80609B"/>
</linearGradient>
<linearGradient id="paint5_linear_1_5606" x1="3.83725" y1="0" x2="3.83725" y2="22.0514" gradientUnits="userSpaceOnUse">
<stop stop-color="#3D0072"/>
<stop offset="1" stop-color="#80609B"/>
</linearGradient>
<linearGradient id="paint6_linear_1_5606" x1="3.83725" y1="0" x2="3.83725" y2="19.1751" gradientUnits="userSpaceOnUse">
<stop stop-color="#3D0072"/>
<stop offset="1" stop-color="#80609B"/>
</linearGradient>
<linearGradient id="paint7_linear_1_5606" x1="329.052" y1="4.66407" x2="8.40433" y2="650.497" gradientUnits="userSpaceOnUse">
<stop stop-color="#EFEFEF"/>
<stop offset="1" stop-color="#3D0072"/>
</linearGradient>
<linearGradient id="paint8_linear_1_5606" x1="195.254" y1="34.7267" x2="200.724" y2="43.5284" gradientUnits="userSpaceOnUse">
<stop stop-color="#010005" stop-opacity="0.66"/>
<stop offset="1" stop-color="#2E2D31"/>
</linearGradient>
<radialGradient id="paint9_radial_1_5606" cx="0" cy="0" r="1" gradientUnits="userSpaceOnUse" gradientTransform="translate(201.533 38.3783) rotate(90) scale(3.65696 1.5035)">
<stop stop-color="#1F85DE"/>
<stop offset="0.257948" stop-color="#1B75C9"/>
<stop offset="1" stop-color="#000232"/>
</radialGradient>
<radialGradient id="paint10_radial_1_5606" cx="0" cy="0" r="1" gradientUnits="userSpaceOnUse" gradientTransform="translate(0.734117 2.85177) rotate(90) scale(3.65696 1.5035)">
<stop stop-color="#1F85DE"/>
<stop offset="0.257948" stop-color="#1B75C9"/>
<stop offset="1" stop-color="#000232"/>
</radialGradient>
<clipPath id="clip0_1_5606">
<rect width="330.896" height="499.798" fill="white" transform="translate(9.72461) rotate(1.11069)"/>
</clipPath>
<clipPath id="clip1_1_5606">
<rect x="22" y="18" width="293.676" height="927" rx="40" fill="white"/>
</clipPath>
<clipPath id="clip2_1_5606">
<rect width="17.0879" height="17.0879" fill="white" transform="translate(228.388 254.111)"/>
</clipPath>
<clipPath id="clip3_1_5606">
<rect width="293.676" height="38.4249" fill="white" transform="translate(22 18)"/>
</clipPath>
</defs>
</svg>
