<svg width="196" height="108" viewBox="0 0 196 108" fill="none" xmlns="http://www.w3.org/2000/svg">
<g filter="url(#filter0_b_1_2696)">
<g clip-path="url(#clip0_1_2696)">
<rect x="-0.820312" y="-0.25" width="197.518" height="107.812" rx="13.9909" fill="white"/>
<g filter="url(#filter1_d_1_2696)">
<rect x="118.402" y="32.0721" width="44.4032" height="20.4938" rx="2.84636" fill="white"/>
</g>
<g filter="url(#filter2_d_1_2696)">
<path d="M139.466 60.535L144.396 51.996H134.536L139.466 60.535Z" fill="white"/>
</g>
<path d="M125.221 39.6268V38.1376L125.204 37.8336L125.409 38.1376L126.457 39.6268H126.724V37.3384H126.427V38.8002L126.444 39.1486L126.208 38.7934L125.187 37.3384H124.924V39.6268H125.221ZM127.857 39.661C128.315 39.661 128.639 39.3228 128.639 38.8002C128.639 38.2777 128.315 37.9395 127.857 37.9395C127.399 37.9395 127.078 38.2777 127.078 38.8002C127.078 39.3228 127.399 39.661 127.857 39.661ZM127.857 39.4116C127.577 39.4116 127.382 39.217 127.382 38.8002C127.382 38.3801 127.577 38.1888 127.857 38.1888C128.141 38.1888 128.339 38.3801 128.339 38.8002C128.339 39.217 128.141 39.4116 127.857 39.4116ZM129.704 39.6268L130.305 37.9737H129.988L129.663 38.954L129.523 39.4082L129.38 38.954L129.052 37.9737H128.731L129.328 39.6268H129.704ZM132.899 39.6268V39.3638H131.953L131.673 39.3843L131.919 39.176L132.274 38.8412C132.482 38.6431 132.841 38.3016 132.841 37.9258C132.841 37.574 132.639 37.3042 132.192 37.3042C131.666 37.3042 131.307 37.6663 131.355 38.1171L131.632 38.2913C131.574 37.837 131.789 37.5911 132.171 37.5911C132.431 37.5911 132.534 37.7619 132.534 37.9463C132.534 38.1991 132.339 38.4109 132.089 38.6568L131.341 39.3946V39.6268H132.899ZM134.099 39.661C134.724 39.661 135.018 39.1452 135.018 38.4792C135.018 37.82 134.724 37.3042 134.099 37.3042C133.471 37.3042 133.177 37.82 133.177 38.4792C133.177 39.1452 133.471 39.661 134.099 39.661ZM134.103 39.3775C133.648 39.3775 133.491 39.0052 133.491 38.4792C133.491 37.96 133.648 37.5843 134.103 37.5843C134.554 37.5843 134.707 37.96 134.707 38.4792C134.707 39.0052 134.554 39.3775 134.103 39.3775ZM136.918 39.6268V39.3638H135.972L135.692 39.3843L135.938 39.176L136.293 38.8412C136.502 38.6431 136.86 38.3016 136.86 37.9258C136.86 37.574 136.659 37.3042 136.211 37.3042C135.685 37.3042 135.327 37.6663 135.375 38.1171L135.651 38.2913C135.593 37.837 135.808 37.5911 136.191 37.5911C136.45 37.5911 136.553 37.7619 136.553 37.9463C136.553 38.1991 136.358 38.4109 136.109 38.6568L135.361 39.3946V39.6268H136.918ZM138.9 39.6268V39.3638H137.954L137.673 39.3843L137.919 39.176L138.275 38.8412C138.483 38.6431 138.842 38.3016 138.842 37.9258C138.842 37.574 138.64 37.3042 138.193 37.3042C137.667 37.3042 137.308 37.6663 137.356 38.1171L137.633 38.2913C137.574 37.837 137.79 37.5911 138.172 37.5911C138.432 37.5911 138.534 37.7619 138.534 37.9463C138.534 38.1991 138.34 38.4109 138.09 38.6568L137.342 39.3946V39.6268H138.9Z" fill="#9CA3AF"/>
<path d="M125.121 46.1796V44.079L125.075 43.3844L125.422 43.9252L127.005 46.1796H127.597V42.3654H126.954V44.4604L126.993 45.1833L126.618 44.5856L125.075 42.3654H124.477V46.1796H125.121ZM129.765 46.2251C130.613 46.2251 131.097 45.6046 131.125 44.745L131.302 46.1796H131.711V44.2042H129.97V44.745H131.068C130.932 45.2744 130.647 45.6217 130.004 45.6217C129.252 45.6217 128.882 45.0752 128.882 44.2668C128.882 43.4755 129.247 42.9176 130.044 42.9176C130.658 42.9176 131.023 43.2934 131.137 43.7829L131.694 43.3844C131.433 42.6956 130.84 42.3085 130.038 42.3085C128.854 42.3085 128.199 43.1453 128.199 44.2668C128.199 45.4794 128.785 46.2251 129.765 46.2251ZM133.07 46.1796V44.079L133.025 43.3844L133.372 43.9252L134.955 46.1796H135.547V42.3654H134.903V44.4604L134.943 45.1833L134.568 44.5856L133.025 42.3654H132.427V46.1796H133.07ZM138.881 46.2365C139.701 46.2365 140.264 45.6843 140.264 44.9158C140.264 44.227 139.917 43.6918 139.148 43.6918C138.562 43.6918 138.175 44.0277 138.095 44.5913V44.227C138.095 43.2137 138.482 42.9404 138.926 42.9404C139.308 42.9404 139.587 43.151 139.758 43.4926L140.196 42.9632C139.957 42.5761 139.524 42.3085 138.961 42.3085C137.942 42.3085 137.401 43.003 137.401 44.227V44.2896C137.401 45.7071 137.964 46.2365 138.881 46.2365ZM138.864 45.6274C138.408 45.6274 138.141 45.3826 138.141 44.8589C138.141 44.4262 138.425 44.1928 138.875 44.1928C139.359 44.1928 139.575 44.4831 139.575 44.9158C139.575 45.32 139.308 45.6274 138.864 45.6274ZM142.319 46.2308C143.383 46.2308 143.918 45.3883 143.918 44.2668C143.918 43.151 143.383 42.3085 142.319 42.3085C141.254 42.3085 140.713 43.151 140.713 44.2668C140.713 45.3883 141.254 46.2308 142.319 46.2308ZM142.319 45.616C141.641 45.616 141.391 45.0695 141.391 44.2668C141.391 43.4698 141.641 42.9176 142.319 42.9176C143.002 42.9176 143.247 43.4698 143.247 44.2668C143.247 45.0695 143.002 45.616 142.319 45.616ZM144.486 46.8399C144.913 46.7944 145.078 46.5724 145.078 46.191V45.3712H144.349V46.1796H144.685V46.2536C144.685 46.4414 144.56 46.4813 144.355 46.5041L144.486 46.8399ZM147.111 46.2308C148.175 46.2308 148.71 45.3883 148.71 44.2668C148.71 43.151 148.175 42.3085 147.111 42.3085C146.046 42.3085 145.505 43.151 145.505 44.2668C145.505 45.3883 146.046 46.2308 147.111 46.2308ZM147.111 45.616C146.433 45.616 146.183 45.0695 146.183 44.2668C146.183 43.4698 146.433 42.9176 147.111 42.9176C147.794 42.9176 148.039 43.4698 148.039 44.2668C148.039 45.0695 147.794 45.616 147.111 45.616ZM150.83 46.2308C151.894 46.2308 152.43 45.3883 152.43 44.2668C152.43 43.151 151.894 42.3085 150.83 42.3085C149.765 42.3085 149.225 43.151 149.225 44.2668C149.225 45.3883 149.765 46.2308 150.83 46.2308ZM150.83 45.616C150.153 45.616 149.902 45.0695 149.902 44.2668C149.902 43.4698 150.153 42.9176 150.83 42.9176C151.513 42.9176 151.758 43.4698 151.758 44.2668C151.758 45.0695 151.513 45.616 150.83 45.616ZM154.549 46.2308C155.614 46.2308 156.149 45.3883 156.149 44.2668C156.149 43.151 155.614 42.3085 154.549 42.3085C153.485 42.3085 152.944 43.151 152.944 44.2668C152.944 45.3883 153.485 46.2308 154.549 46.2308ZM154.549 45.616C153.872 45.616 153.621 45.0695 153.621 44.2668C153.621 43.4698 153.872 42.9176 154.549 42.9176C155.232 42.9176 155.477 43.4698 155.477 44.2668C155.477 45.0695 155.232 45.616 154.549 45.616Z" fill="#22C55E"/>
<path d="M21.3179 20.4044L18.5678 17.6543L15.8176 20.4044H21.3179Z" fill="#22C55E"/>
<path d="M26.7666 21.3054V16.8832H26.2848C26.0735 17.1736 25.7567 17.2792 25.4003 17.2792V17.6752H26.1924V21.3054H26.7666ZM30.6146 21.3054V20.7971H28.7864L28.2451 20.8367L28.7204 20.4341L29.4068 19.7873C29.8094 19.4045 30.5024 18.7445 30.5024 18.0184C30.5024 17.3386 30.113 16.8172 29.2484 16.8172C28.2319 16.8172 27.5389 17.5168 27.6313 18.388L28.1659 18.7247C28.0537 17.8468 28.4696 17.3716 29.2088 17.3716C29.7104 17.3716 29.9084 17.7016 29.9084 18.058C29.9084 18.5464 29.5322 18.9557 29.0504 19.4309L27.6049 20.8565V21.3054H30.6146ZM32.0199 21.3054V20.4473H31.3269V21.3054H32.0199ZM34.3909 21.3714C35.5987 21.3714 36.1663 20.3747 36.1663 19.0877C36.1663 17.8138 35.5987 16.8172 34.3909 16.8172C33.1764 16.8172 32.6088 17.8138 32.6088 19.0877C32.6088 20.3747 33.1764 21.3714 34.3909 21.3714ZM34.3975 20.8235C33.5196 20.8235 33.216 20.1041 33.216 19.0877C33.216 18.0844 33.5196 17.3584 34.3975 17.3584C35.2687 17.3584 35.5657 18.0844 35.5657 19.0877C35.5657 20.1041 35.2687 20.8235 34.3975 20.8235ZM37.6359 18.8171C38.1837 18.8171 38.5929 18.4276 38.5929 17.8204C38.5929 17.2132 38.1837 16.8238 37.6359 16.8238C37.0815 16.8238 36.6722 17.2132 36.6722 17.8204C36.6722 18.4276 37.0815 18.8171 37.6359 18.8171ZM37.4973 21.3054L40.6126 16.8832H40.012L36.8967 21.3054H37.4973ZM37.6359 18.3946C37.3257 18.3946 37.1409 18.1702 37.1409 17.8204C37.1409 17.464 37.3257 17.2396 37.6359 17.2396C37.9461 17.2396 38.1375 17.464 38.1375 17.8204C38.1375 18.1702 37.9461 18.3946 37.6359 18.3946ZM39.8932 21.3054C40.441 21.3054 40.8502 20.9159 40.8502 20.3087C40.8502 19.7015 40.441 19.3121 39.8932 19.3121C39.3388 19.3121 38.9295 19.7015 38.9295 20.3087C38.9295 20.9159 39.3388 21.3054 39.8932 21.3054ZM39.8932 20.8829C39.583 20.8829 39.3982 20.6585 39.3982 20.3087C39.3982 19.9523 39.583 19.7279 39.8932 19.7279C40.2034 19.7279 40.3948 19.9523 40.3948 20.3087C40.3948 20.6585 40.2034 20.8829 39.8932 20.8829Z" fill="#22C55E"/>
<path d="M15.9443 33.131V28.7197H15.3715V33.131H15.9443ZM17.4794 33.131V31.327C17.4794 30.7937 17.7033 30.3657 18.3156 30.3657C18.8555 30.3657 19.0201 30.6554 19.0201 31.0702V33.131H19.5863V30.9319C19.5863 30.2538 19.1978 29.8785 18.5724 29.8785C17.9469 29.8785 17.6045 30.2999 17.4794 30.7937V29.9443H16.9066V33.131H17.4794ZM21.7764 33.131L22.9352 29.9443H22.3229L21.6974 31.8339L21.4275 32.7096L21.1509 31.8339L20.5189 29.9443H19.9L21.0522 33.131H21.7764ZM24.6025 33.1968C25.2938 33.1968 25.735 32.8742 25.972 32.4923L25.623 32.0973C25.4979 32.3738 25.2412 32.7228 24.6025 32.7228C24.0363 32.7228 23.661 32.3409 23.6281 31.6693H25.9917C26.0049 31.6101 26.0181 31.5113 26.0181 31.4126C26.0181 30.4776 25.4716 29.8785 24.5696 29.8785C23.6939 29.8785 23.0751 30.5303 23.0751 31.5377C23.0751 32.5516 23.7005 33.1968 24.6025 33.1968ZM24.5696 30.3591C25.1029 30.3591 25.4453 30.6686 25.5045 31.2546H23.6413C23.7137 30.662 24.0561 30.3591 24.5696 30.3591ZM27.9303 33.1968C28.5492 33.1968 29.0891 32.9137 29.0891 32.2817C29.0891 31.8405 28.8521 31.5442 28.1344 31.3731L27.7262 31.2677C27.2917 31.1624 27.081 31.0636 27.081 30.7805C27.081 30.5106 27.318 30.3657 27.6472 30.3657C28.1015 30.3657 28.4044 30.6027 28.5624 30.978L28.9969 30.6554C28.8191 30.234 28.3517 29.8785 27.6801 29.8785C26.9888 29.8785 26.5411 30.234 26.5411 30.8134C26.5411 31.3994 27.0349 31.6167 27.4892 31.722L27.9106 31.8208C28.2858 31.9064 28.5755 31.9985 28.5755 32.2882C28.5755 32.5713 28.3253 32.7162 27.9501 32.7162C27.318 32.7162 26.969 32.3541 26.8571 31.992L26.4423 32.3146C26.6596 32.9071 27.2653 33.1968 27.9303 33.1968ZM30.7489 33.2034C31.19 33.2034 31.4929 32.9993 31.6312 32.782L31.4402 32.2158C31.3546 32.4133 31.1571 32.6504 30.874 32.6504C30.6238 32.6504 30.4329 32.5516 30.4329 32.1434V30.3921H31.4797V29.9443H30.4329V29.1148L29.8601 29.5361V29.9443H29.3465V30.3921H29.8601V32.3146C29.8601 32.861 30.2288 33.2034 30.7489 33.2034ZM32.6212 33.131V31.327C32.6212 30.7937 32.8451 30.3657 33.3257 30.3657C33.8063 30.3657 34.0236 30.5962 34.0236 31.0636V33.131H34.5964V31.327C34.5964 30.7937 34.8203 30.3657 35.3075 30.3657C35.7815 30.3657 36.0054 30.5962 36.0054 31.0636V33.131H36.5716V30.9254C36.5716 30.2538 36.249 29.8785 35.6235 29.8785C35.0441 29.8785 34.7149 30.3065 34.5898 30.8134C34.5569 30.2143 34.2343 29.8785 33.6483 29.8785C33.0755 29.8785 32.7463 30.2999 32.6212 30.7871V29.9443H32.0484V33.131H32.6212ZM38.767 33.1968C39.4583 33.1968 39.8995 32.8742 40.1365 32.4923L39.7875 32.0973C39.6624 32.3738 39.4057 32.7228 38.767 32.7228C38.2008 32.7228 37.8255 32.3409 37.7926 31.6693H40.1562C40.1694 31.6101 40.1826 31.5113 40.1826 31.4126C40.1826 30.4776 39.6361 29.8785 38.7341 29.8785C37.8584 29.8785 37.2395 30.5303 37.2395 31.5377C37.2395 32.5516 37.865 33.1968 38.767 33.1968ZM38.7341 30.3591C39.2674 30.3591 39.6098 30.6686 39.669 31.2546H37.8058C37.8782 30.662 38.2206 30.3591 38.7341 30.3591ZM41.4813 33.131V31.327C41.4813 30.7937 41.7051 30.3657 42.3174 30.3657C42.8573 30.3657 43.0219 30.6554 43.0219 31.0702V33.131H43.5881V30.9319C43.5881 30.2538 43.1997 29.8785 42.5742 29.8785C41.9487 29.8785 41.6064 30.2999 41.4813 30.7937V29.9443H40.9085V33.131H41.4813ZM45.4149 33.2034C45.856 33.2034 46.1589 32.9993 46.2972 32.782L46.1062 32.2158C46.0206 32.4133 45.8231 32.6504 45.54 32.6504C45.2898 32.6504 45.0989 32.5516 45.0989 32.1434V30.3921H46.1457V29.9443H45.0989V29.1148L44.5261 29.5361V29.9443H44.0125V30.3921H44.5261V32.3146C44.5261 32.861 44.8948 33.2034 45.4149 33.2034ZM48.9026 33.131V31.3138H50.858V30.8068H48.9026V29.2267H51.286V28.7197H48.3298V33.131H48.9026ZM52.4888 33.131V28.7197H51.916V33.131H52.4888ZM54.6271 33.1968C55.5093 33.1968 56.1348 32.545 56.1348 31.5377C56.1348 30.5303 55.5093 29.8785 54.6271 29.8785C53.7448 29.8785 53.126 30.5303 53.126 31.5377C53.126 32.545 53.7448 33.1968 54.6271 33.1968ZM54.6271 32.7162C54.0872 32.7162 53.7119 32.3409 53.7119 31.5377C53.7119 30.7278 54.0872 30.3591 54.6271 30.3591C55.1736 30.3591 55.5554 30.7278 55.5554 31.5377C55.5554 32.3409 55.1736 32.7162 54.6271 32.7162ZM57.9175 33.131L58.464 31.2677L58.6813 30.4184L58.8854 31.2677L59.4318 33.131H60.1824L61.0054 29.9443H60.3668L59.9585 31.9064L59.8071 32.7162L59.603 31.9064L59.0302 29.9443H58.3257L57.7463 31.9064L57.5488 32.7162L57.3974 31.9064L56.9826 29.9443H56.344L57.1735 33.131H57.9175Z" fill="#9CA3AF"/>
<path d="M0 87.0479C40.9453 90.9157 137.608 87.2527 196.695 41.6582" stroke="#22C55E" stroke-width="0.725613"/>
<path d="M196.695 41.6582C137.608 87.2527 40.9453 90.9157 0 87.0479L0 106.842H196.695V41.6582Z" fill="url(#paint0_linear_1_2696)"/>
<g filter="url(#filter3_d_1_2696)">
<circle cx="140.523" cy="68.9211" r="7.36641" fill="#22C55E"/>
<circle cx="140.523" cy="68.9211" r="5.69261" stroke="white" stroke-width="3.34759"/>
</g>
</g>
</g>
<defs>
<filter id="filter0_b_1_2696" x="-329.198" y="-328.625" width="854.268" height="765.384" filterUnits="userSpaceOnUse" color-interpolation-filters="sRGB">
<feFlood flood-opacity="0" result="BackgroundImageFix"/>
<feGaussianBlur in="BackgroundImageFix" stdDeviation="164.599"/>
<feComposite in2="SourceAlpha" operator="in" result="effect1_backgroundBlur_1_2696"/>
<feBlend mode="normal" in="SourceGraphic" in2="effect1_backgroundBlur_1_2696" result="shape"/>
</filter>
<filter id="filter1_d_1_2696" x="111.571" y="29.7951" width="58.0657" height="34.1563" filterUnits="userSpaceOnUse" color-interpolation-filters="sRGB">
<feFlood flood-opacity="0" result="BackgroundImageFix"/>
<feColorMatrix in="SourceAlpha" type="matrix" values="0 0 0 0 0 0 0 0 0 0 0 0 0 0 0 0 0 0 127 0" result="hardAlpha"/>
<feOffset dy="4.55418"/>
<feGaussianBlur stdDeviation="3.41563"/>
<feComposite in2="hardAlpha" operator="out"/>
<feColorMatrix type="matrix" values="0 0 0 0 0.666875 0 0 0 0 0.663889 0 0 0 0 0.669444 0 0 0 0.15 0"/>
<feBlend mode="normal" in2="BackgroundImageFix" result="effect1_dropShadow_1_2696"/>
<feBlend mode="normal" in="SourceGraphic" in2="effect1_dropShadow_1_2696" result="shape"/>
</filter>
<filter id="filter2_d_1_2696" x="127.705" y="49.7189" width="23.5226" height="22.2016" filterUnits="userSpaceOnUse" color-interpolation-filters="sRGB">
<feFlood flood-opacity="0" result="BackgroundImageFix"/>
<feColorMatrix in="SourceAlpha" type="matrix" values="0 0 0 0 0 0 0 0 0 0 0 0 0 0 0 0 0 0 127 0" result="hardAlpha"/>
<feOffset dy="4.55418"/>
<feGaussianBlur stdDeviation="3.41563"/>
<feComposite in2="hardAlpha" operator="out"/>
<feColorMatrix type="matrix" values="0 0 0 0 0.666875 0 0 0 0 0.663889 0 0 0 0 0.669444 0 0 0 0.15 0"/>
<feBlend mode="normal" in2="BackgroundImageFix" result="effect1_dropShadow_1_2696"/>
<feBlend mode="normal" in="SourceGraphic" in2="effect1_dropShadow_1_2696" result="shape"/>
</filter>
<filter id="filter3_d_1_2696" x="126.461" y="61.5547" width="28.1232" height="28.1232" filterUnits="userSpaceOnUse" color-interpolation-filters="sRGB">
<feFlood flood-opacity="0" result="BackgroundImageFix"/>
<feColorMatrix in="SourceAlpha" type="matrix" values="0 0 0 0 0 0 0 0 0 0 0 0 0 0 0 0 0 0 127 0" result="hardAlpha"/>
<feOffset dy="6.69519"/>
<feGaussianBlur stdDeviation="3.34759"/>
<feComposite in2="hardAlpha" operator="out"/>
<feColorMatrix type="matrix" values="0 0 0 0 0.0509804 0 0 0 0 0.0392157 0 0 0 0 0.172549 0 0 0 0.08 0"/>
<feBlend mode="normal" in2="BackgroundImageFix" result="effect1_dropShadow_1_2696"/>
<feBlend mode="normal" in="SourceGraphic" in2="effect1_dropShadow_1_2696" result="shape"/>
</filter>
<linearGradient id="paint0_linear_1_2696" x1="98.3477" y1="41.6582" x2="98.3477" y2="106.842" gradientUnits="userSpaceOnUse">
<stop stop-color="#22C55E"/>
<stop offset="1" stop-color="#22C55E" stop-opacity="0"/>
</linearGradient>
<clipPath id="clip0_1_2696">
<rect y="0.572266" width="195.872" height="106.989" rx="13.3542" fill="white"/>
</clipPath>
</defs>
</svg>
