<svg width="22" height="23" viewBox="0 0 22 23" fill="none" xmlns="http://www.w3.org/2000/svg">
<path d="M9.35209 13.3319L6.98688 10.9667C6.78752 10.7674 6.54284 10.6677 6.25285 10.6677C5.96286 10.6677 5.70913 10.7764 5.49164 10.9939C5.29227 11.1933 5.19259 11.447 5.19259 11.7551C5.19259 12.0632 5.29227 12.317 5.49164 12.5164L8.59087 15.6156C8.79024 15.815 9.04398 15.9146 9.35209 15.9146C9.6602 15.9146 9.91394 15.815 10.1133 15.6156L16.2846 9.4443C16.484 9.24493 16.5837 9.00025 16.5837 8.71027C16.5837 8.42028 16.4749 8.16654 16.2574 7.94905C16.0581 7.74968 15.8043 7.65 15.4962 7.65C15.1881 7.65 14.9343 7.74968 14.735 7.94905L9.35209 13.3319ZM10.8745 22.2491C9.37022 22.2491 7.95653 21.9634 6.63346 21.3921C5.31039 20.8216 4.15951 20.047 3.1808 19.0683C2.20209 18.0895 1.42746 16.9387 0.856913 15.6156C0.285638 14.2925 0 12.8788 0 11.3745C0 9.87022 0.285638 8.45653 0.856913 7.13346C1.42746 5.81039 2.20209 4.65951 3.1808 3.6808C4.15951 2.70209 5.31039 1.9271 6.63346 1.35583C7.95653 0.785275 9.37022 0.5 10.8745 0.5C12.3788 0.5 13.7925 0.785275 15.1156 1.35583C16.4387 1.9271 17.5895 2.70209 18.5683 3.6808C19.547 4.65951 20.3216 5.81039 20.8921 7.13346C21.4634 8.45653 21.7491 9.87022 21.7491 11.3745C21.7491 12.8788 21.4634 14.2925 20.8921 15.6156C20.3216 16.9387 19.547 18.0895 18.5683 19.0683C17.5895 20.047 16.4387 20.8216 15.1156 21.3921C13.7925 21.9634 12.3788 22.2491 10.8745 22.2491Z" fill="#E6366E"/>
</svg>
