<svg width="171" height="137" viewBox="0 0 171 137" fill="none" xmlns="http://www.w3.org/2000/svg">
<g filter="url(#filter0_f_1_3526)">
<ellipse cx="85.5102" cy="68.4601" rx="29.3222" ry="11.8685" fill="#E8356D"/>
<path d="M86.0289 63.3004L74.3286 65.2222V68.1049C74.3286 70.7714 79.3207 73.2649 86.0289 73.8702C92.737 73.2649 97.7292 70.7714 97.7292 68.1049V65.2222L86.0289 63.3004ZM86.0289 68.5805H95.1291C94.4401 70.56 90.865 72.3232 86.0289 72.8757V68.5853H76.9287V65.8468L86.0289 64.3526V68.5805Z" fill="white"/>
</g>
<circle cx="81.3755" cy="38" r="25" fill="#E8356D"/>
<path d="M75.688 46.6875C75.1724 46.6875 74.7311 46.5041 74.3642 46.1372C73.9967 45.7697 73.813 45.3281 73.813 44.8125V35.4375C73.813 34.9219 73.9967 34.4803 74.3642 34.1128C74.7311 33.7459 75.1724 33.5625 75.688 33.5625H76.6255V31.6875C76.6255 30.3906 77.0827 29.285 77.9971 28.3706C78.9108 27.4569 80.0161 27 81.313 27C82.6099 27 83.7155 27.4569 84.6299 28.3706C85.5436 29.285 86.0005 30.3906 86.0005 31.6875V33.5625H86.938C87.4536 33.5625 87.8952 33.7459 88.2627 34.1128C88.6296 34.4803 88.813 34.9219 88.813 35.4375V44.8125C88.813 45.3281 88.6296 45.7697 88.2627 46.1372C87.8952 46.5041 87.4536 46.6875 86.938 46.6875H75.688ZM81.313 42C81.8286 42 82.2702 41.8166 82.6377 41.4497C83.0046 41.0822 83.188 40.6406 83.188 40.125C83.188 39.6094 83.0046 39.1678 82.6377 38.8003C82.2702 38.4334 81.8286 38.25 81.313 38.25C80.7974 38.25 80.3561 38.4334 79.9892 38.8003C79.6217 39.1678 79.438 39.6094 79.438 40.125C79.438 40.6406 79.6217 41.0822 79.9892 41.4497C80.3561 41.8166 80.7974 42 81.313 42ZM78.5005 33.5625H84.1255V31.6875C84.1255 30.9062 83.8521 30.2422 83.3052 29.6953C82.7583 29.1484 82.0942 28.875 81.313 28.875C80.5317 28.875 79.8677 29.1484 79.3208 29.6953C78.7739 30.2422 78.5005 30.9062 78.5005 31.6875V33.5625Z" fill="white"/>
<defs>
<filter id="filter0_f_1_3526" x="0.33614" y="0.739704" width="170.348" height="135.441" filterUnits="userSpaceOnUse" color-interpolation-filters="sRGB">
<feFlood flood-opacity="0" result="BackgroundImageFix"/>
<feBlend mode="normal" in="SourceGraphic" in2="BackgroundImageFix" result="shape"/>
<feGaussianBlur stdDeviation="27.9259" result="effect1_foregroundBlur_1_3526"/>
</filter>
</defs>
</svg>
