<svg width="341" height="400" viewBox="0 0 341 400" fill="none" xmlns="http://www.w3.org/2000/svg">
<g clip-path="url(#clip0_1_6061)">
<rect width="7.56681" height="77.1369" rx="3.02498" transform="matrix(-1 0 0 1 334.184 201.295)" fill="url(#paint0_linear_1_6061)"/>
<rect width="7.56681" height="74.1119" rx="1.51249" transform="matrix(-1 0 0 1 332.645 202.797)" fill="url(#paint1_linear_1_6061)"/>
<rect width="7.67449" height="51.2935" rx="3.02498" transform="matrix(1 -8.63978e-08 -1.30531e-07 -1 3.35742 323.217)" fill="url(#paint2_linear_1_6061)"/>
<rect width="7.67449" height="48.4173" rx="1.51249" transform="matrix(1 -8.63978e-08 -1.30531e-07 -1 4.79297 321.772)" fill="url(#paint3_linear_1_6061)"/>
<rect width="7.67449" height="50.3348" rx="3.02498" transform="matrix(1 -8.63978e-08 -1.30531e-07 -1 3.37891 251.796)" fill="url(#paint4_linear_1_6061)"/>
<rect width="7.67449" height="22.0514" rx="3.02498" transform="matrix(1 -8.63978e-08 -1.30531e-07 -1 3.85156 183.24)" fill="url(#paint5_linear_1_6061)"/>
<rect width="6.46703" height="48.5027" rx="1.51249" transform="matrix(1 -8.63978e-08 -1.30531e-07 -1 5.52344 251.057)" fill="#3D0072"/>
<rect width="7.67449" height="19.1751" rx="1.51249" transform="matrix(1 -2.87993e-08 -1.5933e-07 -1 5.30078 181.807)" fill="url(#paint6_linear_1_6061)"/>
<rect x="6.89258" y="3.14917" width="323.673" height="648.858" rx="56.7183" fill="#3D0072"/>
<rect x="8.4043" y="4.66406" width="320.648" height="645.833" rx="55.9621" fill="url(#paint7_linear_1_6061)"/>
<rect x="9.77148" y="6.00146" width="317.623" height="642.808" rx="54.4496" fill="#3D0072"/>
<rect x="17.6094" y="13.8486" width="301.589" height="626.776" rx="48.5727" fill="white"/>
<g clip-path="url(#clip1_1_6061)">
<rect x="22" y="18" width="293.676" height="927" rx="40" fill="white"/>
<path d="M43.5452 94.1166H46.7564V108.382H43.5452V94.1166ZM49.8525 97.9248C50.374 97.7738 51.0464 97.6366 51.8698 97.5131C52.6932 97.3759 53.5578 97.3072 54.4635 97.3072C55.383 97.3072 56.1446 97.4307 56.7484 97.6778C57.3659 97.9111 57.8531 98.2473 58.2099 98.6864C58.5667 99.1256 58.8206 99.647 58.9716 100.251C59.1225 100.855 59.198 101.527 59.198 102.268V108.382H56.1309V102.639C56.1309 101.651 56.0005 100.951 55.7398 100.539C55.479 100.127 54.9918 99.9215 54.2782 99.9215C54.0587 99.9215 53.8254 99.9352 53.5784 99.9627C53.3313 99.9764 53.1118 99.997 52.9196 100.024V108.382H49.8525V97.9248ZM65.0825 106.179C65.6451 106.179 66.0431 106.124 66.2764 106.015C66.5097 105.905 66.6264 105.692 66.6264 105.376C66.6264 105.129 66.4754 104.917 66.1735 104.738C65.8716 104.546 65.4119 104.334 64.7943 104.1C64.314 103.922 63.8749 103.737 63.4769 103.544C63.0926 103.352 62.7633 103.126 62.4888 102.865C62.2144 102.591 62.0016 102.268 61.8507 101.898C61.6997 101.527 61.6243 101.081 61.6243 100.56C61.6243 99.5441 62.0016 98.7413 62.7564 98.1512C63.5112 97.5611 64.5473 97.2661 65.8647 97.2661C66.5234 97.2661 67.1547 97.3278 67.7585 97.4513C68.3623 97.5611 68.8426 97.6846 69.1994 97.8219L68.6642 100.21C68.3074 100.086 67.9163 99.9764 67.4909 99.8803C67.0792 99.7843 66.6126 99.7362 66.0911 99.7362C65.1305 99.7362 64.6502 100.004 64.6502 100.539C64.6502 100.663 64.6708 100.772 64.712 100.868C64.7531 100.964 64.8355 101.061 64.959 101.157C65.0825 101.239 65.2472 101.335 65.453 101.445C65.6726 101.541 65.9471 101.651 66.2764 101.774C66.9488 102.021 67.5046 102.268 67.9438 102.515C68.3829 102.748 68.726 103.009 68.973 103.297C69.2338 103.572 69.4122 103.881 69.5082 104.224C69.618 104.567 69.6729 104.965 69.6729 105.418C69.6729 106.488 69.2681 107.298 68.4584 107.847C67.6625 108.396 66.5303 108.67 65.0619 108.67C64.1013 108.67 63.2985 108.588 62.6535 108.423C62.0222 108.258 61.5831 108.121 61.3361 108.011L61.8507 105.521C62.3722 105.726 62.9074 105.891 63.4563 106.015C64.0052 106.124 64.5473 106.179 65.0825 106.179ZM81.2076 108.011C80.6861 108.162 80.0137 108.299 79.1903 108.423C78.3669 108.56 77.5023 108.629 76.5966 108.629C75.6772 108.629 74.9087 108.505 74.2911 108.258C73.6873 108.011 73.207 107.668 72.8502 107.229C72.4934 106.776 72.2395 106.241 72.0885 105.623C71.9376 105.006 71.8621 104.327 71.8621 103.586V97.5543H74.9292V103.215C74.9292 104.203 75.0596 104.917 75.3204 105.356C75.5811 105.795 76.0683 106.015 76.7819 106.015C77.0014 106.015 77.2347 106.008 77.4818 105.994C77.7288 105.967 77.9483 105.939 78.1405 105.912V97.5543H81.2076V108.011ZM90.6121 100.271C90.3376 100.203 90.0151 100.134 89.6446 100.066C89.2741 99.9833 88.8761 99.9421 88.4507 99.9421C88.2586 99.9421 88.0253 99.9627 87.7508 100.004C87.4901 100.031 87.2911 100.066 87.1539 100.107V108.382H84.0867V98.1306C84.6356 97.9385 85.2806 97.7601 86.0217 97.5954C86.7765 97.417 87.6136 97.3278 88.533 97.3278C88.6977 97.3278 88.8967 97.3415 89.13 97.369C89.3633 97.3827 89.5966 97.4102 89.8299 97.4513C90.0632 97.4788 90.2965 97.5199 90.5298 97.5748C90.763 97.616 90.962 97.6709 91.1267 97.7395L90.6121 100.271ZM92.0553 103.05C92.0553 102.09 92.1994 101.253 92.4876 100.539C92.7895 99.8117 93.1806 99.2079 93.6609 98.7276C94.1412 98.2473 94.6901 97.8836 95.3077 97.6366C95.9389 97.3896 96.5839 97.2661 97.2426 97.2661C98.7796 97.2661 99.9941 97.7395 100.886 98.6864C101.778 99.6196 102.224 100.999 102.224 102.824C102.224 103.002 102.217 103.201 102.204 103.421C102.19 103.627 102.176 103.812 102.162 103.977H95.2047C95.2734 104.608 95.5684 105.109 96.0899 105.479C96.6114 105.85 97.3112 106.035 98.1895 106.035C98.7522 106.035 99.3011 105.987 99.8363 105.891C100.385 105.781 100.831 105.651 101.174 105.5L101.586 107.991C101.421 108.073 101.202 108.155 100.927 108.238C100.653 108.32 100.344 108.389 100.001 108.444C99.6716 108.512 99.3148 108.567 98.9306 108.608C98.5463 108.649 98.1621 108.67 97.7778 108.67C96.8035 108.67 95.9527 108.526 95.2253 108.238C94.5117 107.95 93.9148 107.558 93.4345 107.064C92.9679 106.557 92.6179 105.96 92.3846 105.274C92.1651 104.587 92.0553 103.846 92.0553 103.05ZM99.2599 101.877C99.2462 101.616 99.1982 101.362 99.1158 101.115C99.0472 100.868 98.9306 100.649 98.7659 100.457C98.6149 100.265 98.416 100.107 98.1689 99.9833C97.9357 99.8597 97.6406 99.798 97.2838 99.798C96.9407 99.798 96.6457 99.8597 96.3987 99.9833C96.1516 100.093 95.9458 100.244 95.7811 100.436C95.6164 100.628 95.4861 100.855 95.39 101.115C95.3077 101.362 95.2459 101.616 95.2047 101.877H99.2599Z" fill="#3D0072"/>
<path d="M42.6958 268.988H43.9061V275.645H42.6958V268.988ZM45.4431 270.784C45.6672 270.72 45.9586 270.659 46.3172 270.602C46.6759 270.544 47.0729 270.515 47.5084 270.515C47.9183 270.515 48.2609 270.573 48.5363 270.688C48.8116 270.797 49.0294 270.954 49.1895 271.159C49.356 271.357 49.4713 271.601 49.5353 271.889C49.6058 272.171 49.641 272.481 49.641 272.821V275.645H48.4786V273.003C48.4786 272.734 48.4594 272.507 48.421 272.321C48.389 272.129 48.3313 271.975 48.2481 271.86C48.1712 271.738 48.0624 271.652 47.9215 271.601C47.787 271.543 47.6205 271.514 47.4219 271.514C47.2746 271.514 47.1209 271.524 46.9608 271.543C46.8007 271.562 46.6823 271.578 46.6054 271.591V275.645H45.4431V270.784ZM52.2182 275.645C51.898 274.985 51.5682 274.23 51.2288 273.378C50.8958 272.52 50.5916 271.601 50.3162 270.621H51.5554C51.6258 270.903 51.7059 271.207 51.7955 271.534C51.8916 271.854 51.9909 272.177 52.0933 272.504C52.2022 272.824 52.3111 273.138 52.4199 273.445C52.5352 273.746 52.6409 274.018 52.737 274.262C52.833 274.018 52.9355 273.746 53.0444 273.445C53.1532 273.138 53.2589 272.824 53.3614 272.504C53.4702 272.177 53.5727 271.854 53.6688 271.534C53.7648 271.207 53.8481 270.903 53.9185 270.621H55.1193C54.8439 271.601 54.5365 272.52 54.1971 273.378C53.8641 274.23 53.5375 274.985 53.2173 275.645H52.2182ZM55.5962 273.157C55.5962 272.715 55.6603 272.328 55.7884 271.995C55.9228 271.662 56.099 271.386 56.3167 271.169C56.5344 270.944 56.7842 270.778 57.066 270.669C57.3478 270.554 57.6359 270.496 57.9305 270.496C58.6222 270.496 59.1601 270.711 59.5444 271.14C59.935 271.569 60.1304 272.209 60.1304 273.061C60.1304 273.125 60.1272 273.199 60.1208 273.282C60.1208 273.359 60.1176 273.429 60.1111 273.493H56.797C56.829 273.897 56.9699 274.21 57.2197 274.435C57.4758 274.652 57.8441 274.761 58.3244 274.761C58.6062 274.761 58.8623 274.736 59.0929 274.684C59.3298 274.633 59.5156 274.579 59.6501 274.521L59.8037 275.472C59.7397 275.504 59.65 275.539 59.5348 275.578C59.4259 275.61 59.2978 275.639 59.1505 275.664C59.0096 275.696 58.8559 275.722 58.6894 275.741C58.5229 275.76 58.3532 275.77 58.1803 275.77C57.7384 275.77 57.3542 275.706 57.0276 275.578C56.7009 275.443 56.432 275.261 56.2206 275.03C56.0093 274.793 55.8524 274.518 55.7499 274.204C55.6475 273.884 55.5962 273.535 55.5962 273.157ZM58.968 272.638C58.968 272.478 58.9456 272.328 58.9008 272.187C58.8559 272.039 58.7887 271.915 58.699 271.812C58.6158 271.703 58.5101 271.62 58.382 271.562C58.2604 271.498 58.1131 271.466 57.9401 271.466C57.7608 271.466 57.6039 271.502 57.4694 271.572C57.335 271.636 57.2197 271.722 57.1236 271.831C57.034 271.94 56.9635 272.065 56.9123 272.206C56.861 272.347 56.8258 272.491 56.8066 272.638H58.968ZM62.6211 274.809C62.9285 274.809 63.1527 274.774 63.2936 274.704C63.4345 274.627 63.5049 274.499 63.5049 274.319C63.5049 274.153 63.4281 274.015 63.2744 273.906C63.1271 273.797 62.8805 273.679 62.5347 273.551C62.3234 273.474 62.128 273.394 61.9487 273.311C61.7758 273.221 61.6253 273.119 61.4972 273.003C61.3691 272.888 61.2667 272.75 61.1898 272.59C61.1194 272.424 61.0842 272.222 61.0842 271.985C61.0842 271.524 61.2539 271.162 61.5933 270.9C61.9327 270.631 62.3938 270.496 62.9766 270.496C63.2712 270.496 63.553 270.525 63.8219 270.583C64.0909 270.634 64.2926 270.685 64.4271 270.736L64.2158 271.678C64.0877 271.62 63.9244 271.569 63.7259 271.524C63.5273 271.473 63.2968 271.447 63.0342 271.447C62.7973 271.447 62.6051 271.489 62.4578 271.572C62.3105 271.649 62.2369 271.771 62.2369 271.937C62.2369 272.02 62.2497 272.094 62.2753 272.158C62.3073 272.222 62.3586 272.283 62.429 272.34C62.4995 272.392 62.5923 272.446 62.7076 272.504C62.8229 272.555 62.9638 272.609 63.1303 272.667C63.4057 272.77 63.6394 272.872 63.8315 272.974C64.0237 273.071 64.1806 273.183 64.3022 273.311C64.4303 273.432 64.5232 273.573 64.5808 273.733C64.6385 273.893 64.6673 274.086 64.6673 274.31C64.6673 274.79 64.488 275.155 64.1293 275.405C63.7771 275.648 63.2712 275.77 62.6115 275.77C62.1697 275.77 61.8142 275.731 61.5453 275.655C61.2763 275.584 61.0874 275.527 60.9785 275.482L61.1802 274.511C61.3531 274.582 61.5581 274.649 61.795 274.713C62.0384 274.777 62.3137 274.809 62.6211 274.809ZM65.6954 269.295L66.8578 269.103V270.621H68.6445V271.591H66.8578V273.637C66.8578 274.041 66.9218 274.329 67.0499 274.502C67.178 274.675 67.3957 274.761 67.7031 274.761C67.9145 274.761 68.1002 274.739 68.2603 274.694C68.4268 274.649 68.5581 274.608 68.6542 274.569L68.8463 275.491C68.7118 275.549 68.5357 275.607 68.3179 275.664C68.1002 275.728 67.844 275.76 67.5494 275.76C67.1908 275.76 66.8898 275.712 66.6465 275.616C66.4095 275.52 66.2206 275.382 66.0797 275.203C65.9388 275.017 65.8395 274.796 65.7819 274.54C65.7243 274.278 65.6954 273.98 65.6954 273.647V269.295ZM75.0074 272.485C74.8601 273.048 74.7 273.599 74.5271 274.137C74.3606 274.668 74.1941 275.171 74.0276 275.645H73.0765C72.9485 275.35 72.814 275.014 72.6731 274.636C72.5322 274.259 72.3913 273.855 72.2504 273.426C72.1095 272.997 71.9686 272.545 71.8277 272.072C71.6868 271.598 71.5492 271.114 71.4147 270.621H72.6443C72.7019 270.89 72.7691 271.181 72.846 271.495C72.9228 271.803 73.0029 272.12 73.0861 272.446C73.1694 272.766 73.2559 273.08 73.3455 273.388C73.4352 273.695 73.5248 273.977 73.6145 274.233C73.7105 273.938 73.8034 273.634 73.8931 273.32C73.9891 273.007 74.0788 272.693 74.162 272.379C74.2453 272.065 74.3221 271.761 74.3926 271.466C74.4694 271.165 74.5367 270.884 74.5943 270.621H75.4877C75.5453 270.884 75.6094 271.165 75.6798 271.466C75.7503 271.761 75.8239 272.065 75.9008 272.379C75.984 272.693 76.0705 273.007 76.1601 273.32C76.2562 273.634 76.3523 273.938 76.4483 274.233C76.5316 273.977 76.618 273.695 76.7077 273.388C76.7973 273.08 76.8838 272.766 76.9671 272.446C77.0567 272.12 77.14 271.803 77.2168 271.495C77.2937 271.181 77.3609 270.89 77.4185 270.621H78.6193C78.4848 271.114 78.3472 271.598 78.2063 272.072C78.0654 272.545 77.9245 272.997 77.7836 273.426C77.6427 273.855 77.5018 274.259 77.3609 274.636C77.22 275.014 77.0823 275.35 76.9478 275.645H76.0064C75.8399 275.171 75.667 274.668 75.4877 274.137C75.3148 273.599 75.1547 273.048 75.0074 272.485ZM80.6777 275.645H79.5153V270.621H80.6777V275.645ZM80.8026 269.151C80.8026 269.369 80.7321 269.542 80.5912 269.67C80.4503 269.798 80.2838 269.862 80.0917 269.862C79.8932 269.862 79.7235 269.798 79.5826 269.67C79.4417 269.542 79.3712 269.369 79.3712 269.151C79.3712 268.927 79.4417 268.751 79.5826 268.623C79.7235 268.495 79.8932 268.431 80.0917 268.431C80.2838 268.431 80.4503 268.495 80.5912 268.623C80.7321 268.751 80.8026 268.927 80.8026 269.151ZM82.1029 269.295L83.2653 269.103V270.621H85.052V271.591H83.2653V273.637C83.2653 274.041 83.3293 274.329 83.4574 274.502C83.5855 274.675 83.8032 274.761 84.1106 274.761C84.322 274.761 84.5077 274.739 84.6678 274.694C84.8343 274.649 84.9656 274.608 85.0616 274.569L85.2538 275.491C85.1193 275.549 84.9432 275.607 84.7254 275.664C84.5077 275.728 84.2515 275.76 83.9569 275.76C83.5983 275.76 83.2973 275.712 83.0539 275.616C82.817 275.52 82.6281 275.382 82.4872 275.203C82.3463 275.017 82.247 274.796 82.1894 274.54C82.1317 274.278 82.1029 273.98 82.1029 273.647V269.295ZM86.1757 275.645V268.383L87.338 268.191V270.679C87.4661 270.634 87.6134 270.595 87.7799 270.563C87.9528 270.531 88.1225 270.515 88.289 270.515C88.6925 270.515 89.0255 270.573 89.2881 270.688C89.5571 270.797 89.7716 270.954 89.9317 271.159C90.0918 271.357 90.2039 271.598 90.2679 271.879C90.3384 272.161 90.3736 272.475 90.3736 272.821V275.645H89.2112V273.003C89.2112 272.734 89.192 272.507 89.1536 272.321C89.1216 272.129 89.0639 271.975 88.9807 271.86C88.9038 271.738 88.7982 271.652 88.6637 271.601C88.5292 271.543 88.3627 271.514 88.1642 271.514C88.0105 271.514 87.8536 271.53 87.6934 271.562C87.5333 271.594 87.4149 271.623 87.338 271.649V275.645H86.1757ZM98.1299 275.491C97.9058 275.549 97.6144 275.607 97.2558 275.664C96.8971 275.728 96.5033 275.76 96.0742 275.76C95.6707 275.76 95.3313 275.703 95.0559 275.587C94.787 275.472 94.5692 275.312 94.4027 275.107C94.2426 274.902 94.1273 274.659 94.0569 274.377C93.9864 274.089 93.9512 273.775 93.9512 273.436V270.621H95.1136V273.253C95.1136 273.791 95.1904 274.175 95.3441 274.406C95.5042 274.636 95.7796 274.752 96.1703 274.752C96.3111 274.752 96.4584 274.745 96.6121 274.732C96.7722 274.72 96.8907 274.704 96.9676 274.684V270.621H98.1299V275.491ZM100.868 274.809C101.175 274.809 101.399 274.774 101.54 274.704C101.681 274.627 101.752 274.499 101.752 274.319C101.752 274.153 101.675 274.015 101.521 273.906C101.374 273.797 101.127 273.679 100.781 273.551C100.57 273.474 100.375 273.394 100.195 273.311C100.022 273.221 99.8719 273.119 99.7438 273.003C99.6158 272.888 99.5133 272.75 99.4364 272.59C99.366 272.424 99.3308 272.222 99.3308 271.985C99.3308 271.524 99.5005 271.162 99.8399 270.9C100.179 270.631 100.64 270.496 101.223 270.496C101.518 270.496 101.8 270.525 102.069 270.583C102.338 270.634 102.539 270.685 102.674 270.736L102.462 271.678C102.334 271.62 102.171 271.569 101.972 271.524C101.774 271.473 101.543 271.447 101.281 271.447C101.044 271.447 100.852 271.489 100.704 271.572C100.557 271.649 100.484 271.771 100.484 271.937C100.484 272.02 100.496 272.094 100.522 272.158C100.554 272.222 100.605 272.283 100.676 272.34C100.746 272.392 100.839 272.446 100.954 272.504C101.07 272.555 101.21 272.609 101.377 272.667C101.652 272.77 101.886 272.872 102.078 272.974C102.27 273.071 102.427 273.183 102.549 273.311C102.677 273.432 102.77 273.573 102.827 273.733C102.885 273.893 102.914 274.086 102.914 274.31C102.914 274.79 102.735 275.155 102.376 275.405C102.024 275.648 101.518 275.77 100.858 275.77C100.416 275.77 100.061 275.731 99.7919 275.655C99.5229 275.584 99.334 275.527 99.2251 275.482L99.4268 274.511C99.5998 274.582 99.8047 274.649 100.042 274.713C100.285 274.777 100.56 274.809 100.868 274.809Z" fill="#3D0072"/>
<rect x="39" y="136" width="261.303" height="84.0157" rx="8.23684" fill="#F9F9F9"/>
<path d="M58.6099 177V174.559H58.0366V173.827H58.6099V173.116H58.0366L58.0366 172.384H58.6099V169.943H60.1617L60.9327 172.384H61.8321V169.943H62.9293V172.384H63.4927V173.116H62.9293V173.827H63.4927V174.559H62.9293V177H61.3676L60.5768 174.559H59.707V177H58.6099ZM59.707 173.827H60.3594L60.1419 173.116H59.6872L59.707 173.827ZM61.8618 175.458H61.9112L61.8717 174.559H61.6048L61.8618 175.458ZM59.6675 172.384H59.9442L59.6576 171.435H59.6181L59.6675 172.384ZM61.3972 173.827H61.8519L61.8321 173.116H61.1699L61.3972 173.827ZM70.5132 177.148C72.7668 177.148 74.1753 175.784 74.1753 173.738C74.1753 171.766 73.0781 170.491 71.1952 170.491C69.8756 170.491 69.075 171.203 68.7636 172.092L69.0009 168.608H73.4339V167.066H67.3996L67.0734 172.715L68.7043 172.878L68.7192 172.745C68.8081 172.107 69.4753 171.707 70.4242 171.707C71.4472 171.707 72.3813 172.27 72.3813 173.664C72.3813 174.821 71.7289 175.532 70.528 175.532C69.2529 175.532 68.3782 174.791 68.0372 173.56L66.7028 174.85C67.2069 176.14 68.6154 177.148 70.5132 177.148ZM75.9254 178.72C77.0374 178.601 77.4674 178.023 77.4674 177.03V174.895H75.5696V177H76.4444V177.193C76.4444 177.682 76.1182 177.786 75.5844 177.845L75.9254 178.72ZM82.7622 177.133C85.5347 177.133 86.9284 174.939 86.9284 172.018C86.9284 169.112 85.5347 166.918 82.7622 166.918C79.9897 166.918 78.5812 169.112 78.5812 172.018C78.5812 174.939 79.9897 177.133 82.7622 177.133ZM82.7622 175.532C80.9979 175.532 80.3455 174.109 80.3455 172.018C80.3455 169.943 80.9979 168.505 82.7622 168.505C84.5414 168.505 85.1789 169.943 85.1789 172.018C85.1789 174.109 84.5414 175.532 82.7622 175.532ZM92.4486 177.133C95.2211 177.133 96.6147 174.939 96.6147 172.018C96.6147 169.112 95.2211 166.918 92.4486 166.918C89.676 166.918 88.2675 169.112 88.2675 172.018C88.2675 174.939 89.676 177.133 92.4486 177.133ZM92.4486 175.532C90.6842 175.532 90.0319 174.109 90.0319 172.018C90.0319 169.943 90.6842 168.505 92.4486 168.505C94.2277 168.505 94.8652 169.943 94.8652 172.018C94.8652 174.109 94.2277 175.532 92.4486 175.532ZM102.135 177.133C104.907 177.133 106.301 174.939 106.301 172.018C106.301 169.112 104.907 166.918 102.135 166.918C99.3624 166.918 97.9539 169.112 97.9539 172.018C97.9539 174.939 99.3624 177.133 102.135 177.133ZM102.135 175.532C100.371 175.532 99.7182 174.109 99.7182 172.018C99.7182 169.943 100.371 168.505 102.135 168.505C103.914 168.505 104.552 169.943 104.552 172.018C104.552 174.109 103.914 175.532 102.135 175.532ZM107.779 178.72C108.891 178.601 109.321 178.023 109.321 177.03V174.895H107.423V177H108.298V177.193C108.298 177.682 107.972 177.786 107.438 177.845L107.779 178.72ZM114.616 177.133C117.388 177.133 118.782 174.939 118.782 172.018C118.782 169.112 117.388 166.918 114.616 166.918C111.843 166.918 110.435 169.112 110.435 172.018C110.435 174.939 111.843 177.133 114.616 177.133ZM114.616 175.532C112.851 175.532 112.199 174.109 112.199 172.018C112.199 169.943 112.851 168.505 114.616 168.505C116.395 168.505 117.032 169.943 117.032 172.018C117.032 174.109 116.395 175.532 114.616 175.532ZM124.302 177.133C127.074 177.133 128.468 174.939 128.468 172.018C128.468 169.112 127.074 166.918 124.302 166.918C121.529 166.918 120.121 169.112 120.121 172.018C120.121 174.939 121.529 177.133 124.302 177.133ZM124.302 175.532C122.538 175.532 121.885 174.109 121.885 172.018C121.885 169.943 122.538 168.505 124.302 168.505C126.081 168.505 126.719 169.943 126.719 172.018C126.719 174.109 126.081 175.532 124.302 175.532ZM133.988 177.133C136.761 177.133 138.154 174.939 138.154 172.018C138.154 169.112 136.761 166.918 133.988 166.918C131.216 166.918 129.807 169.112 129.807 172.018C129.807 174.939 131.216 177.133 133.988 177.133ZM133.988 175.532C132.224 175.532 131.572 174.109 131.572 172.018C131.572 169.943 132.224 168.505 133.988 168.505C135.767 168.505 136.405 169.943 136.405 172.018C136.405 174.109 135.767 175.532 133.988 175.532ZM141.174 177V174.895H139.276V177H141.174ZM146.469 177.133C149.242 177.133 150.635 174.939 150.635 172.018C150.635 169.112 149.242 166.918 146.469 166.918C143.696 166.918 142.288 169.112 142.288 172.018C142.288 174.939 143.696 177.133 146.469 177.133ZM146.469 175.532C144.705 175.532 144.052 174.109 144.052 172.018C144.052 169.943 144.705 168.505 146.469 168.505C148.248 168.505 148.886 169.943 148.886 172.018C148.886 174.109 148.248 175.532 146.469 175.532ZM156.155 177.133C158.928 177.133 160.322 174.939 160.322 172.018C160.322 169.112 158.928 166.918 156.155 166.918C153.383 166.918 151.974 169.112 151.974 172.018C151.974 174.939 153.383 177.133 156.155 177.133ZM156.155 175.532C154.391 175.532 153.739 174.109 153.739 172.018C153.739 169.943 154.391 168.505 156.155 168.505C157.934 168.505 158.572 169.943 158.572 172.018C158.572 174.109 157.934 175.532 156.155 175.532Z" fill="#3D0072"/>
<path fill-rule="evenodd" clip-rule="evenodd" d="M164.936 174.577C164.936 174.577 167.252 169.993 171.113 169.993C174.974 169.993 177.291 174.577 177.291 174.577C177.291 174.577 174.974 179.161 171.113 179.161C167.252 179.161 164.936 174.577 164.936 174.577ZM166.333 174.676C166.312 174.643 166.292 174.61 166.271 174.577L166.335 174.478C166.587 174.088 166.957 173.571 167.431 173.06C168.406 172.006 169.661 171.139 171.113 171.139C172.563 171.139 173.821 172.006 174.797 173.06C175.228 173.53 175.616 174.038 175.955 174.577C175.615 175.116 175.226 175.623 174.795 176.094C173.821 177.148 172.565 178.015 171.113 178.015C169.663 178.015 168.406 177.148 167.43 176.094C167.024 175.653 166.657 175.179 166.333 174.676ZM173.43 174.577C173.43 175.059 173.276 175.53 172.99 175.92C172.704 176.311 172.3 176.603 171.837 176.753C171.374 176.904 170.874 176.906 170.41 176.76C169.945 176.613 169.539 176.326 169.249 175.937C168.96 175.549 168.801 175.081 168.797 174.598C168.792 174.116 168.941 173.644 169.223 173.251C169.506 172.857 169.906 172.562 170.368 172.406C170.829 172.251 171.329 172.244 171.795 172.386C171.624 172.462 171.475 172.579 171.36 172.725C171.244 172.871 171.167 173.042 171.133 173.225C171.099 173.407 171.111 173.595 171.167 173.771C171.223 173.948 171.321 174.109 171.454 174.24C171.586 174.371 171.749 174.469 171.927 174.524C172.106 174.579 172.296 174.591 172.48 174.557C172.664 174.524 172.838 174.447 172.986 174.333C173.133 174.219 173.251 174.071 173.328 173.902C173.396 174.121 173.43 174.348 173.43 174.577Z" fill="#9CA3AF"/>
<rect x="57.9375" y="187.868" width="49.3819" height="17.6214" rx="8.81071" fill="#3D0072" fill-opacity="0.11"/>
<rect x="61.2324" y="191.179" width="24.8304" height="11" rx="5.5" fill="white"/>
<path d="M67.727 198.179V195.292L67.6939 194.703L68.0912 195.292L70.124 198.179H70.6404V193.743H70.0644V196.577L70.0975 197.252L69.6406 196.564L67.6608 193.743H67.1509V198.179H67.727ZM73.2548 198.232C74.2745 198.232 74.8439 197.451 74.877 196.464L75.0558 198.179H75.4133V195.954H73.4534V196.464H74.8108C74.6453 197.212 74.3076 197.689 73.4534 197.689C72.4933 197.689 72.0497 196.967 72.0497 195.954C72.0497 194.941 72.5065 194.22 73.513 194.22C74.2943 194.22 74.7313 194.696 74.8836 195.325L75.4001 194.988C75.1021 194.147 74.4334 193.677 73.5064 193.677C72.1688 193.677 71.4405 194.657 71.4405 195.954C71.4405 197.299 72.0695 198.232 73.2548 198.232ZM76.9091 198.179V195.292L76.8759 194.703L77.2732 195.292L79.306 198.179H79.8225V193.743H79.2464V196.577L79.2795 197.252L78.8226 196.564L76.8428 193.743H76.333V198.179H76.9091Z" fill="#3D0072" fill-opacity="0.8"/>
<path d="M92.3 198.245C93.4786 198.245 93.9951 197.636 93.9951 196.325V193.742H93.4257V196.325C93.4257 197.305 93.1211 197.695 92.3066 197.695C91.5054 197.695 91.1942 197.305 91.1942 196.325V193.742H90.6182V196.325C90.6182 197.636 91.1479 198.245 92.3 198.245ZM96.5636 198.245C97.4244 198.245 98.0667 197.781 98.0667 197.013C98.0667 196.139 97.378 195.894 96.749 195.742L96.2656 195.623C95.7558 195.497 95.4313 195.331 95.4313 194.888C95.4313 194.477 95.7955 194.232 96.2855 194.232C96.8616 194.232 97.3118 194.477 97.5237 195.08L98.0071 194.696C97.7356 194.034 97.0999 193.683 96.2987 193.683C95.524 193.683 94.8222 194.12 94.8222 194.928C94.8222 195.762 95.4909 196.027 96.0802 196.159L96.4974 196.252C97.0867 196.391 97.4773 196.517 97.4773 197.027C97.4773 197.51 97.0602 197.702 96.5636 197.702C96.0074 197.702 95.3188 197.444 95.1135 196.722L94.6765 197.106C94.9678 197.927 95.7293 198.245 96.5636 198.245ZM100.427 198.179C101.824 198.179 102.519 197.364 102.519 195.961C102.519 194.557 101.824 193.742 100.427 193.742H98.8577V198.179H100.427ZM100.334 194.252C101.341 194.252 101.923 194.696 101.923 195.961C101.923 197.225 101.341 197.669 100.334 197.669H99.4338V194.252H100.334Z" fill="#3D0072" fill-opacity="0.3"/>
<path d="M116.006 198.679V197.043H115.622V196.553H116.006V196.076H115.622V195.586H116.006V193.95H117.046L117.563 195.586H118.165V193.95H118.9V195.586H119.278V196.076H118.9V196.553H119.278V197.043H118.9V198.679H117.854L117.324 197.043H116.742V198.679H116.006ZM116.742 196.553H117.179L117.033 196.076H116.728L116.742 196.553ZM118.185 197.646H118.218L118.192 197.043H118.013L118.185 197.646ZM116.715 195.586H116.901L116.708 194.95H116.682L116.715 195.586ZM117.874 196.553H118.179L118.165 196.076H117.722L117.874 196.553ZM121.015 198.679C121.015 196.824 121.651 195.884 122.538 195.01V194.242H119.511V194.93H121.836C121.141 195.619 120.194 196.606 120.194 198.679H121.015ZM125.397 198.679V197.679H126.146V197.03H125.397V194.242H124.609L122.437 197.103V197.679H124.656V198.679H125.397ZM123.258 197.03L124.656 195.209V197.03H123.258ZM128.386 198.738C129.625 198.738 130.247 197.758 130.247 196.454C130.247 195.156 129.625 194.175 128.386 194.175C127.148 194.175 126.519 195.156 126.519 196.454C126.519 197.758 127.148 198.738 128.386 198.738ZM128.386 198.023C127.598 198.023 127.307 197.387 127.307 196.454C127.307 195.526 127.598 194.884 128.386 194.884C129.181 194.884 129.466 195.526 129.466 196.454C129.466 197.387 129.181 198.023 128.386 198.023ZM132.752 198.944L134.474 193.977H133.792L132.07 198.944H132.752ZM137.026 199.341V198.738C137.847 198.685 138.443 198.235 138.443 197.48C138.443 196.632 137.807 196.354 137.098 196.182L137.026 196.162V194.95C137.357 195.056 137.641 195.288 137.807 195.666L138.37 195.129C138.112 194.632 137.635 194.315 137.026 194.215V193.579H136.562V194.182C135.754 194.182 135.032 194.632 135.032 195.467C135.032 196.308 135.701 196.593 136.33 196.725L136.562 196.778V198.03C136.098 197.944 135.622 197.679 135.43 197.156L134.9 197.692C135.204 198.348 135.84 198.665 136.562 198.732V199.341H137.026ZM135.814 195.414C135.814 195.076 136.118 194.877 136.542 194.877H136.562V196.05C136.118 195.944 135.814 195.805 135.814 195.414ZM137.681 197.493C137.681 197.851 137.396 198.016 137.026 198.05V196.884C137.436 196.997 137.681 197.136 137.681 197.493ZM140.509 198.679V194.242H139.853C139.628 194.526 139.317 194.639 138.953 194.639V195.182H139.76V198.679H140.509Z" fill="#B69FC9"/>
<path d="M58.7443 156.18L59.3456 154.639H61.759L62.3603 156.18H63.151L60.927 150.661H60.2104L57.9865 156.18H58.7443ZM60.2763 152.259L60.5564 151.394L60.8282 152.259L61.5119 154.005H59.5927L60.2763 152.259ZM65.2282 156.262C66.2661 156.262 66.8756 155.661 67.065 154.862L66.3649 154.574C66.2825 155.208 65.9531 155.669 65.2365 155.669C64.5116 155.669 64.0751 155.125 64.0751 154.186C64.0751 153.247 64.5116 152.712 65.2365 152.712C65.9531 152.712 66.2825 153.165 66.3649 153.799L67.065 153.511C66.8756 152.712 66.2661 152.111 65.2282 152.111C64.0833 152.111 63.3502 152.926 63.3502 154.186C63.3502 155.455 64.0833 156.262 65.2282 156.262ZM69.4995 156.262C70.5373 156.262 71.1468 155.661 71.3363 154.862L70.6362 154.574C70.5538 155.208 70.2243 155.669 69.5077 155.669C68.7829 155.669 68.3463 155.125 68.3463 154.186C68.3463 153.247 68.7829 152.712 69.5077 152.712C70.2243 152.712 70.5538 153.165 70.6362 153.799L71.3363 153.511C71.1468 152.712 70.5373 152.111 69.4995 152.111C68.3546 152.111 67.6215 152.926 67.6215 154.186C67.6215 155.455 68.3546 156.262 69.4995 156.262ZM73.7131 156.262C74.8168 156.262 75.5993 155.447 75.5993 154.186C75.5993 152.926 74.8168 152.111 73.7131 152.111C72.6093 152.111 71.8351 152.926 71.8351 154.186C71.8351 155.447 72.6093 156.262 73.7131 156.262ZM73.7131 155.661C73.0376 155.661 72.5681 155.191 72.5681 154.186C72.5681 153.173 73.0376 152.712 73.7131 152.712C74.3967 152.712 74.8745 153.173 74.8745 154.186C74.8745 155.191 74.3967 155.661 73.7131 155.661ZM77.7427 156.262C78.5417 156.262 78.97 155.718 79.1183 155.092V156.18H79.8267V152.193H79.1183V154.458C79.1183 155.117 78.8382 155.661 78.064 155.661C77.3886 155.661 77.1826 155.29 77.1826 154.779V152.193H76.4743V154.952C76.4743 155.793 76.9602 156.262 77.7427 156.262ZM81.6316 156.18V153.923C81.6316 153.256 81.9117 152.72 82.6777 152.72C83.3531 152.72 83.559 153.083 83.559 153.602V156.18H84.2674V153.429C84.2674 152.58 83.7814 152.111 82.9989 152.111C82.2164 152.111 81.7881 152.638 81.6316 153.256V152.193H80.915V156.18H81.6316ZM86.5528 156.27C87.1047 156.27 87.4836 156.015 87.6565 155.743L87.4177 155.035C87.3106 155.282 87.0635 155.578 86.7093 155.578C86.3963 155.578 86.1574 155.455 86.1574 154.944V152.753H87.4671V152.193H86.1574V151.155L85.4408 151.682V152.193H84.7984V152.753H85.4408V155.158C85.4408 155.842 85.9021 156.27 86.5528 156.27ZM92.4893 156.18C93.6837 156.18 94.392 155.636 94.392 154.697C94.392 153.989 93.9884 153.42 92.8353 153.297C93.7578 153.198 94.1449 152.663 94.1449 152.07C94.1449 151.229 93.5848 150.661 92.5305 150.661H90.1995V156.18H92.4893ZM92.2834 151.295C92.9423 151.295 93.4036 151.501 93.4036 152.16C93.4036 152.827 92.9506 153.025 92.3163 153.025H90.9161V151.295H92.2834ZM92.3987 153.667C93.1153 153.667 93.6507 153.939 93.6507 154.606C93.6507 155.265 93.2471 155.545 92.374 155.545H90.9161V153.667H92.3987ZM96.1934 156.262C97.0171 156.262 97.4454 155.669 97.5772 155.142V155.422C97.5772 155.982 97.8737 156.18 98.2855 156.18H98.7468V155.529H98.4915C98.3432 155.529 98.2691 155.471 98.2691 155.282V153.643C98.2691 152.696 97.7419 152.111 96.7617 152.111C95.8721 152.111 95.2791 152.613 95.0402 153.025L95.5262 153.527C95.7321 153.091 96.111 152.761 96.6794 152.761C97.3054 152.761 97.5278 153.107 97.5525 153.577L96.111 154.219C95.5427 154.475 95.1391 154.812 95.1391 155.348C95.1391 155.875 95.518 156.262 96.1934 156.262ZM95.8639 155.232C95.8639 154.985 96.0369 154.821 96.4158 154.639L97.5772 154.096V154.648C97.5772 155.224 97.0994 155.669 96.424 155.669C96.0534 155.669 95.8639 155.504 95.8639 155.232ZM100.293 156.18V150.661H99.5766V156.18H100.293ZM102.194 156.262C103.018 156.262 103.446 155.669 103.578 155.142V155.422C103.578 155.982 103.874 156.18 104.286 156.18H104.747V155.529H104.492C104.344 155.529 104.27 155.471 104.27 155.282V153.643C104.27 152.696 103.743 152.111 102.762 152.111C101.873 152.111 101.28 152.613 101.041 153.025L101.527 153.527C101.733 153.091 102.112 152.761 102.68 152.761C103.306 152.761 103.528 153.107 103.553 153.577L102.112 154.219C101.543 154.475 101.14 154.812 101.14 155.348C101.14 155.875 101.519 156.262 102.194 156.262ZM101.865 155.232C101.865 154.985 102.038 154.821 102.416 154.639L103.578 154.096V154.648C103.578 155.224 103.1 155.669 102.425 155.669C102.054 155.669 101.865 155.504 101.865 155.232ZM106.294 156.18V153.923C106.294 153.256 106.574 152.72 107.34 152.72C108.015 152.72 108.221 153.083 108.221 153.602V156.18H108.93V153.429C108.93 152.58 108.444 152.111 107.661 152.111C106.879 152.111 106.45 152.638 106.294 153.256V152.193H105.577V156.18H106.294ZM111.633 156.262C112.671 156.262 113.28 155.661 113.47 154.862L112.77 154.574C112.687 155.208 112.358 155.669 111.641 155.669C110.916 155.669 110.48 155.125 110.48 154.186C110.48 153.247 110.916 152.712 111.641 152.712C112.358 152.712 112.687 153.165 112.77 153.799L113.47 153.511C113.28 152.712 112.671 152.111 111.633 152.111C110.488 152.111 109.755 152.926 109.755 154.186C109.755 155.455 110.488 156.262 111.633 156.262ZM115.945 156.262C116.81 156.262 117.362 155.858 117.659 155.381L117.222 154.887C117.065 155.232 116.744 155.669 115.945 155.669C115.237 155.669 114.767 155.191 114.726 154.351H117.683C117.7 154.277 117.716 154.153 117.716 154.03C117.716 152.86 117.033 152.111 115.904 152.111C114.809 152.111 114.034 152.926 114.034 154.186C114.034 155.455 114.817 156.262 115.945 156.262ZM115.904 152.712C116.571 152.712 117 153.099 117.074 153.832H114.743C114.833 153.091 115.262 152.712 115.904 152.712Z" fill="#6B7280"/>
<rect x="39.0002" y="241.295" width="84.0157" height="42.7199" rx="5.69598" fill="#FCE8EE"/>
<path d="M80.1603 266.379V261.312H81.9717V260.654H77.6142V261.312H79.4256V266.379H80.1603ZM83.5863 266.464C84.7312 266.464 85.5429 265.618 85.5429 264.311C85.5429 263.004 84.7312 262.158 83.5863 262.158C82.4415 262.158 81.6383 263.004 81.6383 264.311C81.6383 265.618 82.4415 266.464 83.5863 266.464ZM83.5863 265.841C82.8857 265.841 82.3987 265.354 82.3987 264.311C82.3987 263.26 82.8857 262.782 83.5863 262.782C84.2955 262.782 84.791 263.26 84.791 264.311C84.791 265.354 84.2955 265.841 83.5863 265.841ZM87.2362 267.968V265.311C87.3814 265.935 87.7744 266.464 88.569 266.464C89.6114 266.464 90.2607 265.61 90.2607 264.303C90.2607 262.995 89.6114 262.15 88.569 262.15C87.7744 262.15 87.3814 262.679 87.2362 263.303V262.244H86.4928V267.968H87.2362ZM87.2362 264.602V264.012C87.2362 263.329 87.5267 262.773 88.3127 262.773C88.9706 262.773 89.5089 263.252 89.5089 264.303C89.5089 265.362 88.9706 265.841 88.3127 265.841C87.5267 265.841 87.2362 265.285 87.2362 264.602ZM95.2045 266.464C96.7253 266.464 97.3917 265.678 97.3917 263.987V260.654H96.657V263.987C96.657 265.251 96.2639 265.755 95.213 265.755C94.1792 265.755 93.7776 265.251 93.7776 263.987V260.654H93.0343V263.987C93.0343 265.678 93.7178 266.464 95.2045 266.464ZM99.2595 267.968V265.311C99.4047 265.935 99.7977 266.464 100.592 266.464C101.635 266.464 102.284 265.61 102.284 264.303C102.284 262.995 101.635 262.15 100.592 262.15C99.7977 262.15 99.4047 262.679 99.2595 263.303V262.244H98.5161V267.968H99.2595ZM99.2595 264.602V264.012C99.2595 263.329 99.55 262.773 100.336 262.773C100.994 262.773 101.532 263.252 101.532 264.303C101.532 265.362 100.994 265.841 100.336 265.841C99.55 265.841 99.2595 265.285 99.2595 264.602Z" fill="#E8356D"/>
<path d="M66.8527 265.4L64.1188 257.198C62.2855 251.685 59.2705 251.685 57.4372 257.198L56.8815 258.865C56.7154 259.35 56.3385 259.727 55.8531 259.893L54.1923 260.443C48.6796 262.276 48.6733 265.285 54.1923 267.124L62.3941 269.858C66.0734 271.085 68.0792 269.079 66.8527 265.4ZM62.0811 266.045L58.6317 262.595C58.3698 262.333 58.3698 261.899 58.6317 261.637C58.8936 261.375 59.328 261.375 59.5899 261.637L63.0393 265.087C63.3012 265.348 63.3012 265.783 63.0393 266.045C62.7774 266.307 62.343 266.307 62.0811 266.045Z" fill="#E8356D"/>
<rect x="128.712" y="241.295" width="84.0157" height="42.7199" rx="5.69598" fill="#FEFCE8"/>
<path d="M163.575 266.387V264.106H164.489C165.053 264.106 165.361 264.243 165.574 264.627L166.583 266.387H167.454L166.429 264.619C166.249 264.302 166.036 264.123 165.771 264.038C166.651 263.918 167.275 263.337 167.275 262.423C167.275 261.278 166.446 260.663 165.327 260.663H162.832V266.387H163.575ZM165.207 261.321C165.89 261.321 166.506 261.568 166.506 262.423C166.506 263.234 165.89 263.482 165.207 263.482H163.575V261.321H165.207ZM169.788 266.473C170.685 266.473 171.257 266.054 171.565 265.558L171.112 265.046C170.95 265.405 170.617 265.857 169.788 265.857C169.053 265.857 168.566 265.362 168.523 264.49H171.591C171.608 264.414 171.625 264.285 171.625 264.157C171.625 262.944 170.916 262.166 169.745 262.166C168.609 262.166 167.806 263.012 167.806 264.32C167.806 265.635 168.617 266.473 169.788 266.473ZM169.745 262.79C170.437 262.79 170.882 263.192 170.958 263.952H168.54C168.634 263.183 169.079 262.79 169.745 262.79ZM174.111 266.473C174.906 266.473 175.299 265.943 175.444 265.319V267.976H176.187V262.252H175.444V263.311C175.299 262.688 174.906 262.158 174.111 262.158C173.069 262.158 172.42 263.004 172.42 264.311C172.42 265.618 173.069 266.473 174.111 266.473ZM173.171 264.311C173.171 263.26 173.71 262.782 174.359 262.782C175.154 262.782 175.444 263.337 175.444 264.021V264.61C175.444 265.294 175.154 265.849 174.359 265.849C173.71 265.849 173.171 265.37 173.171 264.311ZM178.605 266.473C179.433 266.473 179.878 265.909 180.031 265.259V266.387H180.766V262.252H180.031V264.602C180.031 265.285 179.741 265.849 178.938 265.849C178.237 265.849 178.024 265.464 178.024 264.935V262.252H177.289V265.114C177.289 265.986 177.793 266.473 178.605 266.473ZM183.638 266.473C184.536 266.473 185.108 266.054 185.416 265.558L184.963 265.046C184.8 265.405 184.467 265.857 183.638 265.857C182.904 265.857 182.417 265.362 182.374 264.49H185.441C185.458 264.414 185.475 264.285 185.475 264.157C185.475 262.944 184.766 262.166 183.596 262.166C182.459 262.166 181.656 263.012 181.656 264.32C181.656 265.635 182.468 266.473 183.638 266.473ZM183.596 262.79C184.288 262.79 184.732 263.192 184.809 263.952H182.391C182.485 263.183 182.929 262.79 183.596 262.79ZM187.957 266.473C188.76 266.473 189.461 266.105 189.461 265.285C189.461 264.713 189.153 264.328 188.222 264.106L187.692 263.969C187.128 263.833 186.855 263.704 186.855 263.337C186.855 262.987 187.162 262.799 187.59 262.799C188.179 262.799 188.572 263.106 188.777 263.593L189.341 263.175C189.11 262.628 188.504 262.166 187.632 262.166C186.735 262.166 186.154 262.628 186.154 263.38C186.154 264.14 186.795 264.422 187.384 264.559L187.931 264.687C188.418 264.798 188.794 264.918 188.794 265.294C188.794 265.661 188.47 265.849 187.983 265.849C187.162 265.849 186.71 265.379 186.564 264.909L186.026 265.328C186.308 266.097 187.094 266.473 187.957 266.473ZM191.615 266.481C192.187 266.481 192.58 266.216 192.76 265.934L192.512 265.2C192.401 265.456 192.144 265.763 191.777 265.763C191.452 265.763 191.205 265.635 191.205 265.106V262.833H192.563V262.252H191.205V261.175L190.461 261.722V262.252H189.795V262.833H190.461V265.328C190.461 266.037 190.94 266.481 191.615 266.481ZM194.916 266.473C195.719 266.473 196.419 266.105 196.419 265.285C196.419 264.713 196.112 264.328 195.18 264.106L194.651 263.969C194.087 263.833 193.813 263.704 193.813 263.337C193.813 262.987 194.121 262.799 194.548 262.799C195.138 262.799 195.531 263.106 195.736 263.593L196.3 263.175C196.069 262.628 195.462 262.166 194.591 262.166C193.694 262.166 193.113 262.628 193.113 263.38C193.113 264.14 193.754 264.422 194.343 264.559L194.89 264.687C195.377 264.798 195.753 264.918 195.753 265.294C195.753 265.661 195.428 265.849 194.941 265.849C194.121 265.849 193.668 265.379 193.523 264.909L192.985 265.328C193.267 266.097 194.053 266.473 194.916 266.473Z" fill="#EAB308"/>
<path d="M156.555 260.673L153.821 268.875C151.987 274.387 148.972 274.387 147.139 268.875L146.583 267.207C146.417 266.722 146.04 266.345 145.555 266.179L143.894 265.63C138.382 263.796 138.375 260.788 143.894 258.948L152.096 256.214C155.775 254.988 157.781 256.993 156.555 260.673ZM151.783 260.028L148.334 263.477C148.072 263.739 148.072 264.173 148.334 264.435C148.596 264.697 149.03 264.697 149.292 264.435L152.741 260.986C153.003 260.724 153.003 260.289 152.741 260.028C152.479 259.766 152.045 259.766 151.783 260.028Z" fill="#EAB308"/>
<rect x="218.423" y="241.296" width="84.0157" height="42.7199" rx="5.69598" fill="#F3E6FE"/>
<g clip-path="url(#clip2_1_6061)">
<path d="M242.627 264.079C242.901 264.08 243.165 264.185 243.364 264.374C243.562 264.564 243.68 264.822 243.693 265.096C243.707 265.37 243.614 265.639 243.434 265.846C243.255 266.053 243.003 266.184 242.73 266.21L242.627 266.215H233.813L234.839 267.241C235.033 267.434 235.145 267.695 235.152 267.969C235.16 268.243 235.061 268.509 234.877 268.713C234.694 268.916 234.439 269.041 234.165 269.062C233.892 269.083 233.621 268.998 233.409 268.824L233.328 268.751L230.602 266.024C229.908 265.33 230.359 264.161 231.307 264.084L231.407 264.079H242.627ZM239.024 256.561C239.211 256.374 239.461 256.263 239.725 256.249C239.989 256.235 240.248 256.32 240.453 256.487L240.535 256.56L243.261 259.287C243.954 259.98 243.503 261.15 242.555 261.227L242.456 261.231H231.235C230.961 261.231 230.697 261.126 230.499 260.936C230.3 260.747 230.182 260.489 230.169 260.215C230.156 259.941 230.249 259.672 230.428 259.465C230.607 259.257 230.86 259.127 231.133 259.1L231.235 259.095H240.049L239.024 258.07C238.824 257.87 238.711 257.598 238.711 257.315C238.711 257.032 238.824 256.761 239.024 256.561H239.024Z" fill="#8807F7"/>
</g>
<path d="M257.453 264.963V259.896H259.264V259.238H254.907V259.896H256.718V264.963H257.453ZM260.415 264.963V262.622C260.415 261.913 260.894 261.289 261.423 261.289C261.722 261.289 261.851 261.494 261.851 261.733C261.851 261.964 261.739 262.22 261.603 262.34H262.414C262.483 262.237 262.577 261.981 262.577 261.631C262.577 261.05 262.15 260.734 261.705 260.734C261.005 260.734 260.578 261.289 260.415 261.93V260.828H259.672V264.963H260.415ZM264.089 265.048C264.943 265.048 265.388 264.433 265.524 263.886V264.177C265.524 264.758 265.832 264.963 266.259 264.963H266.738V264.288H266.473C266.319 264.288 266.242 264.228 266.242 264.032V262.331C266.242 261.349 265.695 260.742 264.679 260.742C263.756 260.742 263.141 261.263 262.893 261.691L263.397 262.212C263.611 261.759 264.004 261.417 264.593 261.417C265.242 261.417 265.473 261.776 265.499 262.263L264.004 262.929C263.414 263.194 262.995 263.545 262.995 264.1C262.995 264.647 263.388 265.048 264.089 265.048ZM263.747 263.98C263.747 263.724 263.927 263.553 264.32 263.365L265.524 262.801V263.374C265.524 263.972 265.029 264.433 264.328 264.433C263.944 264.433 263.747 264.262 263.747 263.98ZM268.342 264.963V262.622C268.342 261.93 268.632 261.374 269.427 261.374C270.127 261.374 270.341 261.75 270.341 262.289V264.963H271.076V262.109C271.076 261.229 270.572 260.742 269.76 260.742C268.948 260.742 268.504 261.289 268.342 261.93V260.828H267.598V264.963H268.342ZM273.66 265.048C274.463 265.048 275.164 264.681 275.164 263.861C275.164 263.288 274.856 262.904 273.925 262.682L273.395 262.545C272.831 262.408 272.558 262.28 272.558 261.913C272.558 261.562 272.866 261.374 273.293 261.374C273.882 261.374 274.275 261.682 274.48 262.169L275.044 261.75C274.814 261.204 274.207 260.742 273.336 260.742C272.438 260.742 271.857 261.204 271.857 261.955C271.857 262.716 272.498 262.998 273.088 263.134L273.635 263.263C274.122 263.374 274.498 263.493 274.498 263.869C274.498 264.237 274.173 264.425 273.686 264.425C272.866 264.425 272.413 263.955 272.268 263.485L271.729 263.903C272.011 264.672 272.797 265.048 273.66 265.048ZM277.002 264.963V261.409H278.335V260.828H277.002V260.383C277.002 259.99 277.173 259.768 277.557 259.768C277.925 259.768 278.189 259.99 278.352 260.289L278.762 259.76C278.591 259.495 278.198 259.153 277.566 259.153C276.788 259.153 276.258 259.614 276.258 260.443V260.828H275.583V261.409H276.258V264.963H277.002ZM280.622 265.048C281.52 265.048 282.092 264.63 282.4 264.134L281.947 263.621C281.784 263.98 281.451 264.433 280.622 264.433C279.888 264.433 279.401 263.938 279.358 263.066H282.425C282.442 262.989 282.459 262.861 282.459 262.733C282.459 261.52 281.75 260.742 280.58 260.742C279.443 260.742 278.64 261.588 278.64 262.895C278.64 264.211 279.452 265.048 280.622 265.048ZM280.58 261.366C281.272 261.366 281.716 261.767 281.793 262.528H279.375C279.469 261.759 279.913 261.366 280.58 261.366ZM284.145 264.963V262.622C284.145 261.913 284.623 261.289 285.153 261.289C285.452 261.289 285.58 261.494 285.58 261.733C285.58 261.964 285.469 262.22 285.332 262.34H286.144C286.212 262.237 286.306 261.981 286.306 261.631C286.306 261.05 285.879 260.734 285.435 260.734C284.734 260.734 284.307 261.289 284.145 261.93V260.828H283.401V264.963H284.145Z" fill="#8807F7"/>
<rect x="43" y="310" width="254" height="199" fill="#D9D9D9"/>
<g clip-path="url(#clip3_1_6061)">
<path opacity="0.35" fill-rule="evenodd" clip-rule="evenodd" d="M288.067 34.3538C287.277 34.3538 286.965 34.4066 286.643 34.5576C286.371 34.6851 286.159 34.8701 286.014 35.1085C285.842 35.3909 285.781 35.6645 285.781 36.3563V39.4415C285.781 40.1333 285.842 40.4069 286.014 40.6893C286.159 40.9277 286.371 41.1127 286.643 41.2402C286.965 41.3912 287.277 41.4441 288.067 41.4441H299.942C300.731 41.4441 301.043 41.3912 301.366 41.2402C301.638 41.1127 301.849 40.9277 301.994 40.6893C302.167 40.4069 302.227 40.1333 302.227 39.4415V36.3563C302.227 35.6645 302.167 35.3909 301.994 35.1085C301.849 34.8701 301.638 34.6851 301.366 34.5576C301.043 34.4066 300.731 34.3538 299.942 34.3538H288.067Z" stroke="black" stroke-width="0.686158"/>
<path opacity="0.4" d="M303.402 36.5264V39.271C304.033 39.0385 304.442 38.4978 304.442 37.8987C304.442 37.2996 304.033 36.7588 303.402 36.5264Z" fill="black"/>
<path d="M288.294 35.3831H299.713C300.178 35.3831 300.347 35.4255 300.517 35.5053C300.688 35.585 300.821 35.702 300.912 35.8511C301.003 36.0002 301.052 36.1481 301.052 36.5559V39.2421C301.052 39.6499 301.003 39.7978 300.912 39.9469C300.821 40.0959 300.688 40.213 300.517 40.2927C300.347 40.3724 300.178 40.4149 299.713 40.4149H288.294C287.828 40.4149 287.659 40.3724 287.489 40.2927C287.319 40.213 287.186 40.0959 287.095 39.9469C287.004 39.7978 286.955 39.6499 286.955 39.2421V36.5559C286.955 36.1481 287.004 36.0002 287.095 35.8511C287.186 35.702 287.319 35.585 287.489 35.5053C287.659 35.4255 287.828 35.3831 288.294 35.3831Z" fill="black"/>
<path d="M275.471 35.5763C277.213 35.5764 278.889 36.1624 280.152 37.2133C280.247 37.2945 280.399 37.2934 280.492 37.211L281.401 36.408C281.449 36.3662 281.475 36.3096 281.475 36.2507C281.474 36.1918 281.447 36.1355 281.399 36.0941C278.085 33.3137 272.857 33.3137 269.542 36.0941C269.494 36.1354 269.467 36.1917 269.467 36.2506C269.466 36.3096 269.493 36.3662 269.54 36.408L270.449 37.211C270.543 37.2936 270.695 37.2946 270.79 37.2133C272.053 36.1624 273.729 35.5763 275.471 35.5763ZM275.471 38.1889C276.428 38.1889 277.352 38.5003 278.061 39.0628C278.157 39.1427 278.308 39.1409 278.402 39.0589L279.31 38.2559C279.357 38.2138 279.384 38.1566 279.383 38.0973C279.383 38.0379 279.355 37.9812 279.306 37.94C277.145 36.1804 273.799 36.1804 271.638 37.94C271.589 37.9812 271.561 38.0379 271.561 38.0973C271.56 38.1567 271.587 38.2138 271.635 38.2559L272.542 39.0589C272.636 39.1409 272.787 39.1427 272.883 39.0628C273.592 38.5007 274.515 38.1893 275.471 38.1889ZM277.216 40.1054C277.264 40.0637 277.291 40.0063 277.29 39.9467C277.288 39.8872 277.259 39.8308 277.209 39.7908C276.206 39.0482 274.737 39.0482 273.734 39.7908C273.683 39.8308 273.654 39.8871 273.652 39.9467C273.651 40.0062 273.678 40.0637 273.726 40.1054L275.297 41.4928C275.343 41.5336 275.406 41.5565 275.471 41.5565C275.537 41.5565 275.599 41.5336 275.645 41.4928L277.216 40.1054Z" fill="black"/>
<path d="M253.021 38.8136H253.805C254.237 38.8136 254.588 39.1209 254.588 39.4998V40.8721C254.588 41.2511 254.237 41.5583 253.805 41.5583H253.021C252.589 41.5583 252.238 41.2511 252.238 40.8721V39.4998C252.238 39.1209 252.589 38.8136 253.021 38.8136ZM256.676 37.4413H257.459C257.892 37.4413 258.242 37.7485 258.242 38.1275V40.8721C258.242 41.2511 257.892 41.5583 257.459 41.5583H256.676C256.244 41.5583 255.893 41.2511 255.893 40.8721V38.1275C255.893 37.7485 256.244 37.4413 256.676 37.4413ZM260.331 35.8403H261.114C261.546 35.8403 261.897 36.1475 261.897 36.5265V40.8721C261.897 41.2511 261.546 41.5583 261.114 41.5583H260.331C259.898 41.5583 259.548 41.2511 259.548 40.8721V36.5265C259.548 36.1475 259.898 35.8403 260.331 35.8403ZM263.985 34.2393H264.768C265.201 34.2393 265.552 34.5465 265.552 34.9254V40.8721C265.552 41.2511 265.201 41.5583 264.768 41.5583H263.985C263.553 41.5583 263.202 41.2511 263.202 40.8721V34.9254C263.202 34.5465 263.553 34.2393 263.985 34.2393Z" fill="black"/>
<path d="M48.1033 35.3866C48.3023 35.3043 48.5081 35.2116 48.7208 35.1087C48.9404 34.9989 49.1531 34.8823 49.3589 34.7588C49.5648 34.6284 49.7604 34.4946 49.9456 34.3574C50.1377 34.2133 50.3093 34.0623 50.4602 33.9045H51.5306V41.0371H49.9971V35.9012C49.7912 36.0384 49.5614 36.1654 49.3075 36.282C49.0536 36.3918 48.8066 36.4879 48.5664 36.5702L48.1033 35.3866ZM58.3376 35.7777C58.3376 36.0384 58.2861 36.2889 58.1832 36.529C58.0803 36.7692 57.9465 37.0025 57.7818 37.2289C57.6171 37.4485 57.4319 37.6612 57.226 37.8671C57.0202 38.0729 56.8178 38.2685 56.6188 38.4537C56.5158 38.5498 56.4026 38.6596 56.2791 38.7831C56.1625 38.8997 56.0493 39.0198 55.9395 39.1433C55.8297 39.2668 55.7302 39.3835 55.641 39.4933C55.5587 39.5962 55.5072 39.6819 55.4866 39.7506H58.5537V41.0371H53.7987C53.7849 40.9616 53.7781 40.8656 53.7781 40.7489C53.7781 40.6323 53.7781 40.5499 53.7781 40.5019C53.7781 40.1725 53.8295 39.8706 53.9325 39.5962C54.0422 39.3217 54.1829 39.0678 54.3544 38.8345C54.526 38.5944 54.7181 38.3714 54.9308 38.1655C55.1504 37.9597 55.3665 37.7538 55.5792 37.548C55.7439 37.3902 55.8983 37.2427 56.0424 37.1054C56.1865 36.9613 56.3134 36.8241 56.4232 36.6937C56.533 36.5565 56.6188 36.4227 56.6805 36.2923C56.7423 36.1551 56.7732 36.0179 56.7732 35.8806C56.7732 35.5787 56.6874 35.366 56.5158 35.2425C56.3443 35.119 56.1316 35.0572 55.8777 35.0572C55.6925 35.0572 55.5175 35.0881 55.3528 35.1499C55.195 35.2048 55.0475 35.2734 54.9102 35.3557C54.7799 35.4312 54.6667 35.5101 54.5706 35.5924C54.4745 35.6679 54.4025 35.7297 54.3544 35.7777L53.5928 34.7073C53.8947 34.426 54.2447 34.1961 54.6426 34.0177C55.0475 33.8324 55.4797 33.7398 55.9395 33.7398C56.358 33.7398 56.7183 33.7878 57.0202 33.8839C57.3221 33.98 57.5691 34.1172 57.7612 34.2956C57.9602 34.4671 58.1043 34.6799 58.1935 34.9337C58.2896 35.1807 58.3376 35.4621 58.3376 35.7777ZM61.3055 36.5702C61.3055 36.879 61.206 37.1157 61.007 37.2804C60.8149 37.4382 60.5953 37.5171 60.3483 37.5171C60.1013 37.5171 59.8783 37.4382 59.6793 37.2804C59.4872 37.1157 59.3911 36.879 59.3911 36.5702C59.3911 36.2614 59.4872 36.0282 59.6793 35.8703C59.8783 35.7057 60.1013 35.6233 60.3483 35.6233C60.5953 35.6233 60.8149 35.7057 61.007 35.8703C61.206 36.0282 61.3055 36.2614 61.3055 36.5702ZM61.3055 40.224C61.3055 40.5328 61.206 40.7695 61.007 40.9342C60.8149 41.092 60.5953 41.1709 60.3483 41.1709C60.1013 41.1709 59.8783 41.092 59.6793 40.9342C59.4872 40.7695 59.3911 40.5328 59.3911 40.224C59.3911 39.9152 59.4872 39.6819 59.6793 39.5241C59.8783 39.3595 60.1013 39.2771 60.3483 39.2771C60.5953 39.2771 60.8149 39.3595 61.007 39.5241C61.206 39.6819 61.3055 39.9152 61.3055 40.224ZM67.1114 37.4554C67.1114 38.6561 66.8815 39.579 66.4218 40.224C65.9689 40.8621 65.3411 41.1812 64.5383 41.1812C63.7355 41.1812 63.1042 40.8621 62.6445 40.224C62.1916 39.579 61.9652 38.6561 61.9652 37.4554C61.9652 36.8584 62.0235 36.3301 62.1401 35.8703C62.2637 35.4106 62.4386 35.0229 62.6651 34.7073C62.8915 34.3917 63.1625 34.1515 63.4782 33.9868C63.7938 33.8222 64.1472 33.7398 64.5383 33.7398C65.3411 33.7398 65.9689 34.0623 66.4218 34.7073C66.8815 35.3454 67.1114 36.2614 67.1114 37.4554ZM65.5469 37.4554C65.5469 37.0986 65.5298 36.7761 65.4955 36.4879C65.4612 36.1928 65.4063 35.939 65.3308 35.7262C65.2553 35.5135 65.1524 35.3489 65.022 35.2322C64.8916 35.1156 64.7304 35.0572 64.5383 35.0572C64.3461 35.0572 64.1849 35.1156 64.0545 35.2322C63.931 35.3489 63.8281 35.5135 63.7458 35.7262C63.6703 35.939 63.6154 36.1928 63.5811 36.4879C63.5468 36.7761 63.5296 37.0986 63.5296 37.4554C63.5296 37.8122 63.5468 38.1381 63.5811 38.4331C63.6154 38.7282 63.6703 38.9821 63.7458 39.1948C63.8281 39.4075 63.931 39.5722 64.0545 39.6888C64.1849 39.8055 64.3461 39.8638 64.5383 39.8638C64.7304 39.8638 64.8916 39.8055 65.022 39.6888C65.1524 39.5722 65.2553 39.4075 65.3308 39.1948C65.4063 38.9821 65.4612 38.7282 65.4955 38.4331C65.5298 38.1381 65.5469 37.8122 65.5469 37.4554ZM72.9611 37.4554C72.9611 38.6561 72.7313 39.579 72.2715 40.224C71.8187 40.8621 71.1908 41.1812 70.388 41.1812C69.5852 41.1812 68.954 40.8621 68.4942 40.224C68.0414 39.579 67.8149 38.6561 67.8149 37.4554C67.8149 36.8584 67.8733 36.3301 67.9899 35.8703C68.1134 35.4106 68.2884 35.0229 68.5148 34.7073C68.7413 34.3917 69.0123 34.1515 69.3279 33.9868C69.6436 33.8222 69.9969 33.7398 70.388 33.7398C71.1908 33.7398 71.8187 34.0623 72.2715 34.7073C72.7313 35.3454 72.9611 36.2614 72.9611 37.4554ZM71.3967 37.4554C71.3967 37.0986 71.3795 36.7761 71.3452 36.4879C71.3109 36.1928 71.256 35.939 71.1806 35.7262C71.1051 35.5135 71.0022 35.3489 70.8718 35.2322C70.7414 35.1156 70.5802 35.0572 70.388 35.0572C70.1959 35.0572 70.0347 35.1156 69.9043 35.2322C69.7808 35.3489 69.6779 35.5135 69.5955 35.7262C69.5201 35.939 69.4652 36.1928 69.4308 36.4879C69.3965 36.7761 69.3794 37.0986 69.3794 37.4554C69.3794 37.8122 69.3965 38.1381 69.4308 38.4331C69.4652 38.7282 69.5201 38.9821 69.5955 39.1948C69.6779 39.4075 69.7808 39.5722 69.9043 39.6888C70.0347 39.8055 70.1959 39.8638 70.388 39.8638C70.5802 39.8638 70.7414 39.8055 70.8718 39.6888C71.0022 39.5722 71.1051 39.4075 71.1806 39.1948C71.256 38.9821 71.3109 38.7282 71.3452 38.4331C71.3795 38.1381 71.3967 37.8122 71.3967 37.4554Z" fill="black"/>
</g>
</g>
<rect x="125.283" y="22.4004" width="91.2566" height="27.8047" rx="13.9024" fill="#3D0072"/>
<g opacity="0.5">
<circle cx="202.283" cy="35.9487" r="5.70354" transform="rotate(90 202.283 35.9487)" stroke="#A0A9BB" stroke-opacity="0.25" stroke-width="0.712942"/>
<circle cx="202.283" cy="35.9487" r="5.70354" transform="rotate(90 202.283 35.9487)" stroke="url(#paint8_linear_1_6061)" stroke-width="0.712942"/>
</g>
<g filter="url(#filter0_i_1_6061)">
<ellipse cx="202.279" cy="38.3783" rx="1.4799" ry="2.85177" transform="rotate(90 202.279 38.3783)" fill="url(#paint9_radial_1_6061)"/>
</g>
<g filter="url(#filter1_i_1_6061)">
<ellipse cx="1.4799" cy="2.85177" rx="1.4799" ry="2.85177" transform="matrix(0 -1 -1 0 205.133 35.1021)" fill="url(#paint10_radial_1_6061)"/>
</g>
<rect x="8.39648" y="72.7202" width="1.51249" height="10.5874" fill="#3D0072"/>
<rect x="327.535" y="72.7295" width="1.51249" height="10.5874" fill="#3D0072"/>
<rect x="270.057" y="4.66138" width="1.51249" height="10.5874" transform="rotate(90 270.057 4.66138)" fill="#3D0072"/>
<rect x="74.9512" y="4.6582" width="1.51249" height="10.5874" transform="rotate(90 74.9512 4.6582)" fill="#3D0072"/>
</g>
<defs>
<filter id="filter0_i_1_6061" x="199.427" y="36.8984" width="5.70361" height="2.95996" filterUnits="userSpaceOnUse" color-interpolation-filters="sRGB">
<feFlood flood-opacity="0" result="BackgroundImageFix"/>
<feBlend mode="normal" in="SourceGraphic" in2="BackgroundImageFix" result="shape"/>
<feColorMatrix in="SourceAlpha" type="matrix" values="0 0 0 0 0 0 0 0 0 0 0 0 0 0 0 0 0 0 127 0" result="hardAlpha"/>
<feOffset/>
<feGaussianBlur stdDeviation="0.356471"/>
<feComposite in2="hardAlpha" operator="arithmetic" k2="-1" k3="1"/>
<feColorMatrix type="matrix" values="0 0 0 0 0 0 0 0 0 0 0 0 0 0 0 0 0 0 0.5 0"/>
<feBlend mode="normal" in2="shape" result="effect1_innerShadow_1_6061"/>
</filter>
<filter id="filter1_i_1_6061" x="199.429" y="32.1423" width="5.70361" height="2.95972" filterUnits="userSpaceOnUse" color-interpolation-filters="sRGB">
<feFlood flood-opacity="0" result="BackgroundImageFix"/>
<feBlend mode="normal" in="SourceGraphic" in2="BackgroundImageFix" result="shape"/>
<feColorMatrix in="SourceAlpha" type="matrix" values="0 0 0 0 0 0 0 0 0 0 0 0 0 0 0 0 0 0 127 0" result="hardAlpha"/>
<feOffset/>
<feGaussianBlur stdDeviation="0.356471"/>
<feComposite in2="hardAlpha" operator="arithmetic" k2="-1" k3="1"/>
<feColorMatrix type="matrix" values="0 0 0 0 0 0 0 0 0 0 0 0 0 0 0 0 0 0 0.5 0"/>
<feBlend mode="normal" in2="shape" result="effect1_innerShadow_1_6061"/>
</filter>
<linearGradient id="paint0_linear_1_6061" x1="3.78341" y1="0" x2="3.78341" y2="77.1369" gradientUnits="userSpaceOnUse">
<stop stop-color="#3D0072"/>
<stop offset="1" stop-color="#80609B"/>
</linearGradient>
<linearGradient id="paint1_linear_1_6061" x1="3.78341" y1="0" x2="3.78341" y2="74.1119" gradientUnits="userSpaceOnUse">
<stop stop-color="#3D0072"/>
<stop offset="1" stop-color="#80609B"/>
</linearGradient>
<linearGradient id="paint2_linear_1_6061" x1="3.83725" y1="0" x2="3.83725" y2="51.2935" gradientUnits="userSpaceOnUse">
<stop stop-color="#3D0072"/>
<stop offset="1" stop-color="#80609B"/>
</linearGradient>
<linearGradient id="paint3_linear_1_6061" x1="3.83725" y1="0" x2="3.83725" y2="48.4173" gradientUnits="userSpaceOnUse">
<stop stop-color="#3D0072"/>
<stop offset="1" stop-color="#80609B"/>
</linearGradient>
<linearGradient id="paint4_linear_1_6061" x1="3.83725" y1="0" x2="3.83725" y2="50.3348" gradientUnits="userSpaceOnUse">
<stop stop-color="#3D0072"/>
<stop offset="1" stop-color="#80609B"/>
</linearGradient>
<linearGradient id="paint5_linear_1_6061" x1="3.83725" y1="0" x2="3.83725" y2="22.0514" gradientUnits="userSpaceOnUse">
<stop stop-color="#3D0072"/>
<stop offset="1" stop-color="#80609B"/>
</linearGradient>
<linearGradient id="paint6_linear_1_6061" x1="3.83725" y1="0" x2="3.83725" y2="19.1751" gradientUnits="userSpaceOnUse">
<stop stop-color="#3D0072"/>
<stop offset="1" stop-color="#80609B"/>
</linearGradient>
<linearGradient id="paint7_linear_1_6061" x1="329.052" y1="4.66407" x2="8.40433" y2="650.497" gradientUnits="userSpaceOnUse">
<stop stop-color="#EFEFEF"/>
<stop offset="1" stop-color="#3D0072"/>
</linearGradient>
<linearGradient id="paint8_linear_1_6061" x1="195.254" y1="34.7267" x2="200.724" y2="43.5284" gradientUnits="userSpaceOnUse">
<stop stop-color="#010005" stop-opacity="0.66"/>
<stop offset="1" stop-color="#2E2D31"/>
</linearGradient>
<radialGradient id="paint9_radial_1_6061" cx="0" cy="0" r="1" gradientUnits="userSpaceOnUse" gradientTransform="translate(201.533 38.3783) rotate(90) scale(3.65696 1.5035)">
<stop stop-color="#1F85DE"/>
<stop offset="0.257948" stop-color="#1B75C9"/>
<stop offset="1" stop-color="#000232"/>
</radialGradient>
<radialGradient id="paint10_radial_1_6061" cx="0" cy="0" r="1" gradientUnits="userSpaceOnUse" gradientTransform="translate(0.734117 2.85177) rotate(90) scale(3.65696 1.5035)">
<stop stop-color="#1F85DE"/>
<stop offset="0.257948" stop-color="#1B75C9"/>
<stop offset="1" stop-color="#000232"/>
</radialGradient>
<clipPath id="clip0_1_6061">
<rect width="330.896" height="499.798" fill="white" transform="translate(9.72461) rotate(1.11069)"/>
</clipPath>
<clipPath id="clip1_1_6061">
<rect x="22" y="18" width="293.676" height="927" rx="40" fill="white"/>
</clipPath>
<clipPath id="clip2_1_6061">
<rect width="17.0879" height="17.0879" fill="white" transform="translate(228.388 254.111)"/>
</clipPath>
<clipPath id="clip3_1_6061">
<rect width="293.676" height="38.4249" fill="white" transform="translate(22 18)"/>
</clipPath>
</defs>
</svg>
