<svg width="302" height="196" viewBox="0 0 302 196" fill="none" xmlns="http://www.w3.org/2000/svg">
<g filter="url(#filter0_b_1_11550)">
<rect x="0.660156" y="0.0473633" width="300.351" height="195.951" rx="11.9128" fill="#F97316"/>
</g>
<path d="M282.374 0.0473633H12.5698C5.99228 0.0473633 0.660156 5.3795 0.660156 11.957V184.997C0.660156 186.273 2.0777 187.04 3.14592 186.34L283.253 2.99739C284.589 2.12324 283.97 0.0473633 282.374 0.0473633Z" fill="#FA6803"/>
<path d="M256.377 99.9841C257.951 94.3517 257.325 88.3315 254.625 83.1437C251.926 77.9559 247.355 73.9886 241.838 72.0458L240.421 76.5336C244.742 78.106 248.315 81.2421 250.434 85.322C252.553 89.4018 253.065 94.1284 251.867 98.5671L256.377 99.9841Z" fill="white"/>
<path d="M244.869 114.162C246.64 113.247 248.283 112.102 249.755 110.756C252.547 108.197 254.665 104.989 255.923 101.416L251.435 99.999C250.386 102.906 248.619 105.5 246.298 107.541C243.978 109.581 241.179 111.002 238.162 111.671C235.145 112.34 232.008 112.235 229.042 111.366C226.077 110.497 223.379 108.892 221.2 106.701L217.731 109.881C221.201 113.404 225.71 115.721 230.594 116.492C235.479 117.263 240.482 116.446 244.869 114.162Z" fill="white"/>
<path opacity="0.7" d="M244.869 114.162C246.64 113.247 248.283 112.102 249.755 110.756C252.547 108.197 254.665 104.989 255.923 101.416L251.435 99.999C250.386 102.906 248.619 105.5 246.298 107.541C243.978 109.581 241.179 111.002 238.162 111.671C235.145 112.34 232.008 112.235 229.042 111.366C226.077 110.497 223.379 108.892 221.2 106.701L217.731 109.881C221.201 113.404 225.71 115.721 230.594 116.492C235.479 117.263 240.482 116.446 244.869 114.162Z" fill="white"/>
<path d="M220.166 105.592C217.647 102.607 216.148 98.8953 215.887 94.9985C215.626 91.1017 216.617 87.2234 218.715 83.9292C220.813 80.635 223.909 78.0971 227.55 76.6857C231.192 75.2742 235.189 75.0629 238.959 76.0826L240.376 71.5722C234.616 69.9591 228.455 70.6486 223.195 73.4949C217.934 76.3412 213.987 81.1212 212.186 86.8249C211.015 90.5608 210.813 94.533 211.598 98.3686C212.383 102.204 214.129 105.777 216.674 108.753L220.166 105.592Z" fill="white"/>
<path opacity="0.3" d="M220.166 105.592C217.647 102.607 216.148 98.8953 215.887 94.9985C215.626 91.1017 216.617 87.2234 218.715 83.9292C220.813 80.635 223.909 78.0971 227.55 76.6857C231.192 75.2742 235.189 75.0629 238.959 76.0826L240.376 71.5722C234.616 69.9591 228.455 70.6486 223.195 73.4949C217.934 76.3412 213.987 81.1212 212.186 86.8249C211.015 90.5608 210.813 94.533 211.598 98.3686C212.383 102.204 214.129 105.777 216.674 108.753L220.166 105.592Z" fill="#F97316"/>
<path d="M229.898 88.2119C230.429 87.6806 231.06 87.259 231.754 86.9714C232.448 86.6837 233.192 86.5356 233.943 86.5354C234.694 86.5352 235.438 86.683 236.132 86.9704C236.826 87.2577 237.457 87.679 237.988 88.2101C238.52 88.7412 238.941 89.3718 239.229 90.0658C239.517 90.7598 239.665 91.5037 239.665 92.255C239.665 93.0062 239.517 93.7502 239.23 94.4444C238.943 95.1385 238.521 95.7693 237.99 96.3006L233.946 100.345L229.898 96.3006C228.826 95.2279 228.223 93.7731 228.223 92.2563C228.223 90.7395 228.826 89.2847 229.898 88.2119Z" fill="white"/>
<path opacity="0.3" d="M229.898 88.2119C230.429 87.6806 231.06 87.259 231.754 86.9714C232.448 86.6837 233.192 86.5356 233.943 86.5354C234.694 86.5352 235.438 86.683 236.132 86.9704C236.826 87.2577 237.457 87.679 237.988 88.2101C238.52 88.7412 238.941 89.3718 239.229 90.0658C239.517 90.7598 239.665 91.5037 239.665 92.255C239.665 93.0062 239.517 93.7502 239.23 94.4444C238.943 95.1385 238.521 95.7693 237.99 96.3006L233.946 100.345L229.898 96.3006C228.826 95.2279 228.223 93.7731 228.223 92.2563C228.223 90.7395 228.826 89.2847 229.898 88.2119Z" fill="#F97316"/>
<path d="M233.714 101.544H234.165V103.348H233.714V101.544Z" fill="white"/>
<path opacity="0.3" d="M223.714 101.544H224.165V103.348H223.714V101.544Z" fill="#F97316"/>
<path d="M233.714 104.743H234.165V106.547H233.714V104.743Z" fill="white"/>
<path opacity="0.3" d="M223.714 104.743H224.165V106.547H223.714V104.743Z" fill="#F97316"/>
<path d="M249.551 119.341H264.86V174.774H249.551V119.341Z" fill="white"/>
<path opacity="0.7" d="M249.551 119.341H264.86V174.774H249.551V119.341Z" fill="white"/>
<path d="M242.207 119.341H249.556V174.774H242.207V119.341Z" fill="white"/>
<path opacity="0.5" d="M242.207 119.341H249.556V174.774H242.207V119.341Z" fill="white"/>
<path d="M221.235 139.743H221.626V148.373H221.235V139.743Z" fill="#F97316"/>
<path d="M221.235 134.669H221.626V138.138H221.235V134.669Z" fill="#F97316"/>
<path d="M210.372 153.726H225.681V174.774H210.372V153.726Z" fill="white"/>
<path opacity="0.5" d="M210.372 153.726H225.681V174.774H210.372V153.726Z" fill="#F97316"/>
<path d="M203.028 153.726H210.376V174.774H203.028V153.726Z" fill="white"/>
<path opacity="0.6" d="M203.028 153.726H210.376V174.774H203.028V153.726Z" fill="#F97316"/>
<path d="M230.328 128.54H245.587V175.118H230.328V128.54Z" fill="white"/>
<path opacity="0.7" d="M230.328 128.54H245.587V175.118H230.328V128.54Z" fill="#F97316"/>
<path d="M222.298 128.54H230.329V175.118H222.298V128.54Z" fill="white"/>
<path opacity="0.8" d="M222.298 128.54H230.329V175.118H222.298V128.54Z" fill="#F97316"/>
<path d="M36.5773 56.792V53.092H40.5773C43.6773 53.092 45.6773 51.312 45.6773 48.232C45.6773 45.152 43.6773 43.392 40.5773 43.392H33.5773V56.792H36.5773ZM40.2573 46.092C41.9173 46.092 42.6973 46.592 42.6973 48.232C42.6973 49.912 41.9173 50.392 40.2573 50.392H36.5773V46.092H40.2573ZM49.7414 56.792V50.992C49.7414 49.732 50.2214 49.112 51.5614 49.112C52.7814 49.112 53.2214 49.592 53.2214 50.692V51.732H56.2214V50.072C56.2214 48.112 55.3014 46.572 53.0614 46.572C51.0414 46.572 49.9814 47.812 49.7014 49.432H49.5214V46.772H46.7414V56.792H49.7414ZM62.6478 56.992C66.0678 56.992 68.3678 54.952 68.3678 51.792C68.3678 48.592 66.0678 46.572 62.6478 46.572C59.2278 46.572 56.9278 48.592 56.9278 51.792C56.9278 54.952 59.2278 56.992 62.6478 56.992ZM62.6478 54.332C60.6078 54.332 59.9078 53.552 59.9078 51.792C59.9078 50.032 60.6078 49.212 62.6478 49.212C64.6678 49.212 65.3878 50.032 65.3878 51.792C65.3878 53.552 64.6678 54.332 62.6478 54.332ZM75.4589 56.792V54.012H75.6389C75.9989 55.992 77.3189 56.992 79.6389 56.992C82.7589 56.992 84.4589 54.952 84.4589 51.792C84.4589 48.592 82.7789 46.572 79.7789 46.572C77.3989 46.572 76.1789 47.752 75.8389 49.432H75.6789V43.392H72.6789V56.792H75.4589ZM75.6789 51.852V51.692C75.6789 49.952 76.6789 49.312 78.6189 49.312C80.5389 49.312 81.4189 49.952 81.4189 51.792C81.4189 53.612 80.5389 54.252 78.5989 54.252C76.6989 54.252 75.6789 53.592 75.6789 51.852ZM89.8463 56.992C92.4863 56.992 93.7063 55.412 93.9663 53.732H94.1263V56.792H96.9263V46.772H93.9263V51.852C93.9263 53.552 93.2263 54.312 91.2663 54.312C89.3663 54.312 88.6863 53.632 88.6863 52.012V46.772H85.6863V53.012C85.6863 55.252 87.0263 56.992 89.8463 56.992ZM102.94 56.992C105.24 56.992 106.56 55.992 106.94 54.012H107.1V56.792H109.9V43.392H106.9V49.432H106.72C106.38 47.752 105.16 46.572 102.78 46.572C99.8002 46.572 98.1002 48.592 98.1002 51.792C98.1002 54.952 99.8202 56.992 102.94 56.992ZM101.14 51.792C101.14 49.952 102.04 49.312 103.96 49.312C105.88 49.312 106.9 49.952 106.9 51.692V51.852C106.9 53.592 105.86 54.252 103.96 54.252C102.04 54.252 101.14 53.612 101.14 51.792ZM115.888 55.772C118.128 55.772 119.308 54.752 119.628 53.272H119.788V55.532C119.788 57.492 119.208 57.892 117.288 57.892C115.248 57.892 114.808 57.552 114.808 56.432H111.808C111.808 58.952 113.848 60.392 117.088 60.392C120.668 60.392 122.788 58.832 122.788 55.332V46.772H119.988V49.192H119.828C119.508 47.452 118.048 46.572 116.008 46.572C113.008 46.572 111.188 48.372 111.188 51.172C111.188 53.992 112.908 55.772 115.888 55.772ZM114.208 51.172C114.208 49.692 115.048 49.172 116.968 49.172C118.828 49.172 119.788 49.692 119.788 51.052V51.272C119.788 52.652 118.848 53.192 116.928 53.192C115.048 53.192 114.208 52.652 114.208 51.172ZM129.698 56.992C132.878 56.992 134.998 55.472 134.998 53.292V53.072H131.998V53.272C131.998 54.132 131.378 54.592 129.598 54.592C127.658 54.592 126.938 53.932 126.858 52.392H135.018C135.058 52.052 135.098 51.792 135.098 51.432C135.098 48.292 132.918 46.572 129.638 46.572C126.338 46.572 124.078 48.592 124.078 51.792C124.078 55.352 126.358 56.992 129.698 56.992ZM129.578 48.912C131.338 48.912 132.138 49.492 132.218 50.812H126.898C127.038 49.512 127.798 48.912 129.578 48.912ZM143.43 56.792V54.092H141.63C140.57 54.092 140.19 53.832 140.19 52.832V49.252H143.43V46.772H140.19V44.832H137.19V46.772H135.61V49.252H137.19V53.172C137.19 55.692 138.61 56.792 140.95 56.792H143.43ZM147.554 45.752V43.392H144.554V45.752H147.554ZM147.554 56.792V46.772H144.554V56.792H147.554ZM152.124 56.792V51.732C152.124 50.032 152.804 49.272 154.704 49.272C156.544 49.272 157.204 49.952 157.204 51.552V56.792H160.204V50.552C160.204 48.332 158.904 46.572 156.164 46.572C153.544 46.572 152.344 48.172 152.084 49.852H151.904V46.772H149.124V56.792H152.124ZM166.122 55.772C168.362 55.772 169.542 54.752 169.862 53.272H170.022V55.532C170.022 57.492 169.442 57.892 167.522 57.892C165.482 57.892 165.042 57.552 165.042 56.432H162.042C162.042 58.952 164.082 60.392 167.322 60.392C170.902 60.392 173.022 58.832 173.022 55.332V46.772H170.222V49.192H170.062C169.742 47.452 168.282 46.572 166.242 46.572C163.242 46.572 161.422 48.372 161.422 51.172C161.422 53.992 163.142 55.772 166.122 55.772ZM164.442 51.172C164.442 49.692 165.282 49.172 167.202 49.172C169.062 49.172 170.022 49.692 170.022 51.052V51.272C170.022 52.652 169.082 53.192 167.162 53.192C165.282 53.192 164.442 52.652 164.442 51.172ZM37.9773 80.772C40.2173 80.772 41.3973 79.752 41.7173 78.272H41.8773V80.532C41.8773 82.492 41.2973 82.892 39.3773 82.892C37.3373 82.892 36.8973 82.552 36.8973 81.432H33.8973C33.8973 83.952 35.9373 85.392 39.1773 85.392C42.7573 85.392 44.8773 83.832 44.8773 80.332V71.772H42.0773V74.192H41.9173C41.5973 72.452 40.1373 71.572 38.0973 71.572C35.0973 71.572 33.2773 73.372 33.2773 76.172C33.2773 78.992 34.9973 80.772 37.9773 80.772ZM36.2973 76.172C36.2973 74.692 37.1373 74.172 39.0573 74.172C40.9173 74.172 41.8773 74.692 41.8773 76.052V76.272C41.8773 77.652 40.9373 78.192 39.0173 78.192C37.1373 78.192 36.2973 77.652 36.2973 76.172ZM50.608 81.992C53.248 81.992 54.468 80.412 54.728 78.732H54.888V81.792H57.688V71.772H54.688V76.852C54.688 78.552 53.988 79.312 52.028 79.312C50.128 79.312 49.448 78.632 49.448 77.012V71.772H46.448V78.012C46.448 80.252 47.788 81.992 50.608 81.992ZM62.2219 70.752V68.392H59.2219V70.752H62.2219ZM62.2219 81.792V71.772H59.2219V81.792H62.2219ZM68.2722 81.992C70.5722 81.992 71.8922 80.992 72.2722 79.012H72.4322V81.792H75.2322V68.392H72.2322V74.432H72.0522C71.7122 72.752 70.4922 71.572 68.1122 71.572C65.1322 71.572 63.4322 73.592 63.4322 76.792C63.4322 79.952 65.1522 81.992 68.2722 81.992ZM66.4722 76.792C66.4722 74.952 67.3722 74.312 69.2922 74.312C71.2122 74.312 72.2322 74.952 72.2322 76.692V76.852C72.2322 78.592 71.1922 79.252 69.2922 79.252C67.3722 79.252 66.4722 78.612 66.4722 76.792ZM82.1395 81.992C85.3195 81.992 87.4395 80.472 87.4395 78.292V78.072H84.4395V78.272C84.4395 79.132 83.8195 79.592 82.0395 79.592C80.0995 79.592 79.3795 78.932 79.2995 77.392H87.4595C87.4995 77.052 87.5395 76.792 87.5395 76.432C87.5395 73.292 85.3595 71.572 82.0795 71.572C78.7795 71.572 76.5195 73.592 76.5195 76.792C76.5195 80.352 78.7995 81.992 82.1395 81.992ZM82.0195 73.912C83.7795 73.912 84.5795 74.492 84.6595 75.812H79.3395C79.4795 74.512 80.2395 73.912 82.0195 73.912Z" fill="white"/>
<defs>
<filter id="filter0_b_1_11550" x="-237.596" y="-238.209" width="776.863" height="672.463" filterUnits="userSpaceOnUse" color-interpolation-filters="sRGB">
<feFlood flood-opacity="0" result="BackgroundImageFix"/>
<feGaussianBlur in="BackgroundImageFix" stdDeviation="119.128"/>
<feComposite in2="SourceAlpha" operator="in" result="effect1_backgroundBlur_1_11550"/>
<feBlend mode="normal" in="SourceGraphic" in2="effect1_backgroundBlur_1_11550" result="shape"/>
</filter>
</defs>
</svg>
