<svg width="325" height="196" viewBox="0 0 325 196" fill="none" xmlns="http://www.w3.org/2000/svg">
<g filter="url(#filter0_b_1_11583)">
<rect x="0.103516" y="0.0473633" width="300.351" height="195.951" rx="11.9128" fill="url(#paint0_linear_1_11583)" fill-opacity="0.9"/>
</g>
<path d="M281.817 0.0473633H12.0132C5.43564 0.0473633 0.103516 5.3795 0.103516 11.957V184.997C0.103516 186.273 1.52106 187.04 2.58928 186.34L282.697 2.99739C284.032 2.12324 283.413 0.0473633 281.817 0.0473633Z" fill="url(#paint1_linear_1_11583)"/>
<g filter="url(#filter1_i_1_11583)">
<path d="M210.242 154.949L203.335 159.109C203.03 159.304 202.711 159.387 202.378 159.359C202.046 159.331 201.754 159.22 201.505 159.026C201.255 158.832 201.061 158.59 200.922 158.299C200.784 158.007 200.756 157.681 200.839 157.32L202.67 149.457L196.554 144.173C196.277 143.924 196.103 143.639 196.035 143.32C195.965 143.001 195.985 142.69 196.096 142.385C196.207 142.079 196.374 141.83 196.595 141.636C196.817 141.441 197.122 141.317 197.511 141.261L205.582 140.554L208.702 133.148C208.841 132.816 209.056 132.566 209.348 132.4C209.639 132.233 209.937 132.15 210.242 132.15C210.547 132.15 210.845 132.233 211.137 132.4C211.428 132.566 211.642 132.816 211.781 133.148L214.901 140.554L222.972 141.261C223.361 141.317 223.666 141.441 223.888 141.636C224.11 141.83 224.276 142.079 224.387 142.385C224.498 142.69 224.519 143.001 224.45 143.32C224.38 143.639 224.207 143.924 223.929 144.173L217.814 149.457L219.644 157.32C219.727 157.681 219.7 158.007 219.561 158.299C219.422 158.59 219.228 158.832 218.978 159.026C218.729 159.22 218.438 159.331 218.105 159.359C217.772 159.387 217.453 159.304 217.148 159.109L210.242 154.949Z" fill="white"/>
<path d="M241.089 130.732L229.788 137.54C229.289 137.858 228.767 137.994 228.222 137.949C227.678 137.903 227.201 137.722 226.793 137.404C226.384 137.086 226.067 136.69 225.84 136.214C225.613 135.737 225.567 135.203 225.704 134.613L228.699 121.746L218.691 113.1C218.237 112.691 217.954 112.226 217.842 111.703C217.727 111.182 217.761 110.672 217.942 110.172C218.124 109.673 218.396 109.265 218.759 108.947C219.122 108.629 219.622 108.425 220.257 108.334L233.465 107.177L238.571 95.0587C238.797 94.5141 239.15 94.1056 239.627 93.8333C240.103 93.561 240.59 93.4248 241.089 93.4248C241.589 93.4248 242.077 93.561 242.555 93.8333C243.03 94.1056 243.381 94.5141 243.608 95.0587L248.714 107.177L261.922 108.334C262.557 108.425 263.056 108.629 263.42 108.947C263.783 109.265 264.055 109.673 264.236 110.172C264.418 110.672 264.452 111.182 264.34 111.703C264.226 112.226 263.941 112.691 263.488 113.1L253.48 121.746L256.475 134.613C256.612 135.203 256.566 135.737 256.339 136.214C256.112 136.69 255.795 137.086 255.386 137.404C254.978 137.722 254.501 137.903 253.956 137.949C253.412 137.994 252.89 137.858 252.391 137.54L241.089 130.732Z" fill="white"/>
<path d="M239.249 165.842L232.343 170.002C232.038 170.196 231.719 170.28 231.386 170.252C231.053 170.224 230.762 170.113 230.513 169.919C230.263 169.725 230.069 169.482 229.93 169.192C229.791 168.9 229.764 168.574 229.847 168.213L231.677 160.35L225.562 155.066C225.284 154.817 225.111 154.532 225.042 154.213C224.973 153.894 224.993 153.582 225.104 153.277C225.215 152.972 225.381 152.723 225.603 152.528C225.825 152.334 226.13 152.209 226.519 152.154L234.59 151.447L237.71 144.041C237.849 143.708 238.064 143.459 238.356 143.292C238.646 143.126 238.944 143.043 239.249 143.043C239.555 143.043 239.853 143.126 240.145 143.292C240.435 143.459 240.65 143.708 240.789 144.041L243.909 151.447L251.98 152.154C252.369 152.209 252.674 152.334 252.896 152.528C253.117 152.723 253.284 152.972 253.395 153.277C253.506 153.582 253.527 153.894 253.458 154.213C253.388 154.532 253.215 154.817 252.937 155.066L246.821 160.35L248.652 168.213C248.735 168.574 248.707 168.9 248.569 169.192C248.43 169.482 248.236 169.725 247.986 169.919C247.737 170.113 247.445 170.224 247.113 170.252C246.78 170.28 246.461 170.196 246.156 170.002L239.249 165.842Z" fill="white"/>
</g>
<path d="M39.122 57.2C42.022 57.2 43.422 55.88 43.882 54.12H44.042V57H46.822V49.92H39.282V52.14H43.822C43.742 53.84 42.802 54.32 39.722 54.32C36.782 54.32 35.682 53.28 35.682 50.3C35.682 47.32 36.822 46.28 39.862 46.28C42.442 46.28 43.462 47.02 43.462 48.58V48.74H46.802V48.58C46.802 45.36 44.142 43.4 39.942 43.4C35.342 43.4 32.502 46.12 32.502 50.3C32.502 54.48 35.022 57.2 39.122 57.2ZM53.6102 57.2C56.7902 57.2 58.9102 55.68 58.9102 53.5V53.28H55.9102V53.48C55.9102 54.34 55.2902 54.8 53.5102 54.8C51.5702 54.8 50.8502 54.14 50.7702 52.6H58.9302C58.9702 52.26 59.0102 52 59.0102 51.64C59.0102 48.5 56.8302 46.78 53.5502 46.78C50.2502 46.78 47.9902 48.8 47.9902 52C47.9902 55.56 50.2702 57.2 53.6102 57.2ZM53.4902 49.12C55.2502 49.12 56.0502 49.7 56.1302 51.02H50.8102C50.9502 49.72 51.7102 49.12 53.4902 49.12ZM67.3424 57V54.3H65.5424C64.4824 54.3 64.1024 54.04 64.1024 53.04V49.46H67.3424V46.98H64.1024V45.04H61.1024V46.98H59.5224V49.46H61.1024V53.38C61.1024 55.9 62.5224 57 64.8624 57H67.3424ZM73.472 60.4C75.992 60.4 77.332 59.82 78.292 57.72L83.252 46.98H79.912L78.012 51.54L77.212 53.92H77.012L76.172 51.56L74.052 46.98H70.652L75.552 57.04C75.352 57.48 75.032 57.68 74.292 57.68H71.832V60.4H73.472ZM89.3138 57.2C92.7338 57.2 95.0338 55.16 95.0338 52C95.0338 48.8 92.7338 46.78 89.3138 46.78C85.8938 46.78 83.5938 48.8 83.5938 52C83.5938 55.16 85.8938 57.2 89.3138 57.2ZM89.3138 54.54C87.2738 54.54 86.5738 53.76 86.5738 52C86.5738 50.24 87.2738 49.42 89.3138 49.42C91.3338 49.42 92.0538 50.24 92.0538 52C92.0538 53.76 91.3338 54.54 89.3138 54.54ZM100.399 57.2C103.039 57.2 104.259 55.62 104.519 53.94H104.679V57H107.479V46.98H104.479V52.06C104.479 53.76 103.779 54.52 101.819 54.52C99.919 54.52 99.239 53.84 99.239 52.22V46.98H96.239V53.22C96.239 55.46 97.579 57.2 100.399 57.2ZM112.013 57V51.2C112.013 49.94 112.493 49.32 113.833 49.32C115.053 49.32 115.493 49.8 115.493 50.9V51.94H118.493V50.28C118.493 48.32 117.573 46.78 115.333 46.78C113.313 46.78 112.253 48.02 111.973 49.64H111.793V46.98H109.013V57H112.013ZM36.942 82.2C39.582 82.2 40.802 80.62 41.062 78.94H41.222V82H44.022V71.98H41.022V77.06C41.022 78.76 40.322 79.52 38.362 79.52C36.462 79.52 35.782 78.84 35.782 77.22V71.98H32.782V78.22C32.782 80.46 34.122 82.2 36.942 82.2ZM48.5559 82V76.94C48.5559 75.24 49.2359 74.48 51.1359 74.48C52.9759 74.48 53.6359 75.16 53.6359 76.76V82H56.6359V75.76C56.6359 73.54 55.3359 71.78 52.5959 71.78C49.9759 71.78 48.7759 73.38 48.5159 75.06H48.3359V71.98H45.5559V82H48.5559ZM61.1535 70.96V68.6H58.1535V70.96H61.1535ZM61.1535 82V71.98H58.1535V82H61.1535ZM67.0638 82.2C69.3838 82.2 70.6638 81.06 71.0038 79.3H71.1638V85.4H74.1638V71.98H71.3638V74.72H71.1638C70.8038 72.8 69.5238 71.78 67.1638 71.78C64.0838 71.78 62.3638 73.82 62.3638 77C62.3638 80.18 64.0638 82.2 67.0638 82.2ZM65.4038 77C65.4038 75.16 66.3038 74.54 68.2238 74.54C70.1438 74.54 71.1638 75.2 71.1638 76.98V77.14C71.1638 78.86 70.1238 79.46 68.2238 79.46C66.3038 79.46 65.4038 78.82 65.4038 77ZM79.8912 82.2C82.5312 82.2 83.7512 80.62 84.0112 78.94H84.1712V82H86.9712V71.98H83.9712V77.06C83.9712 78.76 83.2712 79.52 81.3112 79.52C79.4112 79.52 78.7312 78.84 78.7312 77.22V71.98H75.7312V78.22C75.7312 80.46 77.0712 82.2 79.8912 82.2ZM93.8251 82.2C97.0051 82.2 99.1251 80.68 99.1251 78.5V78.28H96.1251V78.48C96.1251 79.34 95.5051 79.8 93.7251 79.8C91.7851 79.8 91.0651 79.14 90.9851 77.6H99.1451C99.1851 77.26 99.2251 77 99.2251 76.64C99.2251 73.5 97.0451 71.78 93.7651 71.78C90.4651 71.78 88.2051 73.8 88.2051 77C88.2051 80.56 90.4851 82.2 93.8251 82.2ZM93.7051 74.12C95.4651 74.12 96.2651 74.7 96.3451 76.02H91.0251C91.1651 74.72 91.9251 74.12 93.7051 74.12ZM109.663 82.2C113.923 82.2 115.623 80.24 115.623 78.06C115.623 76.22 114.543 74.76 111.543 74.28L107.783 73.68C106.663 73.48 106.223 73.2 106.223 72.42C106.223 71.56 106.883 71.14 109.043 71.14C111.703 71.14 112.363 71.68 112.363 72.96V73.24H115.383V73.12C115.383 70.3 113.463 68.4 109.343 68.4C104.843 68.4 103.203 70.52 103.203 72.54C103.203 74.72 104.623 75.92 107.023 76.3L110.783 76.84C112.163 77.08 112.623 77.38 112.623 78.2C112.623 79.1 112.063 79.46 109.663 79.46C106.943 79.46 106.323 78.96 106.323 77.72V77.36H103.323V77.48C103.323 80.6 105.603 82.2 109.663 82.2ZM119.925 82.2C122.145 82.2 123.545 81.26 124.005 79.7H124.165V82H126.965V76.12C126.965 73.5 125.385 71.78 122.045 71.78C118.745 71.78 116.665 73.5 116.665 75.98V76.04H119.685V75.96C119.685 74.82 120.305 74.42 121.825 74.42C123.425 74.42 124.005 74.78 124.005 76.08V76.46L119.705 76.9C117.565 77.12 116.465 78.04 116.465 79.52C116.465 81.2 117.765 82.2 119.925 82.2ZM119.485 79.32C119.485 78.84 119.805 78.64 120.525 78.58L124.005 78.18C123.925 79.6 122.825 80.08 120.785 80.08C119.905 80.08 119.485 79.86 119.485 79.32ZM131.486 82V76.94C131.486 75.24 132.166 74.48 134.066 74.48C135.906 74.48 136.566 75.16 136.566 76.76V82H139.566V75.76C139.566 73.54 138.266 71.78 135.526 71.78C132.906 71.78 131.706 73.38 131.446 75.06H131.266V71.98H128.486V82H131.486ZM147.169 82V68.6H144.169V82H147.169ZM155.359 82C159.659 82 162.379 79.5 162.379 75.3C162.379 71.1 159.659 68.6 155.359 68.6H148.899V82H155.359ZM155.359 71.3C158.079 71.3 159.179 72.08 159.179 75.3C159.179 78.52 158.079 79.3 155.359 79.3H151.899V71.3H155.359Z" fill="white"/>
<defs>
<filter id="filter0_b_1_11583" x="-238.153" y="-238.209" width="776.863" height="672.463" filterUnits="userSpaceOnUse" color-interpolation-filters="sRGB">
<feFlood flood-opacity="0" result="BackgroundImageFix"/>
<feGaussianBlur in="BackgroundImageFix" stdDeviation="119.128"/>
<feComposite in2="SourceAlpha" operator="in" result="effect1_backgroundBlur_1_11583"/>
<feBlend mode="normal" in="SourceGraphic" in2="effect1_backgroundBlur_1_11583" result="shape"/>
</filter>
<filter id="filter1_i_1_11583" x="143.041" y="17.923" width="181.545" height="177.417" filterUnits="userSpaceOnUse" color-interpolation-filters="sRGB">
<feFlood flood-opacity="0" result="BackgroundImageFix"/>
<feBlend mode="normal" in="SourceGraphic" in2="BackgroundImageFix" result="shape"/>
<feColorMatrix in="SourceAlpha" type="matrix" values="0 0 0 0 0 0 0 0 0 0 0 0 0 0 0 0 0 0 127 0" result="hardAlpha"/>
<feOffset dy="-57.5971"/>
<feGaussianBlur stdDeviation="28.7985"/>
<feComposite in2="hardAlpha" operator="arithmetic" k2="-1" k3="1"/>
<feColorMatrix type="matrix" values="0 0 0 0 0.791667 0 0 0 0 0.791667 0 0 0 0 0.791667 0 0 0 0.25 0"/>
<feBlend mode="normal" in2="shape" result="effect1_innerShadow_1_11583"/>
</filter>
<linearGradient id="paint0_linear_1_11583" x1="20.407" y1="129.628" x2="335.608" y2="128.076" gradientUnits="userSpaceOnUse">
<stop stop-color="#8807F7"/>
<stop offset="0.40625" stop-color="#520BB3"/>
<stop offset="1" stop-color="#EA00BE"/>
</linearGradient>
<linearGradient id="paint1_linear_1_11583" x1="28.2112" y1="126.532" x2="321.096" y2="122.034" gradientUnits="userSpaceOnUse">
<stop stop-color="#8807F7"/>
<stop offset="0.40625" stop-color="#520BB3"/>
<stop offset="1" stop-color="#EA00BE"/>
</linearGradient>
</defs>
</svg>
