<svg width="132" height="35" viewBox="0 0 132 35" fill="none" xmlns="http://www.w3.org/2000/svg">
<g filter="url(#filter0_b_1_9100)">
<rect y="0.414673" width="34" height="34" rx="17" fill="#F8F0FF"/>
</g>
<g clip-path="url(#clip0_1_9100)">
<path d="M18.6099 26.0231V18.1673H21.2468L21.6416 15.1058H18.6099V13.1511C18.6099 12.2647 18.8561 11.6606 20.1273 11.6606L21.7485 11.6599V8.92165C21.468 8.88448 20.5057 8.80115 19.3861 8.80115C17.0487 8.80115 15.4484 10.2278 15.4484 12.848V15.1059H12.8047V18.1674H15.4483V26.0232L18.6099 26.0231Z" fill="#8807F7"/>
</g>
<g filter="url(#filter1_b_1_9100)">
<rect x="49" y="0.414673" width="34" height="34" rx="17" fill="#F8F0FF"/>
</g>
<g clip-path="url(#clip1_1_9100)">
<path d="M63.8631 16.9731C63.8631 15.5506 65.016 14.3972 66.4385 14.3972C67.8611 14.3972 69.0146 15.5506 69.0146 16.9731C69.0146 18.3956 67.8611 19.5491 66.4385 19.5491C65.016 19.5491 63.8631 18.3956 63.8631 16.9731ZM62.4705 16.9731C62.4705 19.1646 64.247 20.941 66.4385 20.941C68.6301 20.941 70.4066 19.1646 70.4066 16.9731C70.4066 14.7817 68.6301 13.0053 66.4385 13.0053C64.247 13.0053 62.4705 14.7817 62.4705 16.9731ZM69.6363 12.8479C69.6361 13.3601 70.0511 13.7754 70.5633 13.7756C71.0754 13.7758 71.4907 13.3608 71.491 12.8487C71.4912 12.3366 71.0762 11.9212 70.564 11.921C70.0521 11.9213 69.6368 12.3361 69.6363 12.8479ZM63.3166 23.263C62.5632 23.2286 62.1537 23.1032 61.8815 22.9971C61.5208 22.8567 61.2633 22.6894 60.9927 22.4191C60.722 22.1489 60.5545 21.8917 60.4147 21.5309C60.3086 21.2589 60.1831 20.8493 60.1488 20.0959C60.1114 19.2814 60.1039 19.0367 60.1039 16.9732C60.1039 14.9096 60.112 14.6656 60.1488 13.8504C60.1831 13.0971 60.3096 12.6883 60.4147 12.4155C60.5551 12.0547 60.7224 11.7973 60.9927 11.5266C61.263 11.256 61.5201 11.0885 61.8815 10.9486C62.1535 10.8426 62.5632 10.7171 63.3166 10.6828C64.1311 10.6454 64.3758 10.6379 66.4385 10.6379C68.5012 10.6379 68.7462 10.646 69.5614 10.6828C70.3148 10.7171 70.7236 10.8435 70.9964 10.9486C71.3572 11.0885 71.6147 11.2564 71.8853 11.5266C72.156 11.7969 72.3229 12.0547 72.4633 12.4155C72.5694 12.6875 72.6949 13.0971 72.7292 13.8504C72.7666 14.6656 72.7741 14.9096 72.7741 16.9732C72.7741 19.0367 72.7666 19.2807 72.7292 20.0959C72.6948 20.8493 72.5687 21.2588 72.4633 21.5309C72.3229 21.8917 72.1556 22.1491 71.8853 22.4191C71.615 22.6892 71.3572 22.8567 70.9964 22.9971C70.7244 23.1032 70.3148 23.2287 69.5614 23.263C68.7469 23.3004 68.5022 23.3079 66.4385 23.3079C64.3749 23.3079 64.1309 23.3004 63.3166 23.263ZM63.2526 9.29265C62.4299 9.33011 61.8678 9.46054 61.3769 9.65156C60.8685 9.84882 60.4381 10.1135 60.008 10.5429C59.5779 10.9722 59.3139 11.4033 59.1167 11.9117C58.9256 12.4029 58.7952 12.9647 58.7577 13.7873C58.7197 14.6112 58.7109 14.8746 58.7109 16.9731C58.7109 19.0716 58.7197 19.335 58.7577 20.1589C58.7952 20.9816 58.9256 21.5434 59.1167 22.0346C59.3139 22.5426 59.578 22.9742 60.008 23.4034C60.438 23.8326 60.8685 24.0969 61.3769 24.2947C61.8687 24.4857 62.4299 24.6162 63.2526 24.6536C64.077 24.6911 64.34 24.7004 66.4385 24.7004C68.5371 24.7004 68.8005 24.6917 69.6245 24.6536C70.4472 24.6162 71.0089 24.4857 71.5002 24.2947C72.0083 24.0969 72.439 23.8328 72.8691 23.4034C73.2991 22.974 73.5626 22.5426 73.7604 22.0346C73.9514 21.5434 74.0825 20.9816 74.1193 20.1589C74.1568 19.3344 74.1655 19.0716 74.1655 16.9731C74.1655 14.8746 74.1568 14.6112 74.1193 13.7873C74.0819 12.9647 73.9514 12.4026 73.7604 11.9117C73.5626 11.4036 73.2985 10.9729 72.8691 10.5429C72.4397 10.1128 72.0083 9.84882 71.5008 9.65156C71.0089 9.46054 70.4471 9.32949 69.6251 9.29265C68.8011 9.25518 68.5377 9.24585 66.4391 9.24585C64.3406 9.24585 64.077 9.25457 63.2526 9.29265Z" fill="#8807F7"/>
</g>
<g filter="url(#filter2_b_1_9100)">
<rect x="98" y="0.414673" width="34" height="34" rx="17" fill="#F8F0FF"/>
</g>
<g clip-path="url(#clip2_1_9100)">
<path d="M124.23 12.1378C123.63 12.4038 122.986 12.5837 122.309 12.6645C123 12.2507 123.529 11.595 123.779 10.8146C123.123 11.2045 122.405 11.479 121.655 11.6261C121.046 10.9763 120.177 10.5706 119.215 10.5706C117.369 10.5706 115.871 12.0672 115.871 13.9143C115.871 14.1761 115.901 14.4314 115.958 14.6766C113.178 14.5369 110.715 13.2057 109.066 11.1829C108.778 11.6769 108.613 12.2513 108.613 12.8642C108.613 14.0241 109.203 15.0475 110.1 15.647C109.569 15.6306 109.05 15.4872 108.585 15.229V15.2712C108.585 16.8915 109.738 18.2425 111.268 18.5497C110.987 18.6267 110.692 18.667 110.387 18.667C110.171 18.667 109.962 18.6466 109.757 18.6081C110.183 19.9361 111.418 20.9028 112.88 20.9301C111.736 21.8272 110.294 22.3619 108.728 22.3619C108.458 22.3619 108.191 22.3459 107.93 22.3143C109.41 23.2633 111.167 23.8173 113.055 23.8173C119.206 23.8173 122.569 18.7221 122.569 14.3035C122.569 14.1585 122.566 14.0145 122.559 13.871C123.214 13.397 123.78 12.8101 124.23 12.1378Z" fill="#8807F7"/>
</g>
<defs>
<filter id="filter0_b_1_9100" x="-176.624" y="-176.209" width="387.247" height="387.247" filterUnits="userSpaceOnUse" color-interpolation-filters="sRGB">
<feFlood flood-opacity="0" result="BackgroundImageFix"/>
<feGaussianBlur in="BackgroundImageFix" stdDeviation="88.3118"/>
<feComposite in2="SourceAlpha" operator="in" result="effect1_backgroundBlur_1_9100"/>
<feBlend mode="normal" in="SourceGraphic" in2="effect1_backgroundBlur_1_9100" result="shape"/>
</filter>
<filter id="filter1_b_1_9100" x="-127.624" y="-176.209" width="387.247" height="387.247" filterUnits="userSpaceOnUse" color-interpolation-filters="sRGB">
<feFlood flood-opacity="0" result="BackgroundImageFix"/>
<feGaussianBlur in="BackgroundImageFix" stdDeviation="88.3118"/>
<feComposite in2="SourceAlpha" operator="in" result="effect1_backgroundBlur_1_9100"/>
<feBlend mode="normal" in="SourceGraphic" in2="effect1_backgroundBlur_1_9100" result="shape"/>
</filter>
<filter id="filter2_b_1_9100" x="-78.6236" y="-176.209" width="387.247" height="387.247" filterUnits="userSpaceOnUse" color-interpolation-filters="sRGB">
<feFlood flood-opacity="0" result="BackgroundImageFix"/>
<feGaussianBlur in="BackgroundImageFix" stdDeviation="88.3118"/>
<feComposite in2="SourceAlpha" operator="in" result="effect1_backgroundBlur_1_9100"/>
<feBlend mode="normal" in="SourceGraphic" in2="effect1_backgroundBlur_1_9100" result="shape"/>
</filter>
<clipPath id="clip0_1_9100">
<rect width="8.94378" height="17.2261" fill="white" transform="translate(12.8047 8.79907)"/>
</clipPath>
<clipPath id="clip1_1_9100">
<rect width="15.4546" height="15.4546" fill="white" transform="translate(58.7188 9.24585)"/>
</clipPath>
<clipPath id="clip2_1_9100">
<rect width="16.5585" height="13.2468" fill="white" transform="translate(107.93 10.5706)"/>
</clipPath>
</defs>
</svg>
