<svg width="88" height="23" viewBox="0 0 88 23" fill="none" xmlns="http://www.w3.org/2000/svg">
<g filter="url(#filter0_b_1_14617)">
<rect width="22.6667" height="22.6667" rx="11.3333" fill="#F0FDF4"/>
</g>
<g clip-path="url(#clip0_1_14617)">
<path d="M12.4092 17.0721V11.8349H14.1671L14.4303 9.7939H12.4092V8.49077C12.4092 7.89986 12.5733 7.49712 13.4208 7.49712L14.5016 7.49662V5.67116C14.3146 5.64637 13.673 5.59082 12.9267 5.59082C11.3684 5.59082 10.3015 6.54195 10.3015 8.28874V9.79396H8.53906V11.835H10.3015V17.0722L12.4092 17.0721Z" fill="#22C55E"/>
</g>
<g filter="url(#filter1_b_1_14617)">
<rect x="32.667" width="22.6667" height="22.6667" rx="11.3333" fill="#F0FDF4"/>
</g>
<g clip-path="url(#clip1_1_14617)">
<path d="M42.5783 11.039C42.5783 10.0906 43.3469 9.32166 44.2953 9.32166C45.2436 9.32166 46.0127 10.0906 46.0127 11.039C46.0127 11.9873 45.2436 12.7563 44.2953 12.7563C43.3469 12.7563 42.5783 11.9873 42.5783 11.039ZM41.6499 11.039C41.6499 12.4999 42.8342 13.6842 44.2953 13.6842C45.7563 13.6842 46.9406 12.4999 46.9406 11.039C46.9406 9.578 45.7563 8.39373 44.2953 8.39373C42.8342 8.39373 41.6499 9.578 41.6499 11.039ZM46.4271 8.28884C46.427 8.63025 46.7037 8.90713 47.0451 8.90727C47.3865 8.90741 47.6634 8.63075 47.6636 8.28934C47.6637 7.94792 47.387 7.67104 47.0456 7.67091C46.7043 7.67107 46.4274 7.94759 46.4271 8.28884ZM42.214 15.2322C41.7117 15.2093 41.4387 15.1256 41.2573 15.055C41.0168 14.9613 40.8451 14.8498 40.6647 14.6696C40.4843 14.4895 40.3726 14.318 40.2794 14.0775C40.2086 13.8962 40.125 13.6231 40.1021 13.1208C40.0772 12.5778 40.0722 12.4147 40.0722 11.039C40.0722 9.66331 40.0776 9.50064 40.1021 8.95718C40.125 8.45493 40.2093 8.18239 40.2794 8.00052C40.373 7.76001 40.4845 7.5884 40.6647 7.40797C40.8449 7.22755 41.0164 7.11586 41.2573 7.02264C41.4386 6.95192 41.7117 6.86826 42.214 6.84543C42.757 6.82045 42.9201 6.81547 44.2953 6.81547C45.6704 6.81547 45.8337 6.82086 46.3772 6.84543C46.8795 6.8683 47.152 6.95258 47.3339 7.02264C47.5744 7.11586 47.746 7.22779 47.9265 7.40797C48.1069 7.58815 48.2182 7.76001 48.3118 8.00052C48.3825 8.18185 48.4662 8.45493 48.489 8.95718C48.514 9.50064 48.519 9.66331 48.519 11.039C48.519 12.4147 48.514 12.5774 48.489 13.1208C48.4662 13.6231 48.3821 13.8961 48.3118 14.0775C48.2182 14.318 48.1066 14.4896 47.9265 14.6696C47.7463 14.8496 47.5744 14.9613 47.3339 15.055C47.1525 15.1257 46.8795 15.2093 46.3772 15.2322C45.8342 15.2572 45.671 15.2621 44.2953 15.2621C42.9195 15.2621 42.7568 15.2572 42.214 15.2322ZM42.1713 5.91865C41.6229 5.94362 41.2481 6.03058 40.9209 6.15793C40.5819 6.28943 40.295 6.46586 40.0083 6.75212C39.7215 7.03838 39.5456 7.32575 39.414 7.66468C39.2867 7.99215 39.1997 8.36669 39.1748 8.9151C39.1494 9.46438 39.1436 9.63998 39.1436 11.039C39.1436 12.438 39.1494 12.6136 39.1748 13.1628C39.1997 13.7113 39.2867 14.0858 39.414 14.4133C39.5456 14.752 39.7216 15.0397 40.0083 15.3258C40.2949 15.6119 40.5819 15.7881 40.9209 15.92C41.2488 16.0474 41.6229 16.1343 42.1713 16.1593C42.7209 16.1843 42.8962 16.1905 44.2953 16.1905C45.6943 16.1905 45.8699 16.1847 46.4192 16.1593C46.9677 16.1343 47.3422 16.0474 47.6697 15.92C48.0084 15.7881 48.2956 15.6121 48.5823 15.3258C48.869 15.0396 49.0446 14.752 49.1765 14.4133C49.3039 14.0858 49.3912 13.7112 49.4158 13.1628C49.4408 12.6131 49.4466 12.438 49.4466 11.039C49.4466 9.63998 49.4408 9.46438 49.4158 8.9151C49.3908 8.36665 49.3039 7.99195 49.1765 7.66468C49.0446 7.32596 48.8686 7.03884 48.5823 6.75212C48.296 6.46541 48.0084 6.28943 47.6701 6.15793C47.3422 6.03058 46.9677 5.94321 46.4196 5.91865C45.8703 5.89367 45.6947 5.88745 44.2957 5.88745C42.8966 5.88745 42.7209 5.89326 42.1713 5.91865Z" fill="#22C55E"/>
</g>
<g filter="url(#filter2_b_1_14617)">
<rect x="65.333" width="22.6667" height="22.6667" rx="11.3333" fill="#F0FDF4"/>
</g>
<g clip-path="url(#clip2_1_14617)">
<path d="M82.8168 7.81531C82.4171 7.99267 81.9878 8.11257 81.5364 8.16646C81.9971 7.89061 82.35 7.45348 82.5167 6.93322C82.0791 7.19313 81.6001 7.3761 81.1007 7.4742C80.6943 7.04098 80.1147 6.77051 79.4735 6.77051C78.2428 6.77051 77.2447 7.76824 77.2447 8.99969C77.2447 9.17418 77.2643 9.3444 77.3021 9.50784C75.4494 9.41473 73.8068 8.52726 72.7074 7.17875C72.5154 7.50809 72.4055 7.89101 72.4055 8.29957C72.4055 9.07287 72.7991 9.75515 73.3972 10.1548C73.0432 10.1438 72.6969 10.0483 72.3873 9.87611V9.90428C72.3873 10.9844 73.1556 11.8851 74.1755 12.09C73.9881 12.1413 73.7915 12.1681 73.5881 12.1681C73.4443 12.1681 73.3048 12.1545 73.1685 12.1289C73.4522 13.0142 74.2754 13.6586 75.2506 13.6769C74.4877 14.2749 73.5264 14.6314 72.4823 14.6314C72.3024 14.6314 72.1247 14.6207 71.9502 14.5997C72.9369 15.2323 74.1084 15.6017 75.3673 15.6017C79.4675 15.6017 81.7099 12.2049 81.7099 9.25915C81.7099 9.16244 81.7077 9.06645 81.7031 8.9708C82.14 8.6548 82.5171 8.26353 82.8168 7.81531Z" fill="#22C55E"/>
</g>
<defs>
<filter id="filter0_b_1_14617" x="-117.749" y="-117.749" width="258.165" height="258.165" filterUnits="userSpaceOnUse" color-interpolation-filters="sRGB">
<feFlood flood-opacity="0" result="BackgroundImageFix"/>
<feGaussianBlur in="BackgroundImageFix" stdDeviation="58.8745"/>
<feComposite in2="SourceAlpha" operator="in" result="effect1_backgroundBlur_1_14617"/>
<feBlend mode="normal" in="SourceGraphic" in2="effect1_backgroundBlur_1_14617" result="shape"/>
</filter>
<filter id="filter1_b_1_14617" x="-85.0819" y="-117.749" width="258.165" height="258.165" filterUnits="userSpaceOnUse" color-interpolation-filters="sRGB">
<feFlood flood-opacity="0" result="BackgroundImageFix"/>
<feGaussianBlur in="BackgroundImageFix" stdDeviation="58.8745"/>
<feComposite in2="SourceAlpha" operator="in" result="effect1_backgroundBlur_1_14617"/>
<feBlend mode="normal" in="SourceGraphic" in2="effect1_backgroundBlur_1_14617" result="shape"/>
</filter>
<filter id="filter2_b_1_14617" x="-52.4159" y="-117.749" width="258.165" height="258.165" filterUnits="userSpaceOnUse" color-interpolation-filters="sRGB">
<feFlood flood-opacity="0" result="BackgroundImageFix"/>
<feGaussianBlur in="BackgroundImageFix" stdDeviation="58.8745"/>
<feComposite in2="SourceAlpha" operator="in" result="effect1_backgroundBlur_1_14617"/>
<feBlend mode="normal" in="SourceGraphic" in2="effect1_backgroundBlur_1_14617" result="shape"/>
</filter>
<clipPath id="clip0_1_14617">
<rect width="5.96251" height="11.484" fill="white" transform="translate(8.53906 5.5896)"/>
</clipPath>
<clipPath id="clip1_1_14617">
<rect width="10.303" height="10.303" fill="white" transform="translate(39.1514 5.88745)"/>
</clipPath>
<clipPath id="clip2_1_14617">
<rect width="11.039" height="8.83117" fill="white" transform="translate(71.9502 6.77051)"/>
</clipPath>
</defs>
</svg>
