<svg width="23" height="22" viewBox="0 0 23 22" fill="none" xmlns="http://www.w3.org/2000/svg">
<rect x="0.5" width="22" height="22" rx="11" fill="#8807F7"/>
<path d="M12.7951 16.6175C12.1068 16.6175 11.1326 16.1333 10.3626 13.8175L9.94259 12.5575L8.68259 12.1375C6.37259 11.3675 5.88843 10.3933 5.88843 9.70498C5.88843 9.02248 6.37259 8.04248 8.68259 7.26665L13.6351 5.61581C14.8718 5.20165 15.9043 5.32415 16.5401 5.95415C17.1759 6.58415 17.2984 7.62248 16.8843 8.85915L15.2334 13.8116C14.4576 16.1333 13.4834 16.6175 12.7951 16.6175ZM8.95676 8.10081C7.33509 8.64331 6.75759 9.28498 6.75759 9.70498C6.75759 10.125 7.33509 10.7666 8.95676 11.3033L10.4268 11.7933C10.5551 11.8341 10.6601 11.9391 10.7009 12.0675L11.1909 13.5375C11.7276 15.1591 12.3751 15.7366 12.7951 15.7366C13.2151 15.7366 13.8568 15.1591 14.3993 13.5375L16.0501 8.58498C16.3476 7.68665 16.2951 6.95165 15.9159 6.57248C15.5368 6.19331 14.8018 6.14665 13.9093 6.44415L8.95676 8.10081Z" fill="white"/>
<path d="M10.3975 12.4C10.2866 12.4 10.1758 12.3591 10.0883 12.2716C9.91913 12.1025 9.91913 11.8225 10.0883 11.6533L12.1766 9.55913C12.3458 9.38996 12.6258 9.38996 12.795 9.55913C12.9641 9.72829 12.9641 10.0083 12.795 10.1775L10.7066 12.2716C10.625 12.3591 10.5083 12.4 10.3975 12.4Z" fill="white"/>
</svg>
