<svg width="32" height="32" viewBox="0 0 32 32" fill="none" xmlns="http://www.w3.org/2000/svg">
<circle cx="15.561" cy="16.0979" r="15.5414" fill="white"/>
<g clip-path="url(#clip0_1_2720)">
<path fill-rule="evenodd" clip-rule="evenodd" d="M15.4594 7.20337C14.7006 7.20337 13.4328 7.49477 12.2397 7.81916C11.0191 8.14905 9.78858 8.53942 9.06503 8.77584C8.76251 8.87574 8.49431 9.05895 8.29124 9.30443C8.08817 9.54991 7.95846 9.84769 7.91702 10.1636C7.26164 15.0866 8.78242 18.7352 10.6276 21.1489C11.4101 22.1814 12.3431 23.0906 13.3954 23.8462C13.8198 24.1464 14.2135 24.3763 14.5478 24.5335C14.8557 24.6787 15.1867 24.7974 15.4594 24.7974C15.7321 24.7974 16.062 24.6787 16.371 24.5335C16.774 24.3376 17.1595 24.1077 17.5234 23.8462C18.5757 23.0906 19.5087 22.1814 20.2911 21.1489C22.1363 18.7352 23.6571 15.0866 23.0017 10.1636C22.9604 9.84754 22.8307 9.54958 22.6276 9.30392C22.4245 9.05825 22.1563 8.87484 21.8537 8.77474C20.8034 8.43035 19.7448 8.11136 18.6791 7.81806C17.486 7.49587 16.2181 7.20337 15.4594 7.20337ZM17.8192 12.8621C17.9224 12.7588 18.0624 12.7008 18.2084 12.7008C18.3544 12.7008 18.4945 12.7588 18.5977 12.8621C18.701 12.9653 18.759 13.1053 18.759 13.2513C18.759 13.3973 18.701 13.5374 18.5977 13.6406L15.2988 16.9395C15.2478 16.9907 15.1871 17.0313 15.1203 17.059C15.0535 17.0867 14.9819 17.101 14.9096 17.101C14.8372 17.101 14.7656 17.0867 14.6988 17.059C14.632 17.0313 14.5714 16.9907 14.5203 16.9395L12.8708 15.29C12.8197 15.2389 12.7792 15.1782 12.7515 15.1114C12.7238 15.0447 12.7096 14.9731 12.7096 14.9008C12.7096 14.8285 12.7238 14.7569 12.7515 14.6901C12.7792 14.6233 12.8197 14.5626 12.8708 14.5115C12.922 14.4604 12.9827 14.4198 13.0494 14.3922C13.1162 14.3645 13.1878 14.3503 13.2601 14.3503C13.3324 14.3503 13.404 14.3645 13.4708 14.3922C13.5376 14.4198 13.5983 14.4604 13.6494 14.5115L14.9096 15.7728L17.8192 12.8621Z" fill="#22C55E"/>
</g>
<defs>
<clipPath id="clip0_1_2720">
<rect width="17.5941" height="17.5941" fill="white" transform="translate(6.66016 7.20312)"/>
</clipPath>
</defs>
</svg>
